<?xml version="1.0" encoding="UTF-8" standalone="no"?>
<!DOCTYPE svg PUBLIC "-//W3C//DTD SVG 1.1//EN"
 "http://www.w3.org/Graphics/SVG/1.1/DTD/svg11.dtd">
<!-- Generated by graphviz version 2.43.0 (0)
 -->
<!-- Title: SOCKBASE::send_all Pages: 1 -->
<svg width="480pt" height="104pt"
 viewBox="0.00 0.00 480.00 104.00" xmlns="http://www.w3.org/2000/svg" xmlns:xlink="http://www.w3.org/1999/xlink">
<g id="graph0" class="graph" transform="scale(1 1) rotate(0) translate(4 100)">
<title>SOCKBASE::send_all</title>
<!-- Node1 -->
<g id="node1" class="node">
<title>Node1</title>
<g id="a_node1"><a xlink:title="Wysyłanie danych.">
<polygon fill="#bfbfbf" stroke="black" points="356,-38.5 356,-57.5 472,-57.5 472,-38.5 356,-38.5"/>
<text text-anchor="middle" x="414" y="-45.5" font-family="Helvetica,sans-Serif" font-size="10.00">SOCKBASE::send_all</text>
</a>
</g>
</g>
<!-- Node2 -->
<g id="node2" class="node">
<title>Node2</title>
<g id="a_node2"><a xlink:href="class_c_l_i_e_n_t.html#ad348ac551652139ec10b8598f72527c1" target="_top" xlink:title="Pobieranie pliku.">
<polygon fill="none" stroke="black" points="205.5,-76.5 205.5,-95.5 309.5,-95.5 309.5,-76.5 205.5,-76.5"/>
<text text-anchor="middle" x="257.5" y="-83.5" font-family="Helvetica,sans-Serif" font-size="10.00">CLIENT::download</text>
</a>
</g>
</g>
<!-- Node1&#45;&gt;Node2 -->
<g id="edge1" class="edge">
<title>Node1&#45;&gt;Node2</title>
<path fill="none" stroke="midnightblue" d="M364.05,-60.04C342.46,-65.35 317.46,-71.5 297.21,-76.48"/>
<polygon fill="midnightblue" stroke="midnightblue" points="365.14,-63.38 374.01,-57.59 363.47,-56.58 365.14,-63.38"/>
</g>
<!-- Node4 -->
<g id="node4" class="node">
<title>Node4</title>
<g id="a_node4"><a xlink:href="class_s_e_r_v_e_r.html#aa64b01a309342860852be03efc4326eb" target="_top" xlink:title="Obsługa pobierania pliku.">
<polygon fill="none" stroke="black" points="195,-0.5 195,-19.5 320,-19.5 320,-0.5 195,-0.5"/>
<text text-anchor="middle" x="257.5" y="-7.5" font-family="Helvetica,sans-Serif" font-size="10.00">SERVER::on_download</text>
</a>
</g>
</g>
<!-- Node1&#45;&gt;Node4 -->
<g id="edge3" class="edge">
<title>Node1&#45;&gt;Node4</title>
<path fill="none" stroke="midnightblue" d="M364.05,-35.96C342.46,-30.65 317.46,-24.5 297.21,-19.52"/>
<polygon fill="midnightblue" stroke="midnightblue" points="363.47,-39.42 374.01,-38.41 365.14,-32.62 363.47,-39.42"/>
</g>
<!-- Node7 -->
<g id="node7" class="node">
<title>Node7</title>
<g id="a_node7"><a xlink:href="class_c_l_i_e_n_t.html#a83c83556e186942b8d9c8b812a295454" target="_top" xlink:title="Wysyłanie pliku.">
<polygon fill="none" stroke="black" points="213,-38.5 213,-57.5 302,-57.5 302,-38.5 213,-38.5"/>
<text text-anchor="middle" x="257.5" y="-45.5" font-family="Helvetica,sans-Serif" font-size="10.00">CLIENT::upload</text>
</a>
</g>
</g>
<!-- Node1&#45;&gt;Node7 -->
<g id="edge6" class="edge">
<title>Node1&#45;&gt;Node7</title>
<path fill="none" stroke="midnightblue" d="M345.81,-48C331.08,-48 315.85,-48 302.32,-48"/>
<polygon fill="midnightblue" stroke="midnightblue" points="345.91,-51.5 355.91,-48 345.91,-44.5 345.91,-51.5"/>
</g>
<!-- Node3 -->
<g id="node3" class="node">
<title>Node3</title>
<g id="a_node3"><a xlink:href="main__c_8cpp.html#a0ddf1224851353fc92bfbff6f499fa97" target="_top" xlink:title="Funkcja główna programu klienta.">
<polygon fill="none" stroke="black" points="97.5,-57.5 97.5,-76.5 138.5,-76.5 138.5,-57.5 97.5,-57.5"/>
<text text-anchor="middle" x="118" y="-64.5" font-family="Helvetica,sans-Serif" font-size="10.00">main</text>
</a>
</g>
</g>
<!-- Node2&#45;&gt;Node3 -->
<g id="edge2" class="edge">
<title>Node2&#45;&gt;Node3</title>
<path fill="none" stroke="midnightblue" d="M195.37,-77.55C174.93,-74.73 153.58,-71.78 138.66,-69.72"/>
<polygon fill="midnightblue" stroke="midnightblue" points="194.92,-81.02 205.3,-78.93 195.87,-74.09 194.92,-81.02"/>
</g>
<!-- Node5 -->
<g id="node5" class="node">
<title>Node5</title>
<g id="a_node5"><a xlink:href="class_s_e_r_v_e_r.html#ae5390a25208f81c139a73747374a02bf" target="_top" xlink:title="Pętla serwera.">
<polygon fill="none" stroke="black" points="77,-0.5 77,-19.5 159,-19.5 159,-0.5 77,-0.5"/>
<text text-anchor="middle" x="118" y="-7.5" font-family="Helvetica,sans-Serif" font-size="10.00">SERVER::loop</text>
</a>
</g>
</g>
<!-- Node4&#45;&gt;Node5 -->
<g id="edge4" class="edge">
<title>Node4&#45;&gt;Node5</title>
<path fill="none" stroke="midnightblue" d="M184.98,-10C176.11,-10 167.3,-10 159.15,-10"/>
<polygon fill="midnightblue" stroke="midnightblue" points="184.99,-13.5 194.99,-10 184.99,-6.5 184.99,-13.5"/>
</g>
<!-- Node6 -->
<g id="node6" class="node">
<title>Node6</title>
<g id="a_node6"><a xlink:href="main__s_8cpp.html#a0ddf1224851353fc92bfbff6f499fa97" target="_top" xlink:title="Funkcja główna programu serwera.">
<polygon fill="none" stroke="black" points="0,-0.5 0,-19.5 41,-19.5 41,-0.5 0,-0.5"/>
<text text-anchor="middle" x="20.5" y="-7.5" font-family="Helvetica,sans-Serif" font-size="10.00">main</text>
</a>
</g>
</g>
<!-- Node5&#45;&gt;Node6 -->
<g id="edge5" class="edge">
<title>Node5&#45;&gt;Node6</title>
<path fill="none" stroke="midnightblue" d="M66.57,-10C57.52,-10 48.6,-10 41.11,-10"/>
<polygon fill="midnightblue" stroke="midnightblue" points="66.78,-13.5 76.78,-10 66.78,-6.5 66.78,-13.5"/>
</g>
<!-- Node7&#45;&gt;Node3 -->
<g id="edge7" class="edge">
<title>Node7&#45;&gt;Node3</title>
<path fill="none" stroke="midnightblue" d="M202.85,-55.41C180.36,-58.52 155.59,-61.94 138.85,-64.26"/>
<polygon fill="midnightblue" stroke="midnightblue" points="203.57,-58.85 212.99,-54.01 202.61,-51.91 203.57,-58.85"/>
</g>
</g>
</svg>
