<?xml version="1.0" encoding="UTF-8" standalone="no"?>
<!DOCTYPE svg PUBLIC "-//W3C//DTD SVG 1.1//EN"
 "http://www.w3.org/Graphics/SVG/1.1/DTD/svg11.dtd">
<!-- Generated by graphviz version 2.43.0 (0)
 -->
<!-- Title: SERVER Pages: 1 -->
<svg width="388pt" height="1241pt"
 viewBox="0.00 0.00 387.50 1241.00" xmlns="http://www.w3.org/2000/svg" xmlns:xlink="http://www.w3.org/1999/xlink">
<g id="graph0" class="graph" transform="scale(1 1) rotate(0) translate(4 1237)">
<title>SERVER</title>
<!-- Node1 -->
<g id="node1" class="node">
<title>Node1</title>
<g id="a_node1"><a xlink:title="Klasa serwera.">
<polygon fill="#bfbfbf" stroke="black" points="125.5,-0.5 125.5,-178.5 230.5,-178.5 230.5,-0.5 125.5,-0.5"/>
<text text-anchor="middle" x="178" y="-166.5" font-family="Helvetica,sans-Serif" font-size="10.00">SERVER</text>
<polyline fill="none" stroke="black" points="125.5,-159.5 230.5,-159.5 "/>
<text text-anchor="start" x="133.5" y="-147.5" font-family="Helvetica,sans-Serif" font-size="10.00"># m_terminate</text>
<polyline fill="none" stroke="black" points="125.5,-140.5 230.5,-140.5 "/>
<text text-anchor="start" x="133.5" y="-128.5" font-family="Helvetica,sans-Serif" font-size="10.00">+ SERVER()</text>
<text text-anchor="start" x="133.5" y="-117.5" font-family="Helvetica,sans-Serif" font-size="10.00">+ ~SERVER()</text>
<text text-anchor="start" x="133.5" y="-106.5" font-family="Helvetica,sans-Serif" font-size="10.00">+ start()</text>
<text text-anchor="start" x="133.5" y="-95.5" font-family="Helvetica,sans-Serif" font-size="10.00">+ stop()</text>
<text text-anchor="start" x="133.5" y="-84.5" font-family="Helvetica,sans-Serif" font-size="10.00">+ end()</text>
<text text-anchor="start" x="133.5" y="-73.5" font-family="Helvetica,sans-Serif" font-size="10.00">+ loop()</text>
<text text-anchor="start" x="133.5" y="-62.5" font-family="Helvetica,sans-Serif" font-size="10.00">+ is_started()</text>
<text text-anchor="start" x="133.5" y="-51.5" font-family="Helvetica,sans-Serif" font-size="10.00"># on_accept()</text>
<text text-anchor="start" x="133.5" y="-40.5" font-family="Helvetica,sans-Serif" font-size="10.00"># on_header()</text>
<text text-anchor="start" x="133.5" y="-29.5" font-family="Helvetica,sans-Serif" font-size="10.00"># on_upload()</text>
<text text-anchor="start" x="133.5" y="-18.5" font-family="Helvetica,sans-Serif" font-size="10.00"># on_download()</text>
<text text-anchor="start" x="133.5" y="-7.5" font-family="Helvetica,sans-Serif" font-size="10.00"># on_disconnect()</text>
</a>
</g>
</g>
<!-- Node2 -->
<g id="node2" class="node">
<title>Node2</title>
<g id="a_node2"><a xlink:href="class_s_o_c_k_b_a_s_e.html" target="_top" xlink:title="Klasa bazowa.">
<polygon fill="none" stroke="black" points="0,-226.5 0,-382.5 96,-382.5 96,-226.5 0,-226.5"/>
<text text-anchor="middle" x="48" y="-370.5" font-family="Helvetica,sans-Serif" font-size="10.00">SOCKBASE</text>
<polyline fill="none" stroke="black" points="0,-363.5 96,-363.5 "/>
<text text-anchor="start" x="8" y="-351.5" font-family="Helvetica,sans-Serif" font-size="10.00"># m_sock</text>
<text text-anchor="start" x="8" y="-340.5" font-family="Helvetica,sans-Serif" font-size="10.00"># m_buff</text>
<polyline fill="none" stroke="black" points="0,-333.5 96,-333.5 "/>
<text text-anchor="start" x="8" y="-321.5" font-family="Helvetica,sans-Serif" font-size="10.00">+ SOCKBASE()</text>
<text text-anchor="start" x="8" y="-310.5" font-family="Helvetica,sans-Serif" font-size="10.00">+ SOCKBASE()</text>
<text text-anchor="start" x="8" y="-299.5" font-family="Helvetica,sans-Serif" font-size="10.00">+ SOCKBASE()</text>
<text text-anchor="start" x="8" y="-288.5" font-family="Helvetica,sans-Serif" font-size="10.00">+ ~SOCKBASE()</text>
<text text-anchor="start" x="8" y="-277.5" font-family="Helvetica,sans-Serif" font-size="10.00">+ close()</text>
<text text-anchor="start" x="8" y="-266.5" font-family="Helvetica,sans-Serif" font-size="10.00">+ operator=()</text>
<text text-anchor="start" x="8" y="-255.5" font-family="Helvetica,sans-Serif" font-size="10.00">+ operator=()</text>
<text text-anchor="start" x="8" y="-244.5" font-family="Helvetica,sans-Serif" font-size="10.00"># send_all()</text>
<text text-anchor="start" x="8" y="-233.5" font-family="Helvetica,sans-Serif" font-size="10.00"># get_name()</text>
</a>
</g>
</g>
<!-- Node2&#45;&gt;Node1 -->
<g id="edge1" class="edge">
<title>Node2&#45;&gt;Node1</title>
<path fill="none" stroke="midnightblue" d="M100.46,-217.55C108.65,-204.13 117.12,-190.25 125.32,-176.81"/>
<polygon fill="none" stroke="midnightblue" points="97.34,-215.94 95.12,-226.3 103.31,-219.59 97.34,-215.94"/>
</g>
<!-- Node3 -->
<g id="node3" class="node">
<title>Node3</title>
<g id="a_node3"><a xlink:title=" ">
<polygon fill="none" stroke="black" points="114,-270.5 114,-338.5 242,-338.5 242,-270.5 114,-270.5"/>
<text text-anchor="start" x="122" y="-326.5" font-family="Helvetica,sans-Serif" font-size="10.00">std::map&lt; int, SERVER</text>
<text text-anchor="middle" x="178" y="-315.5" font-family="Helvetica,sans-Serif" font-size="10.00">::CLIENT &gt;</text>
<polyline fill="none" stroke="black" points="114,-308.5 242,-308.5 "/>
<text text-anchor="start" x="122" y="-296.5" font-family="Helvetica,sans-Serif" font-size="10.00">+ keys</text>
<polyline fill="none" stroke="black" points="114,-289.5 242,-289.5 "/>
<text text-anchor="middle" x="178" y="-277.5" font-family="Helvetica,sans-Serif" font-size="10.00"> </text>
</a>
</g>
</g>
<!-- Node3&#45;&gt;Node1 -->
<g id="edge2" class="edge">
<title>Node3&#45;&gt;Node1</title>
<path fill="none" stroke="#404040" d="M178,-270.22C178,-248.72 178,-219.5 178,-190.88"/>
<polygon fill="none" stroke="#404040" points="178,-190.67 174,-184.67 178,-178.67 182,-184.67 178,-190.67"/>
<text text-anchor="middle" x="207.5" y="-200" font-family="Helvetica,sans-Serif" font-size="10.00"> #m_clients</text>
</g>
<!-- Node4 -->
<g id="node4" class="node">
<title>Node4</title>
<g id="a_node4"><a xlink:href="struct_s_e_r_v_e_r_1_1_c_l_i_e_n_t.html" target="_top" xlink:title="Struktura opisująca klienta.">
<polygon fill="none" stroke="black" points="130.5,-430.5 130.5,-619.5 225.5,-619.5 225.5,-430.5 130.5,-430.5"/>
<text text-anchor="middle" x="178" y="-607.5" font-family="Helvetica,sans-Serif" font-size="10.00">SERVER::CLIENT</text>
<polyline fill="none" stroke="black" points="130.5,-600.5 225.5,-600.5 "/>
<text text-anchor="start" x="138.5" y="-588.5" font-family="Helvetica,sans-Serif" font-size="10.00">+ state</text>
<text text-anchor="start" x="138.5" y="-577.5" font-family="Helvetica,sans-Serif" font-size="10.00">+ buff</text>
<text text-anchor="start" x="138.5" y="-566.5" font-family="Helvetica,sans-Serif" font-size="10.00">+ size</text>
<text text-anchor="start" x="138.5" y="-555.5" font-family="Helvetica,sans-Serif" font-size="10.00">+ cap</text>
<text text-anchor="start" x="138.5" y="-544.5" font-family="Helvetica,sans-Serif" font-size="10.00">+ sock</text>
<polyline fill="none" stroke="black" points="130.5,-537.5 225.5,-537.5 "/>
<text text-anchor="start" x="138.5" y="-525.5" font-family="Helvetica,sans-Serif" font-size="10.00">+ CLIENT()</text>
<text text-anchor="start" x="138.5" y="-514.5" font-family="Helvetica,sans-Serif" font-size="10.00">+ CLIENT()</text>
<text text-anchor="start" x="138.5" y="-503.5" font-family="Helvetica,sans-Serif" font-size="10.00">+ ~CLIENT()</text>
<text text-anchor="start" x="138.5" y="-492.5" font-family="Helvetica,sans-Serif" font-size="10.00">+ CLIENT()</text>
<text text-anchor="start" x="138.5" y="-481.5" font-family="Helvetica,sans-Serif" font-size="10.00">+ CLIENT()</text>
<text text-anchor="start" x="138.5" y="-470.5" font-family="Helvetica,sans-Serif" font-size="10.00">+ operator=()</text>
<text text-anchor="start" x="138.5" y="-459.5" font-family="Helvetica,sans-Serif" font-size="10.00">+ operator=()</text>
<text text-anchor="start" x="138.5" y="-448.5" font-family="Helvetica,sans-Serif" font-size="10.00">+ resize()</text>
<text text-anchor="start" x="138.5" y="-437.5" font-family="Helvetica,sans-Serif" font-size="10.00">+ clean()</text>
</a>
</g>
</g>
<!-- Node4&#45;&gt;Node3 -->
<g id="edge3" class="edge">
<title>Node4&#45;&gt;Node3</title>
<path fill="none" stroke="#404040" d="M178,-430.39C178,-402.83 178,-373.91 178,-350.85"/>
<polygon fill="none" stroke="#404040" points="178,-350.69 174,-344.69 178,-338.69 182,-344.69 178,-350.69"/>
<text text-anchor="middle" x="207" y="-404" font-family="Helvetica,sans-Serif" font-size="10.00"> +elements</text>
</g>
<!-- Node5 -->
<g id="node5" class="node">
<title>Node5</title>
<g id="a_node5"><a xlink:title=" ">
<polygon fill="none" stroke="black" points="140,-667.5 140,-724.5 216,-724.5 216,-667.5 140,-667.5"/>
<text text-anchor="middle" x="178" y="-712.5" font-family="Helvetica,sans-Serif" font-size="10.00">std::fstream</text>
<polyline fill="none" stroke="black" points="140,-705.5 216,-705.5 "/>
<text text-anchor="middle" x="178" y="-693.5" font-family="Helvetica,sans-Serif" font-size="10.00"> </text>
<polyline fill="none" stroke="black" points="140,-686.5 216,-686.5 "/>
<text text-anchor="middle" x="178" y="-674.5" font-family="Helvetica,sans-Serif" font-size="10.00"> </text>
</a>
</g>
</g>
<!-- Node5&#45;&gt;Node4 -->
<g id="edge4" class="edge">
<title>Node5&#45;&gt;Node4</title>
<path fill="none" stroke="#404040" d="M178,-667.47C178,-657.23 178,-644.9 178,-631.84"/>
<polygon fill="none" stroke="#404040" points="178,-631.69 174,-625.69 178,-619.69 182,-625.69 178,-631.69"/>
<text text-anchor="middle" x="192" y="-641" font-family="Helvetica,sans-Serif" font-size="10.00"> +file</text>
</g>
<!-- Node6 -->
<g id="node6" class="node">
<title>Node6</title>
<g id="a_node6"><a xlink:title=" ">
<polygon fill="none" stroke="black" points="124.5,-762.5 124.5,-830.5 231.5,-830.5 231.5,-762.5 124.5,-762.5"/>
<text text-anchor="start" x="132.5" y="-818.5" font-family="Helvetica,sans-Serif" font-size="10.00">std::basic_fstream</text>
<text text-anchor="middle" x="178" y="-807.5" font-family="Helvetica,sans-Serif" font-size="10.00">&lt; Char &gt;</text>
<polyline fill="none" stroke="black" points="124.5,-800.5 231.5,-800.5 "/>
<text text-anchor="middle" x="178" y="-788.5" font-family="Helvetica,sans-Serif" font-size="10.00"> </text>
<polyline fill="none" stroke="black" points="124.5,-781.5 231.5,-781.5 "/>
<text text-anchor="middle" x="178" y="-769.5" font-family="Helvetica,sans-Serif" font-size="10.00"> </text>
</a>
</g>
</g>
<!-- Node6&#45;&gt;Node5 -->
<g id="edge5" class="edge">
<title>Node6&#45;&gt;Node5</title>
<path fill="none" stroke="midnightblue" d="M178,-752.38C178,-742.94 178,-733.2 178,-724.57"/>
<polygon fill="none" stroke="midnightblue" points="174.5,-752.43 178,-762.43 181.5,-752.43 174.5,-752.43"/>
</g>
<!-- Node7 -->
<g id="node7" class="node">
<title>Node7</title>
<g id="a_node7"><a xlink:title=" ">
<polygon fill="none" stroke="black" points="122,-868.5 122,-936.5 234,-936.5 234,-868.5 122,-868.5"/>
<text text-anchor="start" x="130" y="-924.5" font-family="Helvetica,sans-Serif" font-size="10.00">std::basic_iostream</text>
<text text-anchor="middle" x="178" y="-913.5" font-family="Helvetica,sans-Serif" font-size="10.00">&lt; Char &gt;</text>
<polyline fill="none" stroke="black" points="122,-906.5 234,-906.5 "/>
<text text-anchor="middle" x="178" y="-894.5" font-family="Helvetica,sans-Serif" font-size="10.00"> </text>
<polyline fill="none" stroke="black" points="122,-887.5 234,-887.5 "/>
<text text-anchor="middle" x="178" y="-875.5" font-family="Helvetica,sans-Serif" font-size="10.00"> </text>
</a>
</g>
</g>
<!-- Node7&#45;&gt;Node6 -->
<g id="edge6" class="edge">
<title>Node7&#45;&gt;Node6</title>
<path fill="none" stroke="midnightblue" d="M178,-858.17C178,-849 178,-839.46 178,-830.73"/>
<polygon fill="none" stroke="midnightblue" points="174.5,-858.31 178,-868.31 181.5,-858.31 174.5,-858.31"/>
</g>
<!-- Node8 -->
<g id="node8" class="node">
<title>Node8</title>
<g id="a_node8"><a xlink:title=" ">
<polygon fill="none" stroke="black" points="63,-974.5 63,-1042.5 169,-1042.5 169,-974.5 63,-974.5"/>
<text text-anchor="start" x="71" y="-1030.5" font-family="Helvetica,sans-Serif" font-size="10.00">std::basic_istream</text>
<text text-anchor="middle" x="116" y="-1019.5" font-family="Helvetica,sans-Serif" font-size="10.00">&lt; Char &gt;</text>
<polyline fill="none" stroke="black" points="63,-1012.5 169,-1012.5 "/>
<text text-anchor="middle" x="116" y="-1000.5" font-family="Helvetica,sans-Serif" font-size="10.00"> </text>
<polyline fill="none" stroke="black" points="63,-993.5 169,-993.5 "/>
<text text-anchor="middle" x="116" y="-981.5" font-family="Helvetica,sans-Serif" font-size="10.00"> </text>
</a>
</g>
</g>
<!-- Node8&#45;&gt;Node7 -->
<g id="edge7" class="edge">
<title>Node8&#45;&gt;Node7</title>
<path fill="none" stroke="midnightblue" d="M140.95,-965.65C146.68,-956.03 152.71,-945.93 158.19,-936.73"/>
<polygon fill="none" stroke="midnightblue" points="137.9,-963.93 135.79,-974.31 143.91,-967.51 137.9,-963.93"/>
</g>
<!-- Node9 -->
<g id="node9" class="node">
<title>Node9</title>
<g id="a_node9"><a xlink:title=" ">
<polygon fill="none" stroke="black" points="114,-1080.5 114,-1137.5 242,-1137.5 242,-1080.5 114,-1080.5"/>
<text text-anchor="middle" x="178" y="-1125.5" font-family="Helvetica,sans-Serif" font-size="10.00">std::basic_ios&lt; Char &gt;</text>
<polyline fill="none" stroke="black" points="114,-1118.5 242,-1118.5 "/>
<text text-anchor="middle" x="178" y="-1106.5" font-family="Helvetica,sans-Serif" font-size="10.00"> </text>
<polyline fill="none" stroke="black" points="114,-1099.5 242,-1099.5 "/>
<text text-anchor="middle" x="178" y="-1087.5" font-family="Helvetica,sans-Serif" font-size="10.00"> </text>
</a>
</g>
</g>
<!-- Node9&#45;&gt;Node8 -->
<g id="edge8" class="edge">
<title>Node9&#45;&gt;Node8</title>
<path fill="none" stroke="midnightblue" d="M155.19,-1071.77C149.18,-1062.22 142.72,-1051.96 136.82,-1042.58"/>
<polygon fill="none" stroke="midnightblue" points="152.28,-1073.7 160.56,-1080.3 158.2,-1069.97 152.28,-1073.7"/>
</g>
<!-- Node11 -->
<g id="node11" class="node">
<title>Node11</title>
<g id="a_node11"><a xlink:title=" ">
<polygon fill="none" stroke="black" points="187.5,-974.5 187.5,-1042.5 296.5,-1042.5 296.5,-974.5 187.5,-974.5"/>
<text text-anchor="start" x="195.5" y="-1030.5" font-family="Helvetica,sans-Serif" font-size="10.00">std::basic_ostream</text>
<text text-anchor="middle" x="242" y="-1019.5" font-family="Helvetica,sans-Serif" font-size="10.00">&lt; Char &gt;</text>
<polyline fill="none" stroke="black" points="187.5,-1012.5 296.5,-1012.5 "/>
<text text-anchor="middle" x="242" y="-1000.5" font-family="Helvetica,sans-Serif" font-size="10.00"> </text>
<polyline fill="none" stroke="black" points="187.5,-993.5 296.5,-993.5 "/>
<text text-anchor="middle" x="242" y="-981.5" font-family="Helvetica,sans-Serif" font-size="10.00"> </text>
</a>
</g>
</g>
<!-- Node9&#45;&gt;Node11 -->
<g id="edge11" class="edge">
<title>Node9&#45;&gt;Node11</title>
<path fill="none" stroke="midnightblue" d="M201.54,-1071.77C207.75,-1062.22 214.41,-1051.96 220.51,-1042.58"/>
<polygon fill="none" stroke="midnightblue" points="198.51,-1070.01 196,-1080.3 204.38,-1073.82 198.51,-1070.01"/>
</g>
<!-- Node10 -->
<g id="node10" class="node">
<title>Node10</title>
<g id="a_node10"><a xlink:title=" ">
<polygon fill="none" stroke="black" points="138,-1175.5 138,-1232.5 218,-1232.5 218,-1175.5 138,-1175.5"/>
<text text-anchor="middle" x="178" y="-1220.5" font-family="Helvetica,sans-Serif" font-size="10.00">std::ios_base</text>
<polyline fill="none" stroke="black" points="138,-1213.5 218,-1213.5 "/>
<text text-anchor="middle" x="178" y="-1201.5" font-family="Helvetica,sans-Serif" font-size="10.00"> </text>
<polyline fill="none" stroke="black" points="138,-1194.5 218,-1194.5 "/>
<text text-anchor="middle" x="178" y="-1182.5" font-family="Helvetica,sans-Serif" font-size="10.00"> </text>
</a>
</g>
</g>
<!-- Node10&#45;&gt;Node9 -->
<g id="edge9" class="edge">
<title>Node10&#45;&gt;Node9</title>
<path fill="none" stroke="midnightblue" d="M178,-1165.24C178,-1156.03 178,-1146.35 178,-1137.71"/>
<polygon fill="none" stroke="midnightblue" points="174.5,-1165.35 178,-1175.35 181.5,-1165.35 174.5,-1165.35"/>
</g>
<!-- Node11&#45;&gt;Node7 -->
<g id="edge10" class="edge">
<title>Node11&#45;&gt;Node7</title>
<path fill="none" stroke="midnightblue" d="M216.25,-965.65C210.33,-956.03 204.11,-945.93 198.45,-936.73"/>
<polygon fill="none" stroke="midnightblue" points="213.35,-967.63 221.57,-974.31 219.31,-963.96 213.35,-967.63"/>
</g>
<!-- Node12 -->
<g id="node12" class="node">
<title>Node12</title>
<g id="a_node12"><a xlink:title=" ">
<polygon fill="none" stroke="black" points="260.5,-276 260.5,-333 379.5,-333 379.5,-276 260.5,-276"/>
<text text-anchor="middle" x="320" y="-321" font-family="Helvetica,sans-Serif" font-size="10.00">std::vector&lt; pollfd &gt;</text>
<polyline fill="none" stroke="black" points="260.5,-314 379.5,-314 "/>
<text text-anchor="start" x="268.5" y="-302" font-family="Helvetica,sans-Serif" font-size="10.00">+ elements</text>
<polyline fill="none" stroke="black" points="260.5,-295 379.5,-295 "/>
<text text-anchor="middle" x="320" y="-283" font-family="Helvetica,sans-Serif" font-size="10.00"> </text>
</a>
</g>
</g>
<!-- Node12&#45;&gt;Node1 -->
<g id="edge12" class="edge">
<title>Node12&#45;&gt;Node1</title>
<path fill="none" stroke="#404040" d="M301.44,-275.65C285.08,-251.12 260.34,-214.02 237.3,-179.45"/>
<polygon fill="none" stroke="#404040" points="237.19,-179.28 230.53,-176.51 230.53,-169.3 237.19,-172.07 237.19,-179.28"/>
<text text-anchor="middle" x="285" y="-200" font-family="Helvetica,sans-Serif" font-size="10.00"> #m_sockets</text>
</g>
</g>
</svg>
