<?xml version="1.0" encoding="UTF-8" standalone="no"?>
<!DOCTYPE svg PUBLIC "-//W3C//DTD SVG 1.1//EN"
 "http://www.w3.org/Graphics/SVG/1.1/DTD/svg11.dtd">
<!-- Generated by graphviz version 2.43.0 (0)
 -->
<!-- Title: CLIENT::upload Pages: 1 -->
<svg width="386pt" height="66pt"
 viewBox="0.00 0.00 386.00 66.00" xmlns="http://www.w3.org/2000/svg" xmlns:xlink="http://www.w3.org/1999/xlink">
<g id="graph0" class="graph" transform="scale(1 1) rotate(0) translate(4 62)">
<title>CLIENT::upload</title>
<!-- Node1 -->
<g id="node1" class="node">
<title>Node1</title>
<g id="a_node1"><a xlink:title="Wysyłanie pliku.">
<polygon fill="#bfbfbf" stroke="black" points="0,-19.5 0,-38.5 89,-38.5 89,-19.5 0,-19.5"/>
<text text-anchor="middle" x="44.5" y="-26.5" font-family="Helvetica,sans-Serif" font-size="10.00">CLIENT::upload</text>
</a>
</g>
</g>
<!-- Node2 -->
<g id="node2" class="node">
<title>Node2</title>
<g id="a_node2"><a xlink:href="class_c_l_i_e_n_t.html#a13a0cbc78ae543e0f6965a9c896b9562" target="_top" xlink:title="Zamyka połączenie.">
<polygon fill="none" stroke="black" points="128.5,-38.5 128.5,-57.5 237.5,-57.5 237.5,-38.5 128.5,-38.5"/>
<text text-anchor="middle" x="183" y="-45.5" font-family="Helvetica,sans-Serif" font-size="10.00">CLIENT::disconnect</text>
</a>
</g>
</g>
<!-- Node1&#45;&gt;Node2 -->
<g id="edge1" class="edge">
<title>Node1&#45;&gt;Node2</title>
<path fill="none" stroke="midnightblue" d="M89.06,-35.06C98.33,-36.35 108.3,-37.74 118.14,-39.11"/>
<polygon fill="midnightblue" stroke="midnightblue" points="117.93,-42.62 128.32,-40.53 118.9,-35.68 117.93,-42.62"/>
</g>
<!-- Node4 -->
<g id="node4" class="node">
<title>Node4</title>
<g id="a_node4"><a xlink:href="class_s_o_c_k_b_a_s_e.html#aefa554c9927511c17d7319e0c9a73291" target="_top" xlink:title="Wysyłanie danych.">
<polygon fill="none" stroke="black" points="125,-0.5 125,-19.5 241,-19.5 241,-0.5 125,-0.5"/>
<text text-anchor="middle" x="183" y="-7.5" font-family="Helvetica,sans-Serif" font-size="10.00">SOCKBASE::send_all</text>
</a>
</g>
</g>
<!-- Node1&#45;&gt;Node4 -->
<g id="edge3" class="edge">
<title>Node1&#45;&gt;Node4</title>
<path fill="none" stroke="midnightblue" d="M89.06,-22.94C97.25,-21.8 105.99,-20.58 114.7,-19.37"/>
<polygon fill="midnightblue" stroke="midnightblue" points="115.47,-22.79 124.89,-17.95 114.5,-15.86 115.47,-22.79"/>
</g>
<!-- Node3 -->
<g id="node3" class="node">
<title>Node3</title>
<g id="a_node3"><a xlink:href="class_s_o_c_k_b_a_s_e.html#a188bbebe9b3f5ec16b0304b512da7c0f" target="_top" xlink:title="Zamyka gniazdo.">
<polygon fill="none" stroke="black" points="277,-38.5 277,-57.5 378,-57.5 378,-38.5 277,-38.5"/>
<text text-anchor="middle" x="327.5" y="-45.5" font-family="Helvetica,sans-Serif" font-size="10.00">SOCKBASE::close</text>
</a>
</g>
</g>
<!-- Node2&#45;&gt;Node3 -->
<g id="edge2" class="edge">
<title>Node2&#45;&gt;Node3</title>
<path fill="none" stroke="midnightblue" d="M237.87,-48C247.25,-48 257.05,-48 266.58,-48"/>
<polygon fill="midnightblue" stroke="midnightblue" points="266.78,-51.5 276.78,-48 266.78,-44.5 266.78,-51.5"/>
</g>
</g>
</svg>
