<?xml version="1.0" encoding="UTF-8" standalone="no"?>
<!DOCTYPE svg PUBLIC "-//W3C//DTD SVG 1.1//EN"
 "http://www.w3.org/Graphics/SVG/1.1/DTD/svg11.dtd">
<!-- Generated by graphviz version 2.43.0 (0)
 -->
<!-- Title: SERVER::loop Pages: 1 -->
<svg width="578pt" height="161pt"
 viewBox="0.00 0.00 578.00 161.00" xmlns="http://www.w3.org/2000/svg" xmlns:xlink="http://www.w3.org/1999/xlink">
<g id="graph0" class="graph" transform="scale(1 1) rotate(0) translate(4 157)">
<title>SERVER::loop</title>
<!-- Node1 -->
<g id="node1" class="node">
<title>Node1</title>
<g id="a_node1"><a xlink:title="Pętla serwera.">
<polygon fill="#bfbfbf" stroke="black" points="0,-76.5 0,-95.5 82,-95.5 82,-76.5 0,-76.5"/>
<text text-anchor="middle" x="41" y="-83.5" font-family="Helvetica,sans-Serif" font-size="10.00">SERVER::loop</text>
</a>
</g>
</g>
<!-- Node2 -->
<g id="node2" class="node">
<title>Node2</title>
<g id="a_node2"><a xlink:href="class_s_e_r_v_e_r.html#aa64d19c0d8277395ab290fab932ba202" target="_top" xlink:title="Obsługa nowego połączenia.">
<polygon fill="none" stroke="black" points="289.5,-133.5 289.5,-152.5 399.5,-152.5 399.5,-133.5 289.5,-133.5"/>
<text text-anchor="middle" x="344.5" y="-140.5" font-family="Helvetica,sans-Serif" font-size="10.00">SERVER::on_accept</text>
</a>
</g>
</g>
<!-- Node1&#45;&gt;Node2 -->
<g id="edge1" class="edge">
<title>Node1&#45;&gt;Node2</title>
<path fill="none" stroke="midnightblue" d="M58.59,-95.62C73.59,-103.82 96.55,-115.19 118,-121 171.12,-135.38 233.54,-140.62 279.22,-142.4"/>
<polygon fill="midnightblue" stroke="midnightblue" points="279.17,-145.9 289.29,-142.75 279.41,-138.91 279.17,-145.9"/>
</g>
<!-- Node4 -->
<g id="node4" class="node">
<title>Node4</title>
<g id="a_node4"><a xlink:href="class_s_e_r_v_e_r.html#ae95cc32343639f51220c1ebd5eb40722" target="_top" xlink:title="Obsługa rozłączenia klienta.">
<polygon fill="none" stroke="black" points="279,-76.5 279,-95.5 410,-95.5 410,-76.5 279,-76.5"/>
<text text-anchor="middle" x="344.5" y="-83.5" font-family="Helvetica,sans-Serif" font-size="10.00">SERVER::on_disconnect</text>
</a>
</g>
</g>
<!-- Node1&#45;&gt;Node4 -->
<g id="edge3" class="edge">
<title>Node1&#45;&gt;Node4</title>
<path fill="none" stroke="midnightblue" d="M72.74,-95.51C86.44,-99.27 102.88,-103.14 118,-105 173.14,-111.79 187.69,-110.18 243,-105 259.24,-103.48 276.77,-100.6 292.57,-97.54"/>
<polygon fill="midnightblue" stroke="midnightblue" points="293.56,-100.91 302.67,-95.51 292.18,-94.05 293.56,-100.91"/>
</g>
<!-- Node5 -->
<g id="node5" class="node">
<title>Node5</title>
<g id="a_node5"><a xlink:href="class_s_e_r_v_e_r.html#a7e0fcd9b47fd1272527fd02c089cd1e2" target="_top" xlink:title="Obsługa pobierania pliku.">
<polygon fill="none" stroke="black" points="118,-76.5 118,-95.5 243,-95.5 243,-76.5 118,-76.5"/>
<text text-anchor="middle" x="180.5" y="-83.5" font-family="Helvetica,sans-Serif" font-size="10.00">SERVER::on_download</text>
</a>
</g>
</g>
<!-- Node1&#45;&gt;Node5 -->
<g id="edge5" class="edge">
<title>Node1&#45;&gt;Node5</title>
<path fill="none" stroke="midnightblue" d="M82.14,-86C90.17,-86 98.84,-86 107.58,-86"/>
<polygon fill="midnightblue" stroke="midnightblue" points="107.83,-89.5 117.83,-86 107.83,-82.5 107.83,-89.5"/>
</g>
<!-- Node6 -->
<g id="node6" class="node">
<title>Node6</title>
<g id="a_node6"><a xlink:href="class_s_e_r_v_e_r.html#a9472ce08aa1988b86f0eff95e5c1c431" target="_top" xlink:title="Obsługa nagłówka.">
<polygon fill="none" stroke="black" points="124.5,-38.5 124.5,-57.5 236.5,-57.5 236.5,-38.5 124.5,-38.5"/>
<text text-anchor="middle" x="180.5" y="-45.5" font-family="Helvetica,sans-Serif" font-size="10.00">SERVER::on_header</text>
</a>
</g>
</g>
<!-- Node1&#45;&gt;Node6 -->
<g id="edge7" class="edge">
<title>Node1&#45;&gt;Node6</title>
<path fill="none" stroke="midnightblue" d="M76.7,-76.41C94.37,-71.53 116.05,-65.54 134.94,-60.32"/>
<polygon fill="midnightblue" stroke="midnightblue" points="136.11,-63.62 144.81,-57.59 134.24,-56.88 136.11,-63.62"/>
</g>
<!-- Node7 -->
<g id="node7" class="node">
<title>Node7</title>
<g id="a_node7"><a xlink:href="class_s_e_r_v_e_r.html#ad2f806bd9b45db55531faea533288e61" target="_top" xlink:title="Obsługa wysyłania pliku.">
<polygon fill="none" stroke="black" points="125,-0.5 125,-19.5 236,-19.5 236,-0.5 125,-0.5"/>
<text text-anchor="middle" x="180.5" y="-7.5" font-family="Helvetica,sans-Serif" font-size="10.00">SERVER::on_upload</text>
</a>
</g>
</g>
<!-- Node1&#45;&gt;Node7 -->
<g id="edge9" class="edge">
<title>Node1&#45;&gt;Node7</title>
<path fill="none" stroke="midnightblue" d="M52.53,-76.21C66.51,-63.68 92.43,-42.04 118,-29 122.32,-26.8 126.93,-24.8 131.62,-23"/>
<polygon fill="midnightblue" stroke="midnightblue" points="133.04,-26.21 141.29,-19.56 130.7,-19.61 133.04,-26.21"/>
</g>
<!-- Node3 -->
<g id="node3" class="node">
<title>Node3</title>
<g id="a_node3"><a xlink:href="class_s_o_c_k_b_a_s_e.html#a1bed341ace5336a5cfa1683929a3f497" target="_top" xlink:title="Pobranie nazwy hosta.">
<polygon fill="none" stroke="black" points="446,-95.5 446,-114.5 570,-114.5 570,-95.5 446,-95.5"/>
<text text-anchor="middle" x="508" y="-102.5" font-family="Helvetica,sans-Serif" font-size="10.00">SOCKBASE::get_name</text>
</a>
</g>
</g>
<!-- Node2&#45;&gt;Node3 -->
<g id="edge2" class="edge">
<title>Node2&#45;&gt;Node3</title>
<path fill="none" stroke="midnightblue" d="M386.25,-133.41C407.66,-128.37 434.09,-122.16 456.75,-116.82"/>
<polygon fill="midnightblue" stroke="midnightblue" points="457.61,-120.22 466.54,-114.52 456,-113.4 457.61,-120.22"/>
</g>
<!-- Node4&#45;&gt;Node3 -->
<g id="edge4" class="edge">
<title>Node4&#45;&gt;Node3</title>
<path fill="none" stroke="midnightblue" d="M410.26,-93.62C418.71,-94.61 427.4,-95.64 435.95,-96.64"/>
<polygon fill="midnightblue" stroke="midnightblue" points="435.56,-100.12 445.9,-97.81 436.37,-93.17 435.56,-100.12"/>
</g>
<!-- Node5&#45;&gt;Node4 -->
<g id="edge6" class="edge">
<title>Node5&#45;&gt;Node4</title>
<path fill="none" stroke="midnightblue" d="M243.21,-86C251.47,-86 260.02,-86 268.48,-86"/>
<polygon fill="midnightblue" stroke="midnightblue" points="268.73,-89.5 278.73,-86 268.73,-82.5 268.73,-89.5"/>
</g>
<!-- Node6&#45;&gt;Node4 -->
<g id="edge8" class="edge">
<title>Node6&#45;&gt;Node4</title>
<path fill="none" stroke="midnightblue" d="M222.38,-57.59C243.85,-62.63 270.36,-68.84 293.1,-74.18"/>
<polygon fill="midnightblue" stroke="midnightblue" points="292.38,-77.6 302.91,-76.48 293.98,-70.79 292.38,-77.6"/>
</g>
<!-- Node7&#45;&gt;Node4 -->
<g id="edge10" class="edge">
<title>Node7&#45;&gt;Node4</title>
<path fill="none" stroke="midnightblue" d="M217.1,-19.57C225.71,-22.27 234.79,-25.45 243,-29 270.66,-40.95 300.46,-58.5 320.37,-70.97"/>
<polygon fill="midnightblue" stroke="midnightblue" points="318.71,-74.06 329.03,-76.46 322.46,-68.15 318.71,-74.06"/>
</g>
</g>
</svg>
