<?xml version="1.0" encoding="UTF-8" standalone="no"?>
<!DOCTYPE svg PUBLIC "-//W3C//DTD SVG 1.1//EN"
 "http://www.w3.org/Graphics/SVG/1.1/DTD/svg11.dtd">
<!-- Generated by graphviz version 2.43.0 (0)
 -->
<!-- Title: SOCKBASE::close Pages: 1 -->
<svg width="505pt" height="198pt"
 viewBox="0.00 0.00 505.00 198.00" xmlns="http://www.w3.org/2000/svg" xmlns:xlink="http://www.w3.org/1999/xlink">
<g id="graph0" class="graph" transform="scale(1 1) rotate(0) translate(4 194)">
<title>SOCKBASE::close</title>
<!-- Node1 -->
<g id="node1" class="node">
<title>Node1</title>
<g id="a_node1"><a xlink:title="Zamyka gniazdo.">
<polygon fill="#bfbfbf" stroke="black" points="396,-76.5 396,-95.5 497,-95.5 497,-76.5 396,-76.5"/>
<text text-anchor="middle" x="446.5" y="-83.5" font-family="Helvetica,sans-Serif" font-size="10.00">SOCKBASE::close</text>
</a>
</g>
</g>
<!-- Node1&#45;&gt;Node1 -->
<g id="edge1" class="edge">
<title>Node1&#45;&gt;Node1</title>
<path fill="none" stroke="midnightblue" d="M475.99,-104.65C474.76,-109.94 464.93,-114 446.5,-114 418.42,-114 410.3,-104.57 422.15,-95.76"/>
<polygon fill="midnightblue" stroke="midnightblue" points="478.89,-102.66 470.85,-95.76 472.82,-106.17 478.89,-102.66"/>
</g>
<!-- Node2 -->
<g id="node2" class="node">
<title>Node2</title>
<g id="a_node2"><a xlink:href="class_c_l_i_e_n_t.html#a783756fadeb1f24218acdee54bfb7b4a" target="_top" xlink:title="Inicjacja połączenia.">
<polygon fill="none" stroke="black" points="81.5,-152.5 81.5,-171.5 176.5,-171.5 176.5,-152.5 81.5,-152.5"/>
<text text-anchor="middle" x="129" y="-159.5" font-family="Helvetica,sans-Serif" font-size="10.00">CLIENT::connect</text>
</a>
</g>
</g>
<!-- Node1&#45;&gt;Node2 -->
<g id="edge2" class="edge">
<title>Node1&#45;&gt;Node2</title>
<path fill="none" stroke="midnightblue" d="M427.45,-102.05C411.09,-115.55 385.68,-134.05 360,-143 299.27,-164.15 224.29,-166.25 176.79,-164.87"/>
<polygon fill="midnightblue" stroke="midnightblue" points="429.78,-104.66 435.13,-95.52 425.25,-99.33 429.78,-104.66"/>
</g>
<!-- Node4 -->
<g id="node4" class="node">
<title>Node4</title>
<g id="a_node4"><a xlink:href="class_c_l_i_e_n_t.html#a13a0cbc78ae543e0f6965a9c896b9562" target="_top" xlink:title="Zamyka połączenie.">
<polygon fill="none" stroke="black" points="234,-114.5 234,-133.5 343,-133.5 343,-114.5 234,-114.5"/>
<text text-anchor="middle" x="288.5" y="-121.5" font-family="Helvetica,sans-Serif" font-size="10.00">CLIENT::disconnect</text>
</a>
</g>
</g>
<!-- Node1&#45;&gt;Node4 -->
<g id="edge5" class="edge">
<title>Node1&#45;&gt;Node4</title>
<path fill="none" stroke="midnightblue" d="M396.37,-97.97C374.51,-103.29 349.12,-109.48 328.58,-114.48"/>
<polygon fill="midnightblue" stroke="midnightblue" points="397.25,-101.36 406.13,-95.59 395.59,-94.56 397.25,-101.36"/>
</g>
<!-- Node7 -->
<g id="node7" class="node">
<title>Node7</title>
<g id="a_node7"><a xlink:href="class_s_e_r_v_e_r.html#ad4f09adc16c4b5a7b9126e8741af9a08" target="_top" xlink:title="Zatrzymuje serwer.">
<polygon fill="none" stroke="black" points="247.5,-76.5 247.5,-95.5 329.5,-95.5 329.5,-76.5 247.5,-76.5"/>
<text text-anchor="middle" x="288.5" y="-83.5" font-family="Helvetica,sans-Serif" font-size="10.00">SERVER::stop</text>
</a>
</g>
</g>
<!-- Node1&#45;&gt;Node7 -->
<g id="edge11" class="edge">
<title>Node1&#45;&gt;Node7</title>
<path fill="none" stroke="midnightblue" d="M385.51,-86C366.83,-86 346.7,-86 329.71,-86"/>
<polygon fill="midnightblue" stroke="midnightblue" points="385.71,-89.5 395.71,-86 385.71,-82.5 385.71,-89.5"/>
</g>
<!-- Node10 -->
<g id="node10" class="node">
<title>Node10</title>
<g id="a_node10"><a xlink:href="struct_s_e_r_v_e_r_1_1_c_l_i_e_n_t.html#ae55da8995e2ea685cefc576ed0bfbc88" target="_top" xlink:title="Destruktor klienta.">
<polygon fill="none" stroke="black" points="217,-38.5 217,-57.5 360,-57.5 360,-38.5 217,-38.5"/>
<text text-anchor="middle" x="288.5" y="-45.5" font-family="Helvetica,sans-Serif" font-size="10.00">SERVER::CLIENT::~CLIENT</text>
</a>
</g>
</g>
<!-- Node1&#45;&gt;Node10 -->
<g id="edge14" class="edge">
<title>Node1&#45;&gt;Node10</title>
<path fill="none" stroke="midnightblue" d="M396.37,-74.03C374.51,-68.71 349.12,-62.52 328.58,-57.52"/>
<polygon fill="midnightblue" stroke="midnightblue" points="395.59,-77.44 406.13,-76.41 397.25,-70.64 395.59,-77.44"/>
</g>
<!-- Node11 -->
<g id="node11" class="node">
<title>Node11</title>
<g id="a_node11"><a xlink:href="class_s_o_c_k_b_a_s_e.html#a79a8e6ce80aeac1f93818de2857aa33c" target="_top" xlink:title="Wirtualny destruktor.">
<polygon fill="none" stroke="black" points="220.5,-0.5 220.5,-19.5 356.5,-19.5 356.5,-0.5 220.5,-0.5"/>
<text text-anchor="middle" x="288.5" y="-7.5" font-family="Helvetica,sans-Serif" font-size="10.00">SOCKBASE::~SOCKBASE</text>
</a>
</g>
</g>
<!-- Node1&#45;&gt;Node11 -->
<g id="edge15" class="edge">
<title>Node1&#45;&gt;Node11</title>
<path fill="none" stroke="midnightblue" d="M425.87,-70.21C409.21,-57.49 384.21,-39.98 360,-29 351.8,-25.28 342.73,-22.17 333.9,-19.6"/>
<polygon fill="midnightblue" stroke="midnightblue" points="423.74,-72.98 433.78,-76.36 428.04,-67.46 423.74,-72.98"/>
</g>
<!-- Node2&#45;&gt;Node2 -->
<g id="edge3" class="edge">
<title>Node2&#45;&gt;Node2</title>
<path fill="none" stroke="midnightblue" d="M149,-181.4C147.66,-186.31 141,-190 129,-190 109.8,-190 104.26,-180.57 112.35,-171.76"/>
<polygon fill="midnightblue" stroke="midnightblue" points="152.24,-180.05 145.65,-171.76 145.62,-182.35 152.24,-180.05"/>
</g>
<!-- Node3 -->
<g id="node3" class="node">
<title>Node3</title>
<g id="a_node3"><a xlink:href="main__c_8cpp.html#a0ddf1224851353fc92bfbff6f499fa97" target="_top" xlink:title="Funkcja główna programu klienta.">
<polygon fill="none" stroke="black" points="0,-114.5 0,-133.5 41,-133.5 41,-114.5 0,-114.5"/>
<text text-anchor="middle" x="20.5" y="-121.5" font-family="Helvetica,sans-Serif" font-size="10.00">main</text>
</a>
</g>
</g>
<!-- Node2&#45;&gt;Node3 -->
<g id="edge4" class="edge">
<title>Node2&#45;&gt;Node3</title>
<path fill="none" stroke="midnightblue" d="M91.56,-149C74.73,-142.99 55.39,-136.09 41.31,-131.07"/>
<polygon fill="midnightblue" stroke="midnightblue" points="90.53,-152.35 101.13,-152.41 92.88,-145.75 90.53,-152.35"/>
</g>
<!-- Node4&#45;&gt;Node2 -->
<g id="edge6" class="edge">
<title>Node4&#45;&gt;Node2</title>
<path fill="none" stroke="midnightblue" d="M237.9,-135.97C215.82,-141.29 190.2,-147.48 169.46,-152.48"/>
<polygon fill="midnightblue" stroke="midnightblue" points="238.86,-139.34 247.76,-133.59 237.21,-132.53 238.86,-139.34"/>
</g>
<!-- Node5 -->
<g id="node5" class="node">
<title>Node5</title>
<g id="a_node5"><a xlink:href="class_c_l_i_e_n_t.html#ad348ac551652139ec10b8598f72527c1" target="_top" xlink:title="Pobieranie pliku.">
<polygon fill="none" stroke="black" points="77,-114.5 77,-133.5 181,-133.5 181,-114.5 77,-114.5"/>
<text text-anchor="middle" x="129" y="-121.5" font-family="Helvetica,sans-Serif" font-size="10.00">CLIENT::download</text>
</a>
</g>
</g>
<!-- Node4&#45;&gt;Node5 -->
<g id="edge7" class="edge">
<title>Node4&#45;&gt;Node5</title>
<path fill="none" stroke="midnightblue" d="M223.59,-124C209.46,-124 194.67,-124 181.13,-124"/>
<polygon fill="midnightblue" stroke="midnightblue" points="223.74,-127.5 233.74,-124 223.74,-120.5 223.74,-127.5"/>
</g>
<!-- Node6 -->
<g id="node6" class="node">
<title>Node6</title>
<g id="a_node6"><a xlink:href="class_c_l_i_e_n_t.html#a83c83556e186942b8d9c8b812a295454" target="_top" xlink:title="Wysyłanie pliku.">
<polygon fill="none" stroke="black" points="84.5,-76.5 84.5,-95.5 173.5,-95.5 173.5,-76.5 84.5,-76.5"/>
<text text-anchor="middle" x="129" y="-83.5" font-family="Helvetica,sans-Serif" font-size="10.00">CLIENT::upload</text>
</a>
</g>
</g>
<!-- Node4&#45;&gt;Node6 -->
<g id="edge9" class="edge">
<title>Node4&#45;&gt;Node6</title>
<path fill="none" stroke="midnightblue" d="M237.9,-112.03C215.82,-106.71 190.2,-100.52 169.46,-95.52"/>
<polygon fill="midnightblue" stroke="midnightblue" points="237.21,-115.47 247.76,-114.41 238.86,-108.66 237.21,-115.47"/>
</g>
<!-- Node5&#45;&gt;Node3 -->
<g id="edge8" class="edge">
<title>Node5&#45;&gt;Node3</title>
<path fill="none" stroke="midnightblue" d="M66.83,-124C57.58,-124 48.66,-124 41.22,-124"/>
<polygon fill="midnightblue" stroke="midnightblue" points="66.93,-127.5 76.93,-124 66.93,-120.5 66.93,-127.5"/>
</g>
<!-- Node6&#45;&gt;Node3 -->
<g id="edge10" class="edge">
<title>Node6&#45;&gt;Node3</title>
<path fill="none" stroke="midnightblue" d="M91.56,-99C74.73,-105.01 55.39,-111.91 41.31,-116.93"/>
<polygon fill="midnightblue" stroke="midnightblue" points="92.88,-102.25 101.13,-95.59 90.53,-95.65 92.88,-102.25"/>
</g>
<!-- Node8 -->
<g id="node8" class="node">
<title>Node8</title>
<g id="a_node8"><a xlink:href="class_s_e_r_v_e_r.html#a178595d3078b6b04f910e7469e5095d5" target="_top" xlink:title="Inicjacja serwera.">
<polygon fill="none" stroke="black" points="87.5,-38.5 87.5,-57.5 170.5,-57.5 170.5,-38.5 87.5,-38.5"/>
<text text-anchor="middle" x="129" y="-45.5" font-family="Helvetica,sans-Serif" font-size="10.00">SERVER::start</text>
</a>
</g>
</g>
<!-- Node7&#45;&gt;Node8 -->
<g id="edge12" class="edge">
<title>Node7&#45;&gt;Node8</title>
<path fill="none" stroke="midnightblue" d="M237.9,-74.03C215.82,-68.71 190.2,-62.52 169.46,-57.52"/>
<polygon fill="midnightblue" stroke="midnightblue" points="237.21,-77.47 247.76,-76.41 238.86,-70.66 237.21,-77.47"/>
</g>
<!-- Node9 -->
<g id="node9" class="node">
<title>Node9</title>
<g id="a_node9"><a xlink:href="main__s_8cpp.html#a0ddf1224851353fc92bfbff6f499fa97" target="_top" xlink:title="Funkcja główna programu serwera.">
<polygon fill="none" stroke="black" points="0,-38.5 0,-57.5 41,-57.5 41,-38.5 0,-38.5"/>
<text text-anchor="middle" x="20.5" y="-45.5" font-family="Helvetica,sans-Serif" font-size="10.00">main</text>
</a>
</g>
</g>
<!-- Node8&#45;&gt;Node9 -->
<g id="edge13" class="edge">
<title>Node8&#45;&gt;Node9</title>
<path fill="none" stroke="midnightblue" d="M77.23,-48C64.39,-48 51.36,-48 41.13,-48"/>
<polygon fill="midnightblue" stroke="midnightblue" points="77.43,-51.5 87.43,-48 77.43,-44.5 77.43,-51.5"/>
</g>
</g>
</svg>
