<?xml version="1.0" encoding="UTF-8" standalone="no"?>
<!DOCTYPE svg PUBLIC "-//W3C//DTD SVG 1.1//EN"
 "http://www.w3.org/Graphics/SVG/1.1/DTD/svg11.dtd">
<!-- Generated by graphviz version 2.43.0 (0)
 -->
<!-- Title: SOCKBASE::get_name Pages: 1 -->
<svg width="655pt" height="161pt"
 viewBox="0.00 0.00 655.00 161.00" xmlns="http://www.w3.org/2000/svg" xmlns:xlink="http://www.w3.org/1999/xlink">
<g id="graph0" class="graph" transform="scale(1 1) rotate(0) translate(4 157)">
<title>SOCKBASE::get_name</title>
<!-- Node1 -->
<g id="node1" class="node">
<title>Node1</title>
<g id="a_node1"><a xlink:title="Pobranie nazwy hosta.">
<polygon fill="#bfbfbf" stroke="black" points="523,-95.5 523,-114.5 647,-114.5 647,-95.5 523,-95.5"/>
<text text-anchor="middle" x="585" y="-102.5" font-family="Helvetica,sans-Serif" font-size="10.00">SOCKBASE::get_name</text>
</a>
</g>
</g>
<!-- Node2 -->
<g id="node2" class="node">
<title>Node2</title>
<g id="a_node2"><a xlink:href="class_s_e_r_v_e_r.html#aa64d19c0d8277395ab290fab932ba202" target="_top" xlink:title="Obsługa nowego połączenia.">
<polygon fill="none" stroke="black" points="366.5,-133.5 366.5,-152.5 476.5,-152.5 476.5,-133.5 366.5,-133.5"/>
<text text-anchor="middle" x="421.5" y="-140.5" font-family="Helvetica,sans-Serif" font-size="10.00">SERVER::on_accept</text>
</a>
</g>
</g>
<!-- Node1&#45;&gt;Node2 -->
<g id="edge1" class="edge">
<title>Node1&#45;&gt;Node2</title>
<path fill="none" stroke="midnightblue" d="M533.44,-116.9C510.74,-122.24 484.32,-128.45 462.96,-133.48"/>
<polygon fill="midnightblue" stroke="midnightblue" points="534.31,-120.29 543.25,-114.59 532.71,-113.47 534.31,-120.29"/>
</g>
<!-- Node5 -->
<g id="node5" class="node">
<title>Node5</title>
<g id="a_node5"><a xlink:href="class_s_e_r_v_e_r.html#ae95cc32343639f51220c1ebd5eb40722" target="_top" xlink:title="Obsługa rozłączenia klienta.">
<polygon fill="none" stroke="black" points="356,-76.5 356,-95.5 487,-95.5 487,-76.5 356,-76.5"/>
<text text-anchor="middle" x="421.5" y="-83.5" font-family="Helvetica,sans-Serif" font-size="10.00">SERVER::on_disconnect</text>
</a>
</g>
</g>
<!-- Node1&#45;&gt;Node5 -->
<g id="edge4" class="edge">
<title>Node1&#45;&gt;Node5</title>
<path fill="none" stroke="midnightblue" d="M512.95,-96.64C504.37,-95.63 495.63,-94.6 487.14,-93.61"/>
<polygon fill="midnightblue" stroke="midnightblue" points="512.6,-100.12 522.94,-97.82 513.42,-93.17 512.6,-100.12"/>
</g>
<!-- Node3 -->
<g id="node3" class="node">
<title>Node3</title>
<g id="a_node3"><a xlink:href="class_s_e_r_v_e_r.html#ae5390a25208f81c139a73747374a02bf" target="_top" xlink:title="Pętla serwera.">
<polygon fill="none" stroke="black" points="77,-76.5 77,-95.5 159,-95.5 159,-76.5 77,-76.5"/>
<text text-anchor="middle" x="118" y="-83.5" font-family="Helvetica,sans-Serif" font-size="10.00">SERVER::loop</text>
</a>
</g>
</g>
<!-- Node2&#45;&gt;Node3 -->
<g id="edge2" class="edge">
<title>Node2&#45;&gt;Node3</title>
<path fill="none" stroke="midnightblue" d="M356.22,-142.4C310.54,-140.62 248.12,-135.38 195,-121 173.55,-115.19 150.59,-103.82 135.59,-95.62"/>
<polygon fill="midnightblue" stroke="midnightblue" points="356.17,-145.9 366.29,-142.75 356.41,-138.91 356.17,-145.9"/>
</g>
<!-- Node4 -->
<g id="node4" class="node">
<title>Node4</title>
<g id="a_node4"><a xlink:href="main__s_8cpp.html#a0ddf1224851353fc92bfbff6f499fa97" target="_top" xlink:title="Funkcja główna programu serwera.">
<polygon fill="none" stroke="black" points="0,-76.5 0,-95.5 41,-95.5 41,-76.5 0,-76.5"/>
<text text-anchor="middle" x="20.5" y="-83.5" font-family="Helvetica,sans-Serif" font-size="10.00">main</text>
</a>
</g>
</g>
<!-- Node3&#45;&gt;Node4 -->
<g id="edge3" class="edge">
<title>Node3&#45;&gt;Node4</title>
<path fill="none" stroke="midnightblue" d="M66.57,-86C57.52,-86 48.6,-86 41.11,-86"/>
<polygon fill="midnightblue" stroke="midnightblue" points="66.78,-89.5 76.78,-86 66.78,-82.5 66.78,-89.5"/>
</g>
<!-- Node5&#45;&gt;Node3 -->
<g id="edge5" class="edge">
<title>Node5&#45;&gt;Node3</title>
<path fill="none" stroke="midnightblue" d="M369.57,-97.54C353.77,-100.6 336.24,-103.48 320,-105 264.69,-110.18 250.14,-111.79 195,-105 179.88,-103.14 163.44,-99.27 149.74,-95.51"/>
<polygon fill="midnightblue" stroke="midnightblue" points="370.56,-100.91 379.67,-95.51 369.18,-94.05 370.56,-100.91"/>
</g>
<!-- Node6 -->
<g id="node6" class="node">
<title>Node6</title>
<g id="a_node6"><a xlink:href="class_s_e_r_v_e_r.html#a7e0fcd9b47fd1272527fd02c089cd1e2" target="_top" xlink:title="Obsługa pobierania pliku.">
<polygon fill="none" stroke="black" points="195,-76.5 195,-95.5 320,-95.5 320,-76.5 195,-76.5"/>
<text text-anchor="middle" x="257.5" y="-83.5" font-family="Helvetica,sans-Serif" font-size="10.00">SERVER::on_download</text>
</a>
</g>
</g>
<!-- Node5&#45;&gt;Node6 -->
<g id="edge6" class="edge">
<title>Node5&#45;&gt;Node6</title>
<path fill="none" stroke="midnightblue" d="M345.3,-86C336.84,-86 328.31,-86 320.05,-86"/>
<polygon fill="midnightblue" stroke="midnightblue" points="345.54,-89.5 355.54,-86 345.54,-82.5 345.54,-89.5"/>
</g>
<!-- Node7 -->
<g id="node7" class="node">
<title>Node7</title>
<g id="a_node7"><a xlink:href="class_s_e_r_v_e_r.html#a9472ce08aa1988b86f0eff95e5c1c431" target="_top" xlink:title="Obsługa nagłówka.">
<polygon fill="none" stroke="black" points="201.5,-38.5 201.5,-57.5 313.5,-57.5 313.5,-38.5 201.5,-38.5"/>
<text text-anchor="middle" x="257.5" y="-45.5" font-family="Helvetica,sans-Serif" font-size="10.00">SERVER::on_header</text>
</a>
</g>
</g>
<!-- Node5&#45;&gt;Node7 -->
<g id="edge8" class="edge">
<title>Node5&#45;&gt;Node7</title>
<path fill="none" stroke="midnightblue" d="M369.79,-74.1C347.01,-68.76 320.51,-62.55 299.09,-57.52"/>
<polygon fill="midnightblue" stroke="midnightblue" points="369.09,-77.53 379.62,-76.41 370.68,-70.72 369.09,-77.53"/>
</g>
<!-- Node8 -->
<g id="node8" class="node">
<title>Node8</title>
<g id="a_node8"><a xlink:href="class_s_e_r_v_e_r.html#ad2f806bd9b45db55531faea533288e61" target="_top" xlink:title="Obsługa wysyłania pliku.">
<polygon fill="none" stroke="black" points="202,-0.5 202,-19.5 313,-19.5 313,-0.5 202,-0.5"/>
<text text-anchor="middle" x="257.5" y="-7.5" font-family="Helvetica,sans-Serif" font-size="10.00">SERVER::on_upload</text>
</a>
</g>
</g>
<!-- Node5&#45;&gt;Node8 -->
<g id="edge10" class="edge">
<title>Node5&#45;&gt;Node8</title>
<path fill="none" stroke="midnightblue" d="M397.37,-70.97C377.46,-58.5 347.66,-40.95 320,-29 311.79,-25.45 302.71,-22.27 294.1,-19.57"/>
<polygon fill="midnightblue" stroke="midnightblue" points="395.71,-74.06 406.03,-76.46 399.46,-68.15 395.71,-74.06"/>
</g>
<!-- Node6&#45;&gt;Node3 -->
<g id="edge7" class="edge">
<title>Node6&#45;&gt;Node3</title>
<path fill="none" stroke="midnightblue" d="M184.98,-86C176.11,-86 167.3,-86 159.15,-86"/>
<polygon fill="midnightblue" stroke="midnightblue" points="184.99,-89.5 194.99,-86 184.99,-82.5 184.99,-89.5"/>
</g>
<!-- Node7&#45;&gt;Node3 -->
<g id="edge9" class="edge">
<title>Node7&#45;&gt;Node3</title>
<path fill="none" stroke="midnightblue" d="M211.93,-60.32C193.04,-65.54 171.35,-71.53 153.69,-76.41"/>
<polygon fill="midnightblue" stroke="midnightblue" points="213.1,-63.63 221.8,-57.59 211.23,-56.88 213.1,-63.63"/>
</g>
<!-- Node8&#45;&gt;Node3 -->
<g id="edge11" class="edge">
<title>Node8&#45;&gt;Node3</title>
<path fill="none" stroke="midnightblue" d="M208.62,-23C203.93,-24.8 199.32,-26.8 195,-29 169.43,-42.04 143.51,-63.68 129.53,-76.21"/>
<polygon fill="midnightblue" stroke="midnightblue" points="210.04,-26.21 218.29,-19.56 207.7,-19.61 210.04,-26.21"/>
</g>
</g>
</svg>
