<?xml version="1.0" encoding="UTF-8" standalone="no"?>
<!DOCTYPE svg PUBLIC "-//W3C//DTD SVG 1.1//EN"
 "http://www.w3.org/Graphics/SVG/1.1/DTD/svg11.dtd">
<!-- Generated by graphviz version 2.43.0 (0)
 -->
<!-- Title: CLIENT::download Pages: 1 -->
<svg width="401pt" height="84pt"
 viewBox="0.00 0.00 401.00 84.00" xmlns="http://www.w3.org/2000/svg" xmlns:xlink="http://www.w3.org/1999/xlink">
<g id="graph0" class="graph" transform="scale(1 1) rotate(0) translate(4 80)">
<title>CLIENT::download</title>
<!-- Node1 -->
<g id="node1" class="node">
<title>Node1</title>
<g id="a_node1"><a xlink:title="Pobieranie pliku.">
<polygon fill="#bfbfbf" stroke="black" points="0,-19.5 0,-38.5 104,-38.5 104,-19.5 0,-19.5"/>
<text text-anchor="middle" x="52" y="-26.5" font-family="Helvetica,sans-Serif" font-size="10.00">CLIENT::download</text>
</a>
</g>
</g>
<!-- Node2 -->
<g id="node2" class="node">
<title>Node2</title>
<g id="a_node2"><a xlink:href="class_c_l_i_e_n_t.html#a13a0cbc78ae543e0f6965a9c896b9562" target="_top" xlink:title="Zamyka połączenie.">
<polygon fill="none" stroke="black" points="143.5,-38.5 143.5,-57.5 252.5,-57.5 252.5,-38.5 143.5,-38.5"/>
<text text-anchor="middle" x="198" y="-45.5" font-family="Helvetica,sans-Serif" font-size="10.00">CLIENT::disconnect</text>
</a>
</g>
</g>
<!-- Node1&#45;&gt;Node2 -->
<g id="edge1" class="edge">
<title>Node1&#45;&gt;Node2</title>
<path fill="none" stroke="midnightblue" d="M104.17,-35.75C113.53,-36.99 123.41,-38.29 133.08,-39.57"/>
<polygon fill="midnightblue" stroke="midnightblue" points="132.69,-43.05 143.07,-40.88 133.61,-36.11 132.69,-43.05"/>
</g>
<!-- Node4 -->
<g id="node4" class="node">
<title>Node4</title>
<g id="a_node4"><a xlink:href="class_s_o_c_k_b_a_s_e.html#aefa554c9927511c17d7319e0c9a73291" target="_top" xlink:title="Wysyłanie danych.">
<polygon fill="none" stroke="black" points="140,-0.5 140,-19.5 256,-19.5 256,-0.5 140,-0.5"/>
<text text-anchor="middle" x="198" y="-7.5" font-family="Helvetica,sans-Serif" font-size="10.00">SOCKBASE::send_all</text>
</a>
</g>
</g>
<!-- Node1&#45;&gt;Node4 -->
<g id="edge4" class="edge">
<title>Node1&#45;&gt;Node4</title>
<path fill="none" stroke="midnightblue" d="M104.17,-22.25C112.43,-21.16 121.07,-20.02 129.64,-18.89"/>
<polygon fill="midnightblue" stroke="midnightblue" points="130.16,-22.35 139.62,-17.57 129.25,-15.41 130.16,-22.35"/>
</g>
<!-- Node3 -->
<g id="node3" class="node">
<title>Node3</title>
<g id="a_node3"><a xlink:href="class_s_o_c_k_b_a_s_e.html#a188bbebe9b3f5ec16b0304b512da7c0f" target="_top" xlink:title="Zamyka gniazdo.">
<polygon fill="none" stroke="black" points="292,-38.5 292,-57.5 393,-57.5 393,-38.5 292,-38.5"/>
<text text-anchor="middle" x="342.5" y="-45.5" font-family="Helvetica,sans-Serif" font-size="10.00">SOCKBASE::close</text>
</a>
</g>
</g>
<!-- Node2&#45;&gt;Node3 -->
<g id="edge2" class="edge">
<title>Node2&#45;&gt;Node3</title>
<path fill="none" stroke="midnightblue" d="M252.87,-48C262.25,-48 272.05,-48 281.58,-48"/>
<polygon fill="midnightblue" stroke="midnightblue" points="281.78,-51.5 291.78,-48 281.78,-44.5 281.78,-51.5"/>
</g>
<!-- Node3&#45;&gt;Node3 -->
<g id="edge3" class="edge">
<title>Node3&#45;&gt;Node3</title>
<path fill="none" stroke="midnightblue" d="M320.31,-57.76C309.51,-66.57 316.91,-76 342.5,-76 359.3,-76 368.26,-71.94 369.38,-66.65"/>
<polygon fill="midnightblue" stroke="midnightblue" points="372.45,-64.97 364.69,-57.76 366.26,-68.24 372.45,-64.97"/>
</g>
</g>
</svg>
