<?xml version="1.0" encoding="UTF-8" standalone="no"?>
<!DOCTYPE svg PUBLIC "-//W3C//DTD SVG 1.1//EN"
 "http://www.w3.org/Graphics/SVG/1.1/DTD/svg11.dtd">
<!-- Generated by graphviz version 2.43.0 (0)
 -->
<!-- Title: CLIENT::connect Pages: 1 -->
<svg width="385pt" height="65pt"
 viewBox="0.00 0.00 385.00 65.00" xmlns="http://www.w3.org/2000/svg" xmlns:xlink="http://www.w3.org/1999/xlink">
<g id="graph0" class="graph" transform="scale(1 1) rotate(0) translate(4 61)">
<title>CLIENT::connect</title>
<!-- Node1 -->
<g id="node1" class="node">
<title>Node1</title>
<g id="a_node1"><a xlink:title="Inicjacja połączenia.">
<polygon fill="#bfbfbf" stroke="black" points="0,-19.5 0,-38.5 95,-38.5 95,-19.5 0,-19.5"/>
<text text-anchor="middle" x="47.5" y="-26.5" font-family="Helvetica,sans-Serif" font-size="10.00">CLIENT::connect</text>
</a>
</g>
</g>
<!-- Node1&#45;&gt;Node1 -->
<g id="edge3" class="edge">
<title>Node1&#45;&gt;Node1</title>
<path fill="none" stroke="midnightblue" d="M26.23,-38.76C15.88,-47.57 22.97,-57 47.5,-57 63.21,-57 71.77,-53.13 73.17,-48.03"/>
<polygon fill="midnightblue" stroke="midnightblue" points="76.22,-46.29 68.77,-38.76 69.89,-49.29 76.22,-46.29"/>
</g>
<!-- Node2 -->
<g id="node2" class="node">
<title>Node2</title>
<g id="a_node2"><a xlink:href="class_s_o_c_k_b_a_s_e.html#a188bbebe9b3f5ec16b0304b512da7c0f" target="_top" xlink:title="Zamyka gniazdo.">
<polygon fill="none" stroke="black" points="276,-19.5 276,-38.5 377,-38.5 377,-19.5 276,-19.5"/>
<text text-anchor="middle" x="326.5" y="-26.5" font-family="Helvetica,sans-Serif" font-size="10.00">SOCKBASE::close</text>
</a>
</g>
</g>
<!-- Node1&#45;&gt;Node2 -->
<g id="edge1" class="edge">
<title>Node1&#45;&gt;Node2</title>
<path fill="none" stroke="midnightblue" d="M95.18,-29C142.06,-29 214.48,-29 265.58,-29"/>
<polygon fill="midnightblue" stroke="midnightblue" points="265.82,-32.5 275.82,-29 265.82,-25.5 265.82,-32.5"/>
</g>
<!-- Node3 -->
<g id="node3" class="node">
<title>Node3</title>
<g id="a_node3"><a xlink:href="class_c_l_i_e_n_t.html#a13a0cbc78ae543e0f6965a9c896b9562" target="_top" xlink:title="Zamyka połączenie.">
<polygon fill="none" stroke="black" points="131,-0.5 131,-19.5 240,-19.5 240,-0.5 131,-0.5"/>
<text text-anchor="middle" x="185.5" y="-7.5" font-family="Helvetica,sans-Serif" font-size="10.00">CLIENT::disconnect</text>
</a>
</g>
</g>
<!-- Node1&#45;&gt;Node3 -->
<g id="edge4" class="edge">
<title>Node1&#45;&gt;Node3</title>
<path fill="none" stroke="midnightblue" d="M95.3,-22.46C103.48,-21.32 112.1,-20.11 120.64,-18.92"/>
<polygon fill="midnightblue" stroke="midnightblue" points="121.18,-22.38 130.6,-17.53 120.21,-15.45 121.18,-22.38"/>
</g>
<!-- Node2&#45;&gt;Node2 -->
<g id="edge2" class="edge">
<title>Node2&#45;&gt;Node2</title>
<path fill="none" stroke="midnightblue" d="M304.92,-38.76C294.42,-47.57 301.62,-57 326.5,-57 342.44,-57 351.12,-53.13 352.54,-48.03"/>
<polygon fill="midnightblue" stroke="midnightblue" points="355.57,-46.25 348.08,-38.76 349.26,-49.29 355.57,-46.25"/>
</g>
<!-- Node3&#45;&gt;Node2 -->
<g id="edge5" class="edge">
<title>Node3&#45;&gt;Node2</title>
<path fill="none" stroke="midnightblue" d="M240.24,-17.35C248.7,-18.5 257.48,-19.7 266.06,-20.87"/>
<polygon fill="midnightblue" stroke="midnightblue" points="265.61,-24.35 276,-22.23 266.56,-17.41 265.61,-24.35"/>
</g>
</g>
</svg>
