<?xml version="1.0" encoding="UTF-8" standalone="no"?>
<!DOCTYPE svg PUBLIC "-//W3C//DTD SVG 1.1//EN"
 "http://www.w3.org/Graphics/SVG/1.1/DTD/svg11.dtd">
<!-- Generated by graphviz version 2.43.0 (0)
 -->
<!-- Title: CLIENT::disconnect Pages: 1 -->
<svg width="334pt" height="104pt"
 viewBox="0.00 0.00 334.00 104.00" xmlns="http://www.w3.org/2000/svg" xmlns:xlink="http://www.w3.org/1999/xlink">
<g id="graph0" class="graph" transform="scale(1 1) rotate(0) translate(4 100)">
<title>CLIENT::disconnect</title>
<!-- Node1 -->
<g id="node1" class="node">
<title>Node1</title>
<g id="a_node1"><a xlink:title="Zamyka połączenie.">
<polygon fill="#bfbfbf" stroke="black" points="217,-38.5 217,-57.5 326,-57.5 326,-38.5 217,-38.5"/>
<text text-anchor="middle" x="271.5" y="-45.5" font-family="Helvetica,sans-Serif" font-size="10.00">CLIENT::disconnect</text>
</a>
</g>
</g>
<!-- Node2 -->
<g id="node2" class="node">
<title>Node2</title>
<g id="a_node2"><a xlink:href="class_c_l_i_e_n_t.html#a783756fadeb1f24218acdee54bfb7b4a" target="_top" xlink:title="Inicjacja połaczenia.">
<polygon fill="none" stroke="black" points="81.5,-76.5 81.5,-95.5 176.5,-95.5 176.5,-76.5 81.5,-76.5"/>
<text text-anchor="middle" x="129" y="-83.5" font-family="Helvetica,sans-Serif" font-size="10.00">CLIENT::connect</text>
</a>
</g>
</g>
<!-- Node1&#45;&gt;Node2 -->
<g id="edge1" class="edge">
<title>Node1&#45;&gt;Node2</title>
<path fill="none" stroke="midnightblue" d="M225.22,-60.25C205.86,-65.48 183.58,-71.51 165.44,-76.41"/>
<polygon fill="midnightblue" stroke="midnightblue" points="226.31,-63.58 235.05,-57.59 224.48,-56.82 226.31,-63.58"/>
</g>
<!-- Node4 -->
<g id="node4" class="node">
<title>Node4</title>
<g id="a_node4"><a xlink:href="class_c_l_i_e_n_t.html#ad348ac551652139ec10b8598f72527c1" target="_top" xlink:title="Pobieranie pliku.">
<polygon fill="none" stroke="black" points="77,-38.5 77,-57.5 181,-57.5 181,-38.5 77,-38.5"/>
<text text-anchor="middle" x="129" y="-45.5" font-family="Helvetica,sans-Serif" font-size="10.00">CLIENT::download</text>
</a>
</g>
</g>
<!-- Node1&#45;&gt;Node4 -->
<g id="edge3" class="edge">
<title>Node1&#45;&gt;Node4</title>
<path fill="none" stroke="midnightblue" d="M206.91,-48C198.25,-48 189.45,-48 181.05,-48"/>
<polygon fill="midnightblue" stroke="midnightblue" points="206.98,-51.5 216.98,-48 206.98,-44.5 206.98,-51.5"/>
</g>
<!-- Node5 -->
<g id="node5" class="node">
<title>Node5</title>
<g id="a_node5"><a xlink:href="class_c_l_i_e_n_t.html#a83c83556e186942b8d9c8b812a295454" target="_top" xlink:title="Wysyłanie pliku.">
<polygon fill="none" stroke="black" points="84.5,-0.5 84.5,-19.5 173.5,-19.5 173.5,-0.5 84.5,-0.5"/>
<text text-anchor="middle" x="129" y="-7.5" font-family="Helvetica,sans-Serif" font-size="10.00">CLIENT::upload</text>
</a>
</g>
</g>
<!-- Node1&#45;&gt;Node5 -->
<g id="edge5" class="edge">
<title>Node1&#45;&gt;Node5</title>
<path fill="none" stroke="midnightblue" d="M225.22,-35.75C205.86,-30.52 183.58,-24.49 165.44,-19.59"/>
<polygon fill="midnightblue" stroke="midnightblue" points="224.48,-39.18 235.05,-38.41 226.31,-32.42 224.48,-39.18"/>
</g>
<!-- Node3 -->
<g id="node3" class="node">
<title>Node3</title>
<g id="a_node3"><a xlink:href="main__c_8cpp.html#a0ddf1224851353fc92bfbff6f499fa97" target="_top" xlink:title="Funkcja główna programu klienta.">
<polygon fill="none" stroke="black" points="0,-38.5 0,-57.5 41,-57.5 41,-38.5 0,-38.5"/>
<text text-anchor="middle" x="20.5" y="-45.5" font-family="Helvetica,sans-Serif" font-size="10.00">main</text>
</a>
</g>
</g>
<!-- Node2&#45;&gt;Node3 -->
<g id="edge2" class="edge">
<title>Node2&#45;&gt;Node3</title>
<path fill="none" stroke="midnightblue" d="M91.56,-73C74.73,-66.99 55.39,-60.09 41.31,-55.07"/>
<polygon fill="midnightblue" stroke="midnightblue" points="90.53,-76.35 101.13,-76.41 92.88,-69.75 90.53,-76.35"/>
</g>
<!-- Node4&#45;&gt;Node3 -->
<g id="edge4" class="edge">
<title>Node4&#45;&gt;Node3</title>
<path fill="none" stroke="midnightblue" d="M66.83,-48C57.58,-48 48.66,-48 41.22,-48"/>
<polygon fill="midnightblue" stroke="midnightblue" points="66.93,-51.5 76.93,-48 66.93,-44.5 66.93,-51.5"/>
</g>
<!-- Node5&#45;&gt;Node3 -->
<g id="edge6" class="edge">
<title>Node5&#45;&gt;Node3</title>
<path fill="none" stroke="midnightblue" d="M91.56,-23C74.73,-29.01 55.39,-35.91 41.31,-40.93"/>
<polygon fill="midnightblue" stroke="midnightblue" points="92.88,-26.25 101.13,-19.59 90.53,-19.65 92.88,-26.25"/>
</g>
</g>
</svg>
