<?xml version="1.0" encoding="UTF-8" standalone="no"?>
<!DOCTYPE svg PUBLIC "-//W3C//DTD SVG 1.1//EN"
 "http://www.w3.org/Graphics/SVG/1.1/DTD/svg11.dtd">
<!-- Generated by graphviz version 2.43.0 (0)
 -->
<!-- Title: SOCKBASE Pages: 1 -->
<svg width="230pt" height="358pt"
 viewBox="0.00 0.00 230.00 358.00" xmlns="http://www.w3.org/2000/svg" xmlns:xlink="http://www.w3.org/1999/xlink">
<g id="graph0" class="graph" transform="scale(1 1) rotate(0) translate(4 354)">
<title>SOCKBASE</title>
<!-- Node1 -->
<g id="node1" class="node">
<title>Node1</title>
<g id="a_node1"><a xlink:title="Klasa bazowa.">
<polygon fill="#bfbfbf" stroke="black" points="61.5,-237.5 61.5,-349.5 157.5,-349.5 157.5,-237.5 61.5,-237.5"/>
<text text-anchor="middle" x="109.5" y="-337.5" font-family="Helvetica,sans-Serif" font-size="10.00">SOCKBASE</text>
<polyline fill="none" stroke="black" points="61.5,-330.5 157.5,-330.5 "/>
<text text-anchor="start" x="69.5" y="-318.5" font-family="Helvetica,sans-Serif" font-size="10.00"># m_sock</text>
<text text-anchor="start" x="69.5" y="-307.5" font-family="Helvetica,sans-Serif" font-size="10.00"># m_buff</text>
<polyline fill="none" stroke="black" points="61.5,-300.5 157.5,-300.5 "/>
<text text-anchor="start" x="69.5" y="-288.5" font-family="Helvetica,sans-Serif" font-size="10.00">+ SOCKBASE()</text>
<text text-anchor="start" x="69.5" y="-277.5" font-family="Helvetica,sans-Serif" font-size="10.00">+ ~SOCKBASE()</text>
<text text-anchor="start" x="69.5" y="-266.5" font-family="Helvetica,sans-Serif" font-size="10.00">+ close()</text>
<text text-anchor="start" x="69.5" y="-255.5" font-family="Helvetica,sans-Serif" font-size="10.00"># send_all()</text>
<text text-anchor="start" x="69.5" y="-244.5" font-family="Helvetica,sans-Serif" font-size="10.00"># get_name()</text>
</a>
</g>
</g>
<!-- Node2 -->
<g id="node2" class="node">
<title>Node2</title>
<g id="a_node2"><a xlink:href="class_c_l_i_e_n_t.html" target="_top" xlink:title="Klasa klienta.">
<polygon fill="none" stroke="black" points="0,-39 0,-162 99,-162 99,-39 0,-39"/>
<text text-anchor="middle" x="49.5" y="-150" font-family="Helvetica,sans-Serif" font-size="10.00">CLIENT</text>
<polyline fill="none" stroke="black" points="0,-143 99,-143 "/>
<text text-anchor="middle" x="49.5" y="-131" font-family="Helvetica,sans-Serif" font-size="10.00"> </text>
<polyline fill="none" stroke="black" points="0,-124 99,-124 "/>
<text text-anchor="start" x="8" y="-112" font-family="Helvetica,sans-Serif" font-size="10.00">+ CLIENT()</text>
<text text-anchor="start" x="8" y="-101" font-family="Helvetica,sans-Serif" font-size="10.00">+ ~CLIENT()</text>
<text text-anchor="start" x="8" y="-90" font-family="Helvetica,sans-Serif" font-size="10.00">+ connect()</text>
<text text-anchor="start" x="8" y="-79" font-family="Helvetica,sans-Serif" font-size="10.00">+ disconnect()</text>
<text text-anchor="start" x="8" y="-68" font-family="Helvetica,sans-Serif" font-size="10.00">+ download()</text>
<text text-anchor="start" x="8" y="-57" font-family="Helvetica,sans-Serif" font-size="10.00">+ upload()</text>
<text text-anchor="start" x="8" y="-46" font-family="Helvetica,sans-Serif" font-size="10.00">+ is_connected()</text>
</a>
</g>
</g>
<!-- Node1&#45;&gt;Node2 -->
<g id="edge1" class="edge">
<title>Node1&#45;&gt;Node2</title>
<path fill="none" stroke="midnightblue" d="M89.15,-227.71C82.5,-206.56 75.15,-183.16 68.6,-162.31"/>
<polygon fill="none" stroke="midnightblue" points="85.81,-228.76 92.15,-237.25 92.49,-226.67 85.81,-228.76"/>
</g>
<!-- Node3 -->
<g id="node3" class="node">
<title>Node3</title>
<g id="a_node3"><a xlink:href="class_s_e_r_v_e_r.html" target="_top" xlink:title="Klasa serwera.">
<polygon fill="none" stroke="black" points="117,-0.5 117,-200.5 222,-200.5 222,-0.5 117,-0.5"/>
<text text-anchor="middle" x="169.5" y="-188.5" font-family="Helvetica,sans-Serif" font-size="10.00">SERVER</text>
<polyline fill="none" stroke="black" points="117,-181.5 222,-181.5 "/>
<text text-anchor="start" x="125" y="-169.5" font-family="Helvetica,sans-Serif" font-size="10.00"># m_clients</text>
<text text-anchor="start" x="125" y="-158.5" font-family="Helvetica,sans-Serif" font-size="10.00"># m_sockets</text>
<text text-anchor="start" x="125" y="-147.5" font-family="Helvetica,sans-Serif" font-size="10.00"># m_terminate</text>
<polyline fill="none" stroke="black" points="117,-140.5 222,-140.5 "/>
<text text-anchor="start" x="125" y="-128.5" font-family="Helvetica,sans-Serif" font-size="10.00">+ SERVER()</text>
<text text-anchor="start" x="125" y="-117.5" font-family="Helvetica,sans-Serif" font-size="10.00">+ ~SERVER()</text>
<text text-anchor="start" x="125" y="-106.5" font-family="Helvetica,sans-Serif" font-size="10.00">+ start()</text>
<text text-anchor="start" x="125" y="-95.5" font-family="Helvetica,sans-Serif" font-size="10.00">+ stop()</text>
<text text-anchor="start" x="125" y="-84.5" font-family="Helvetica,sans-Serif" font-size="10.00">+ end()</text>
<text text-anchor="start" x="125" y="-73.5" font-family="Helvetica,sans-Serif" font-size="10.00">+ loop()</text>
<text text-anchor="start" x="125" y="-62.5" font-family="Helvetica,sans-Serif" font-size="10.00">+ is_started()</text>
<text text-anchor="start" x="125" y="-51.5" font-family="Helvetica,sans-Serif" font-size="10.00"># on_accept()</text>
<text text-anchor="start" x="125" y="-40.5" font-family="Helvetica,sans-Serif" font-size="10.00"># on_header()</text>
<text text-anchor="start" x="125" y="-29.5" font-family="Helvetica,sans-Serif" font-size="10.00"># on_upload()</text>
<text text-anchor="start" x="125" y="-18.5" font-family="Helvetica,sans-Serif" font-size="10.00"># on_download()</text>
<text text-anchor="start" x="125" y="-7.5" font-family="Helvetica,sans-Serif" font-size="10.00"># on_disconnect()</text>
</a>
</g>
</g>
<!-- Node1&#45;&gt;Node3 -->
<g id="edge2" class="edge">
<title>Node1&#45;&gt;Node3</title>
<path fill="none" stroke="midnightblue" d="M129.9,-227.57C132.64,-218.83 135.51,-209.7 138.39,-200.54"/>
<polygon fill="none" stroke="midnightblue" points="126.51,-226.67 126.85,-237.25 133.19,-228.76 126.51,-226.67"/>
</g>
</g>
</svg>
