<?xml version="1.0" encoding="UTF-8" standalone="no"?>
<!DOCTYPE svg PUBLIC "-//W3C//DTD SVG 1.1//EN"
 "http://www.w3.org/Graphics/SVG/1.1/DTD/svg11.dtd">
<!-- Generated by graphviz version 2.43.0 (0)
 -->
<!-- Title: SERVER::on_upload Pages: 1 -->
<svg width="446pt" height="28pt"
 viewBox="0.00 0.00 446.00 28.00" xmlns="http://www.w3.org/2000/svg" xmlns:xlink="http://www.w3.org/1999/xlink">
<g id="graph0" class="graph" transform="scale(1 1) rotate(0) translate(4 24)">
<title>SERVER::on_upload</title>
<!-- Node1 -->
<g id="node1" class="node">
<title>Node1</title>
<g id="a_node1"><a xlink:title="Obsługa wysyłania pliku.">
<polygon fill="#bfbfbf" stroke="black" points="0,-0.5 0,-19.5 111,-19.5 111,-0.5 0,-0.5"/>
<text text-anchor="middle" x="55.5" y="-7.5" font-family="Helvetica,sans-Serif" font-size="10.00">SERVER::on_upload</text>
</a>
</g>
</g>
<!-- Node2 -->
<g id="node2" class="node">
<title>Node2</title>
<g id="a_node2"><a xlink:href="class_s_e_r_v_e_r.html#ae95cc32343639f51220c1ebd5eb40722" target="_top" xlink:title="Obsługa rozłączenia klienta.">
<polygon fill="none" stroke="black" points="147,-0.5 147,-19.5 278,-19.5 278,-0.5 147,-0.5"/>
<text text-anchor="middle" x="212.5" y="-7.5" font-family="Helvetica,sans-Serif" font-size="10.00">SERVER::on_disconnect</text>
</a>
</g>
</g>
<!-- Node1&#45;&gt;Node2 -->
<g id="edge1" class="edge">
<title>Node1&#45;&gt;Node2</title>
<path fill="none" stroke="midnightblue" d="M111.15,-10C119.48,-10 128.2,-10 136.87,-10"/>
<polygon fill="midnightblue" stroke="midnightblue" points="137,-13.5 147,-10 137,-6.5 137,-13.5"/>
</g>
<!-- Node3 -->
<g id="node3" class="node">
<title>Node3</title>
<g id="a_node3"><a xlink:href="class_s_o_c_k_b_a_s_e.html#a1bed341ace5336a5cfa1683929a3f497" target="_top" xlink:title="Pobranie nazwy hosta.">
<polygon fill="none" stroke="black" points="314,-0.5 314,-19.5 438,-19.5 438,-0.5 314,-0.5"/>
<text text-anchor="middle" x="376" y="-7.5" font-family="Helvetica,sans-Serif" font-size="10.00">SOCKBASE::get_name</text>
</a>
</g>
</g>
<!-- Node2&#45;&gt;Node3 -->
<g id="edge2" class="edge">
<title>Node2&#45;&gt;Node3</title>
<path fill="none" stroke="midnightblue" d="M278.26,-10C286.62,-10 295.22,-10 303.67,-10"/>
<polygon fill="midnightblue" stroke="midnightblue" points="303.9,-13.5 313.9,-10 303.9,-6.5 303.9,-13.5"/>
</g>
</g>
</svg>
