<?xml version="1.0" encoding="UTF-8" standalone="no"?>
<!DOCTYPE svg PUBLIC "-//W3C//DTD SVG 1.1//EN"
 "http://www.w3.org/Graphics/SVG/1.1/DTD/svg11.dtd">
<!-- Generated by graphviz version 2.43.0 (0)
 -->
<!-- Title: SOCKBASE::~SOCKBASE Pages: 1 -->
<svg width="281pt" height="46pt"
 viewBox="0.00 0.00 281.00 46.00" xmlns="http://www.w3.org/2000/svg" xmlns:xlink="http://www.w3.org/1999/xlink">
<g id="graph0" class="graph" transform="scale(1 1) rotate(0) translate(4 42)">
<title>SOCKBASE::~SOCKBASE</title>
<!-- Node1 -->
<g id="node1" class="node">
<title>Node1</title>
<g id="a_node1"><a xlink:title="Wirtualny destruktor.">
<polygon fill="#bfbfbf" stroke="black" points="0,-0.5 0,-19.5 136,-19.5 136,-0.5 0,-0.5"/>
<text text-anchor="middle" x="68" y="-7.5" font-family="Helvetica,sans-Serif" font-size="10.00">SOCKBASE::~SOCKBASE</text>
</a>
</g>
</g>
<!-- Node2 -->
<g id="node2" class="node">
<title>Node2</title>
<g id="a_node2"><a xlink:href="class_s_o_c_k_b_a_s_e.html#a188bbebe9b3f5ec16b0304b512da7c0f" target="_top" xlink:title="Zamyka gniazdo.">
<polygon fill="none" stroke="black" points="172,-0.5 172,-19.5 273,-19.5 273,-0.5 172,-0.5"/>
<text text-anchor="middle" x="222.5" y="-7.5" font-family="Helvetica,sans-Serif" font-size="10.00">SOCKBASE::close</text>
</a>
</g>
</g>
<!-- Node1&#45;&gt;Node2 -->
<g id="edge1" class="edge">
<title>Node1&#45;&gt;Node2</title>
<path fill="none" stroke="midnightblue" d="M136.33,-10C144.84,-10 153.5,-10 161.88,-10"/>
<polygon fill="midnightblue" stroke="midnightblue" points="161.93,-13.5 171.93,-10 161.93,-6.5 161.93,-13.5"/>
</g>
<!-- Node2&#45;&gt;Node2 -->
<g id="edge2" class="edge">
<title>Node2&#45;&gt;Node2</title>
<path fill="none" stroke="midnightblue" d="M198.76,-19.76C187.22,-28.57 195.13,-38 222.5,-38 240.46,-38 250.04,-33.94 251.25,-28.65"/>
<polygon fill="midnightblue" stroke="midnightblue" points="254.19,-26.75 246.24,-19.76 248.09,-30.19 254.19,-26.75"/>
</g>
</g>
</svg>
