<?xml version="1.0" encoding="UTF-8" standalone="no"?>
<!DOCTYPE svg PUBLIC "-//W3C//DTD SVG 1.1//EN"
 "http://www.w3.org/Graphics/SVG/1.1/DTD/svg11.dtd">
<!-- Generated by graphviz version 2.43.0 (0)
 -->
<!-- Title: SERVER::on_download Pages: 1 -->
<svg width="460pt" height="28pt"
 viewBox="0.00 0.00 460.00 28.00" xmlns="http://www.w3.org/2000/svg" xmlns:xlink="http://www.w3.org/1999/xlink">
<g id="graph0" class="graph" transform="scale(1 1) rotate(0) translate(4 24)">
<title>SERVER::on_download</title>
<!-- Node1 -->
<g id="node1" class="node">
<title>Node1</title>
<g id="a_node1"><a xlink:title="Obsługa pobierania pliku.">
<polygon fill="#bfbfbf" stroke="black" points="0,-0.5 0,-19.5 125,-19.5 125,-0.5 0,-0.5"/>
<text text-anchor="middle" x="62.5" y="-7.5" font-family="Helvetica,sans-Serif" font-size="10.00">SERVER::on_download</text>
</a>
</g>
</g>
<!-- Node2 -->
<g id="node2" class="node">
<title>Node2</title>
<g id="a_node2"><a xlink:href="class_s_e_r_v_e_r.html#ac73fc3f88eef2b1f8eabdb1a2b33a99b" target="_top" xlink:title="Obsługa rozłączenia klienta.">
<polygon fill="none" stroke="black" points="161,-0.5 161,-19.5 292,-19.5 292,-0.5 161,-0.5"/>
<text text-anchor="middle" x="226.5" y="-7.5" font-family="Helvetica,sans-Serif" font-size="10.00">SERVER::on_disconnect</text>
</a>
</g>
</g>
<!-- Node1&#45;&gt;Node2 -->
<g id="edge1" class="edge">
<title>Node1&#45;&gt;Node2</title>
<path fill="none" stroke="midnightblue" d="M125.21,-10C133.47,-10 142.02,-10 150.48,-10"/>
<polygon fill="midnightblue" stroke="midnightblue" points="150.73,-13.5 160.73,-10 150.73,-6.5 150.73,-13.5"/>
</g>
<!-- Node3 -->
<g id="node3" class="node">
<title>Node3</title>
<g id="a_node3"><a xlink:href="class_s_o_c_k_b_a_s_e.html#a1bed341ace5336a5cfa1683929a3f497" target="_top" xlink:title="Pobranie nazwy hosta.">
<polygon fill="none" stroke="black" points="328,-0.5 328,-19.5 452,-19.5 452,-0.5 328,-0.5"/>
<text text-anchor="middle" x="390" y="-7.5" font-family="Helvetica,sans-Serif" font-size="10.00">SOCKBASE::get_name</text>
</a>
</g>
</g>
<!-- Node2&#45;&gt;Node3 -->
<g id="edge2" class="edge">
<title>Node2&#45;&gt;Node3</title>
<path fill="none" stroke="midnightblue" d="M292.26,-10C300.62,-10 309.22,-10 317.67,-10"/>
<polygon fill="midnightblue" stroke="midnightblue" points="317.9,-13.5 327.9,-10 317.9,-6.5 317.9,-13.5"/>
</g>
</g>
</svg>
