<?xml version="1.0" encoding="UTF-8" standalone="no"?>
<!DOCTYPE svg PUBLIC "-//W3C//DTD SVG 1.1//EN"
 "http://www.w3.org/Graphics/SVG/1.1/DTD/svg11.dtd">
<!-- Generated by graphviz version 2.43.0 (0)
 -->
<!-- Title: SERVER::stop Pages: 1 -->
<svg width="227pt" height="46pt"
 viewBox="0.00 0.00 227.00 46.00" xmlns="http://www.w3.org/2000/svg" xmlns:xlink="http://www.w3.org/1999/xlink">
<g id="graph0" class="graph" transform="scale(1 1) rotate(0) translate(4 42)">
<title>SERVER::stop</title>
<!-- Node1 -->
<g id="node1" class="node">
<title>Node1</title>
<g id="a_node1"><a xlink:title="Zatrzymuje serwer.">
<polygon fill="#bfbfbf" stroke="black" points="0,-0.5 0,-19.5 82,-19.5 82,-0.5 0,-0.5"/>
<text text-anchor="middle" x="41" y="-7.5" font-family="Helvetica,sans-Serif" font-size="10.00">SERVER::stop</text>
</a>
</g>
</g>
<!-- Node2 -->
<g id="node2" class="node">
<title>Node2</title>
<g id="a_node2"><a xlink:href="class_s_o_c_k_b_a_s_e.html#a188bbebe9b3f5ec16b0304b512da7c0f" target="_top" xlink:title="Zamyka gniazdo.">
<polygon fill="none" stroke="black" points="118,-0.5 118,-19.5 219,-19.5 219,-0.5 118,-0.5"/>
<text text-anchor="middle" x="168.5" y="-7.5" font-family="Helvetica,sans-Serif" font-size="10.00">SOCKBASE::close</text>
</a>
</g>
</g>
<!-- Node1&#45;&gt;Node2 -->
<g id="edge1" class="edge">
<title>Node1&#45;&gt;Node2</title>
<path fill="none" stroke="midnightblue" d="M82.05,-10C90.2,-10 98.94,-10 107.6,-10"/>
<polygon fill="midnightblue" stroke="midnightblue" points="107.7,-13.5 117.7,-10 107.7,-6.5 107.7,-13.5"/>
</g>
<!-- Node2&#45;&gt;Node2 -->
<g id="edge2" class="edge">
<title>Node2&#45;&gt;Node2</title>
<path fill="none" stroke="midnightblue" d="M149.08,-19.76C139.63,-28.57 146.11,-38 168.5,-38 182.85,-38 190.66,-34.13 191.94,-29.03"/>
<polygon fill="midnightblue" stroke="midnightblue" points="195.11,-27.54 187.92,-19.76 188.68,-30.32 195.11,-27.54"/>
</g>
</g>
</svg>
