<?xml version="1.0" encoding="UTF-8" standalone="no"?>
<!DOCTYPE svg PUBLIC "-//W3C//DTD SVG 1.1//EN"
 "http://www.w3.org/Graphics/SVG/1.1/DTD/svg11.dtd">
<!-- Generated by graphviz version 2.43.0 (0)
 -->
<!-- Title: SERVER Pages: 1 -->
<svg width="443pt" height="1197pt"
 viewBox="0.00 0.00 442.50 1197.00" xmlns="http://www.w3.org/2000/svg" xmlns:xlink="http://www.w3.org/1999/xlink">
<g id="graph0" class="graph" transform="scale(1 1) rotate(0) translate(4 1193)">
<title>SERVER</title>
<!-- Node1 -->
<g id="node1" class="node">
<title>Node1</title>
<g id="a_node1"><a xlink:title="Klasa serwera.">
<polygon fill="#bfbfbf" stroke="black" points="121.5,-0.5 121.5,-178.5 226.5,-178.5 226.5,-0.5 121.5,-0.5"/>
<text text-anchor="middle" x="174" y="-166.5" font-family="Helvetica,sans-Serif" font-size="10.00">SERVER</text>
<polyline fill="none" stroke="black" points="121.5,-159.5 226.5,-159.5 "/>
<text text-anchor="start" x="129.5" y="-147.5" font-family="Helvetica,sans-Serif" font-size="10.00"># m_terminate</text>
<polyline fill="none" stroke="black" points="121.5,-140.5 226.5,-140.5 "/>
<text text-anchor="start" x="129.5" y="-128.5" font-family="Helvetica,sans-Serif" font-size="10.00">+ SERVER()</text>
<text text-anchor="start" x="129.5" y="-117.5" font-family="Helvetica,sans-Serif" font-size="10.00">+ ~SERVER()</text>
<text text-anchor="start" x="129.5" y="-106.5" font-family="Helvetica,sans-Serif" font-size="10.00">+ start()</text>
<text text-anchor="start" x="129.5" y="-95.5" font-family="Helvetica,sans-Serif" font-size="10.00">+ stop()</text>
<text text-anchor="start" x="129.5" y="-84.5" font-family="Helvetica,sans-Serif" font-size="10.00">+ end()</text>
<text text-anchor="start" x="129.5" y="-73.5" font-family="Helvetica,sans-Serif" font-size="10.00">+ loop()</text>
<text text-anchor="start" x="129.5" y="-62.5" font-family="Helvetica,sans-Serif" font-size="10.00">+ is_started()</text>
<text text-anchor="start" x="129.5" y="-51.5" font-family="Helvetica,sans-Serif" font-size="10.00"># on_accept()</text>
<text text-anchor="start" x="129.5" y="-40.5" font-family="Helvetica,sans-Serif" font-size="10.00"># on_header()</text>
<text text-anchor="start" x="129.5" y="-29.5" font-family="Helvetica,sans-Serif" font-size="10.00"># on_upload()</text>
<text text-anchor="start" x="129.5" y="-18.5" font-family="Helvetica,sans-Serif" font-size="10.00"># on_download()</text>
<text text-anchor="start" x="129.5" y="-7.5" font-family="Helvetica,sans-Serif" font-size="10.00"># on_disconnect()</text>
</a>
</g>
</g>
<!-- Node2 -->
<g id="node2" class="node">
<title>Node2</title>
<g id="a_node2"><a xlink:href="class_s_o_c_k_b_a_s_e.html" target="_top" xlink:title="Klasa bazowa.">
<polygon fill="none" stroke="black" points="0,-226.5 0,-338.5 96,-338.5 96,-226.5 0,-226.5"/>
<text text-anchor="middle" x="48" y="-326.5" font-family="Helvetica,sans-Serif" font-size="10.00">SOCKBASE</text>
<polyline fill="none" stroke="black" points="0,-319.5 96,-319.5 "/>
<text text-anchor="start" x="8" y="-307.5" font-family="Helvetica,sans-Serif" font-size="10.00"># m_sock</text>
<text text-anchor="start" x="8" y="-296.5" font-family="Helvetica,sans-Serif" font-size="10.00"># m_buff</text>
<polyline fill="none" stroke="black" points="0,-289.5 96,-289.5 "/>
<text text-anchor="start" x="8" y="-277.5" font-family="Helvetica,sans-Serif" font-size="10.00">+ SOCKBASE()</text>
<text text-anchor="start" x="8" y="-266.5" font-family="Helvetica,sans-Serif" font-size="10.00">+ ~SOCKBASE()</text>
<text text-anchor="start" x="8" y="-255.5" font-family="Helvetica,sans-Serif" font-size="10.00">+ close()</text>
<text text-anchor="start" x="8" y="-244.5" font-family="Helvetica,sans-Serif" font-size="10.00"># send_all()</text>
<text text-anchor="start" x="8" y="-233.5" font-family="Helvetica,sans-Serif" font-size="10.00"># get_name()</text>
</a>
</g>
</g>
<!-- Node2&#45;&gt;Node1 -->
<g id="edge1" class="edge">
<title>Node2&#45;&gt;Node1</title>
<path fill="none" stroke="midnightblue" d="M89.96,-217.89C100.05,-202.59 110.96,-186.06 121.47,-170.13"/>
<polygon fill="none" stroke="midnightblue" points="87.03,-215.98 84.44,-226.25 92.87,-219.83 87.03,-215.98"/>
</g>
<!-- Node3 -->
<g id="node3" class="node">
<title>Node3</title>
<g id="a_node3"><a xlink:title=" ">
<polygon fill="none" stroke="#bfbfbf" points="114.5,-254 114.5,-311 233.5,-311 233.5,-254 114.5,-254"/>
<text text-anchor="middle" x="174" y="-299" font-family="Helvetica,sans-Serif" font-size="10.00">std::vector&lt; pollfd &gt;</text>
<polyline fill="none" stroke="#bfbfbf" points="114.5,-292 233.5,-292 "/>
<text text-anchor="start" x="122.5" y="-280" font-family="Helvetica,sans-Serif" font-size="10.00">+ elements</text>
<polyline fill="none" stroke="#bfbfbf" points="114.5,-273 233.5,-273 "/>
<text text-anchor="middle" x="174" y="-261" font-family="Helvetica,sans-Serif" font-size="10.00"> </text>
</a>
</g>
</g>
<!-- Node3&#45;&gt;Node1 -->
<g id="edge2" class="edge">
<title>Node3&#45;&gt;Node1</title>
<path fill="none" stroke="#404040" d="M174,-253.73C174,-236.81 174,-214.05 174,-190.91"/>
<polygon fill="none" stroke="#404040" points="174,-190.8 170,-184.8 174,-178.8 178,-184.8 174,-190.8"/>
<text text-anchor="middle" x="206" y="-200" font-family="Helvetica,sans-Serif" font-size="10.00"> #m_sockets</text>
</g>
<!-- Node4 -->
<g id="node4" class="node">
<title>Node4</title>
<g id="a_node4"><a xlink:title=" ">
<polygon fill="none" stroke="#bfbfbf" points="252,-248.5 252,-316.5 380,-316.5 380,-248.5 252,-248.5"/>
<text text-anchor="start" x="260" y="-304.5" font-family="Helvetica,sans-Serif" font-size="10.00">std::map&lt; int, SERVER</text>
<text text-anchor="middle" x="316" y="-293.5" font-family="Helvetica,sans-Serif" font-size="10.00">::CLIENT &gt;</text>
<polyline fill="none" stroke="#bfbfbf" points="252,-286.5 380,-286.5 "/>
<text text-anchor="start" x="260" y="-274.5" font-family="Helvetica,sans-Serif" font-size="10.00">+ keys</text>
<polyline fill="none" stroke="#bfbfbf" points="252,-267.5 380,-267.5 "/>
<text text-anchor="middle" x="316" y="-255.5" font-family="Helvetica,sans-Serif" font-size="10.00"> </text>
</a>
</g>
</g>
<!-- Node4&#45;&gt;Node1 -->
<g id="edge3" class="edge">
<title>Node4&#45;&gt;Node1</title>
<path fill="none" stroke="#404040" d="M291.27,-248.23C275.41,-226.91 254.11,-198.25 234.01,-171.22"/>
<polygon fill="none" stroke="#404040" points="233.83,-170.98 227.04,-168.55 226.67,-161.35 233.46,-163.78 233.83,-170.98"/>
<text text-anchor="middle" x="287.5" y="-200" font-family="Helvetica,sans-Serif" font-size="10.00"> #m_clients</text>
</g>
<!-- Node5 -->
<g id="node5" class="node">
<title>Node5</title>
<g id="a_node5"><a xlink:href="struct_s_e_r_v_e_r_1_1_c_l_i_e_n_t.html" target="_top" xlink:title="Struktura opisująca klienta.">
<polygon fill="none" stroke="black" points="268.5,-386.5 268.5,-575.5 363.5,-575.5 363.5,-386.5 268.5,-386.5"/>
<text text-anchor="middle" x="316" y="-563.5" font-family="Helvetica,sans-Serif" font-size="10.00">SERVER::CLIENT</text>
<polyline fill="none" stroke="black" points="268.5,-556.5 363.5,-556.5 "/>
<text text-anchor="start" x="276.5" y="-544.5" font-family="Helvetica,sans-Serif" font-size="10.00">+ state</text>
<text text-anchor="start" x="276.5" y="-533.5" font-family="Helvetica,sans-Serif" font-size="10.00">+ buff</text>
<text text-anchor="start" x="276.5" y="-522.5" font-family="Helvetica,sans-Serif" font-size="10.00">+ size</text>
<text text-anchor="start" x="276.5" y="-511.5" font-family="Helvetica,sans-Serif" font-size="10.00">+ cap</text>
<text text-anchor="start" x="276.5" y="-500.5" font-family="Helvetica,sans-Serif" font-size="10.00">+ sock</text>
<polyline fill="none" stroke="black" points="268.5,-493.5 363.5,-493.5 "/>
<text text-anchor="start" x="276.5" y="-481.5" font-family="Helvetica,sans-Serif" font-size="10.00">+ CLIENT()</text>
<text text-anchor="start" x="276.5" y="-470.5" font-family="Helvetica,sans-Serif" font-size="10.00">+ CLIENT()</text>
<text text-anchor="start" x="276.5" y="-459.5" font-family="Helvetica,sans-Serif" font-size="10.00">+ ~CLIENT()</text>
<text text-anchor="start" x="276.5" y="-448.5" font-family="Helvetica,sans-Serif" font-size="10.00">+ CLIENT()</text>
<text text-anchor="start" x="276.5" y="-437.5" font-family="Helvetica,sans-Serif" font-size="10.00">+ CLIENT()</text>
<text text-anchor="start" x="276.5" y="-426.5" font-family="Helvetica,sans-Serif" font-size="10.00">+ operator=()</text>
<text text-anchor="start" x="276.5" y="-415.5" font-family="Helvetica,sans-Serif" font-size="10.00">+ operator=()</text>
<text text-anchor="start" x="276.5" y="-404.5" font-family="Helvetica,sans-Serif" font-size="10.00">+ resize()</text>
<text text-anchor="start" x="276.5" y="-393.5" font-family="Helvetica,sans-Serif" font-size="10.00">+ clean()</text>
</a>
</g>
</g>
<!-- Node5&#45;&gt;Node4 -->
<g id="edge4" class="edge">
<title>Node5&#45;&gt;Node4</title>
<path fill="none" stroke="#404040" d="M316,-386.35C316,-366.41 316,-346.21 316,-329.05"/>
<polygon fill="none" stroke="#404040" points="316,-328.86 312,-322.86 316,-316.86 320,-322.86 316,-328.86"/>
<text text-anchor="middle" x="345" y="-360" font-family="Helvetica,sans-Serif" font-size="10.00"> +elements</text>
</g>
<!-- Node6 -->
<g id="node6" class="node">
<title>Node6</title>
<g id="a_node6"><a xlink:title=" ">
<polygon fill="none" stroke="#bfbfbf" points="278,-623.5 278,-680.5 354,-680.5 354,-623.5 278,-623.5"/>
<text text-anchor="middle" x="316" y="-668.5" font-family="Helvetica,sans-Serif" font-size="10.00">std::fstream</text>
<polyline fill="none" stroke="#bfbfbf" points="278,-661.5 354,-661.5 "/>
<text text-anchor="middle" x="316" y="-649.5" font-family="Helvetica,sans-Serif" font-size="10.00"> </text>
<polyline fill="none" stroke="#bfbfbf" points="278,-642.5 354,-642.5 "/>
<text text-anchor="middle" x="316" y="-630.5" font-family="Helvetica,sans-Serif" font-size="10.00"> </text>
</a>
</g>
</g>
<!-- Node6&#45;&gt;Node5 -->
<g id="edge5" class="edge">
<title>Node6&#45;&gt;Node5</title>
<path fill="none" stroke="#404040" d="M316,-623.47C316,-613.23 316,-600.9 316,-587.84"/>
<polygon fill="none" stroke="#404040" points="316,-587.69 312,-581.69 316,-575.69 320,-581.69 316,-587.69"/>
<text text-anchor="middle" x="330" y="-597" font-family="Helvetica,sans-Serif" font-size="10.00"> +file</text>
</g>
<!-- Node7 -->
<g id="node7" class="node">
<title>Node7</title>
<g id="a_node7"><a xlink:title=" ">
<polygon fill="none" stroke="#bfbfbf" points="262.5,-718.5 262.5,-786.5 369.5,-786.5 369.5,-718.5 262.5,-718.5"/>
<text text-anchor="start" x="270.5" y="-774.5" font-family="Helvetica,sans-Serif" font-size="10.00">std::basic_fstream</text>
<text text-anchor="middle" x="316" y="-763.5" font-family="Helvetica,sans-Serif" font-size="10.00">&lt; Char &gt;</text>
<polyline fill="none" stroke="#bfbfbf" points="262.5,-756.5 369.5,-756.5 "/>
<text text-anchor="middle" x="316" y="-744.5" font-family="Helvetica,sans-Serif" font-size="10.00"> </text>
<polyline fill="none" stroke="#bfbfbf" points="262.5,-737.5 369.5,-737.5 "/>
<text text-anchor="middle" x="316" y="-725.5" font-family="Helvetica,sans-Serif" font-size="10.00"> </text>
</a>
</g>
</g>
<!-- Node7&#45;&gt;Node6 -->
<g id="edge6" class="edge">
<title>Node7&#45;&gt;Node6</title>
<path fill="none" stroke="midnightblue" d="M316,-708.38C316,-698.94 316,-689.2 316,-680.57"/>
<polygon fill="none" stroke="midnightblue" points="312.5,-708.43 316,-718.43 319.5,-708.43 312.5,-708.43"/>
</g>
<!-- Node8 -->
<g id="node8" class="node">
<title>Node8</title>
<g id="a_node8"><a xlink:title=" ">
<polygon fill="none" stroke="#bfbfbf" points="260,-824.5 260,-892.5 372,-892.5 372,-824.5 260,-824.5"/>
<text text-anchor="start" x="268" y="-880.5" font-family="Helvetica,sans-Serif" font-size="10.00">std::basic_iostream</text>
<text text-anchor="middle" x="316" y="-869.5" font-family="Helvetica,sans-Serif" font-size="10.00">&lt; Char &gt;</text>
<polyline fill="none" stroke="#bfbfbf" points="260,-862.5 372,-862.5 "/>
<text text-anchor="middle" x="316" y="-850.5" font-family="Helvetica,sans-Serif" font-size="10.00"> </text>
<polyline fill="none" stroke="#bfbfbf" points="260,-843.5 372,-843.5 "/>
<text text-anchor="middle" x="316" y="-831.5" font-family="Helvetica,sans-Serif" font-size="10.00"> </text>
</a>
</g>
</g>
<!-- Node8&#45;&gt;Node7 -->
<g id="edge7" class="edge">
<title>Node8&#45;&gt;Node7</title>
<path fill="none" stroke="midnightblue" d="M316,-814.17C316,-805 316,-795.46 316,-786.73"/>
<polygon fill="none" stroke="midnightblue" points="312.5,-814.31 316,-824.31 319.5,-814.31 312.5,-814.31"/>
</g>
<!-- Node9 -->
<g id="node9" class="node">
<title>Node9</title>
<g id="a_node9"><a xlink:title=" ">
<polygon fill="none" stroke="#bfbfbf" points="201,-930.5 201,-998.5 307,-998.5 307,-930.5 201,-930.5"/>
<text text-anchor="start" x="209" y="-986.5" font-family="Helvetica,sans-Serif" font-size="10.00">std::basic_istream</text>
<text text-anchor="middle" x="254" y="-975.5" font-family="Helvetica,sans-Serif" font-size="10.00">&lt; Char &gt;</text>
<polyline fill="none" stroke="#bfbfbf" points="201,-968.5 307,-968.5 "/>
<text text-anchor="middle" x="254" y="-956.5" font-family="Helvetica,sans-Serif" font-size="10.00"> </text>
<polyline fill="none" stroke="#bfbfbf" points="201,-949.5 307,-949.5 "/>
<text text-anchor="middle" x="254" y="-937.5" font-family="Helvetica,sans-Serif" font-size="10.00"> </text>
</a>
</g>
</g>
<!-- Node9&#45;&gt;Node8 -->
<g id="edge8" class="edge">
<title>Node9&#45;&gt;Node8</title>
<path fill="none" stroke="midnightblue" d="M278.95,-921.65C284.68,-912.03 290.71,-901.93 296.19,-892.73"/>
<polygon fill="none" stroke="midnightblue" points="275.9,-919.93 273.79,-930.31 281.91,-923.51 275.9,-919.93"/>
</g>
<!-- Node10 -->
<g id="node10" class="node">
<title>Node10</title>
<g id="a_node10"><a xlink:title=" ">
<polygon fill="none" stroke="#bfbfbf" points="252,-1036.5 252,-1093.5 380,-1093.5 380,-1036.5 252,-1036.5"/>
<text text-anchor="middle" x="316" y="-1081.5" font-family="Helvetica,sans-Serif" font-size="10.00">std::basic_ios&lt; Char &gt;</text>
<polyline fill="none" stroke="#bfbfbf" points="252,-1074.5 380,-1074.5 "/>
<text text-anchor="middle" x="316" y="-1062.5" font-family="Helvetica,sans-Serif" font-size="10.00"> </text>
<polyline fill="none" stroke="#bfbfbf" points="252,-1055.5 380,-1055.5 "/>
<text text-anchor="middle" x="316" y="-1043.5" font-family="Helvetica,sans-Serif" font-size="10.00"> </text>
</a>
</g>
</g>
<!-- Node10&#45;&gt;Node9 -->
<g id="edge9" class="edge">
<title>Node10&#45;&gt;Node9</title>
<path fill="none" stroke="midnightblue" d="M293.19,-1027.77C287.18,-1018.22 280.72,-1007.96 274.82,-998.58"/>
<polygon fill="none" stroke="midnightblue" points="290.28,-1029.7 298.56,-1036.3 296.2,-1025.97 290.28,-1029.7"/>
</g>
<!-- Node12 -->
<g id="node12" class="node">
<title>Node12</title>
<g id="a_node12"><a xlink:title=" ">
<polygon fill="none" stroke="#bfbfbf" points="325.5,-930.5 325.5,-998.5 434.5,-998.5 434.5,-930.5 325.5,-930.5"/>
<text text-anchor="start" x="333.5" y="-986.5" font-family="Helvetica,sans-Serif" font-size="10.00">std::basic_ostream</text>
<text text-anchor="middle" x="380" y="-975.5" font-family="Helvetica,sans-Serif" font-size="10.00">&lt; Char &gt;</text>
<polyline fill="none" stroke="#bfbfbf" points="325.5,-968.5 434.5,-968.5 "/>
<text text-anchor="middle" x="380" y="-956.5" font-family="Helvetica,sans-Serif" font-size="10.00"> </text>
<polyline fill="none" stroke="#bfbfbf" points="325.5,-949.5 434.5,-949.5 "/>
<text text-anchor="middle" x="380" y="-937.5" font-family="Helvetica,sans-Serif" font-size="10.00"> </text>
</a>
</g>
</g>
<!-- Node10&#45;&gt;Node12 -->
<g id="edge12" class="edge">
<title>Node10&#45;&gt;Node12</title>
<path fill="none" stroke="midnightblue" d="M339.54,-1027.77C345.75,-1018.22 352.41,-1007.96 358.51,-998.58"/>
<polygon fill="none" stroke="midnightblue" points="336.51,-1026.01 334,-1036.3 342.38,-1029.82 336.51,-1026.01"/>
</g>
<!-- Node11 -->
<g id="node11" class="node">
<title>Node11</title>
<g id="a_node11"><a xlink:title=" ">
<polygon fill="none" stroke="#bfbfbf" points="276,-1131.5 276,-1188.5 356,-1188.5 356,-1131.5 276,-1131.5"/>
<text text-anchor="middle" x="316" y="-1176.5" font-family="Helvetica,sans-Serif" font-size="10.00">std::ios_base</text>
<polyline fill="none" stroke="#bfbfbf" points="276,-1169.5 356,-1169.5 "/>
<text text-anchor="middle" x="316" y="-1157.5" font-family="Helvetica,sans-Serif" font-size="10.00"> </text>
<polyline fill="none" stroke="#bfbfbf" points="276,-1150.5 356,-1150.5 "/>
<text text-anchor="middle" x="316" y="-1138.5" font-family="Helvetica,sans-Serif" font-size="10.00"> </text>
</a>
</g>
</g>
<!-- Node11&#45;&gt;Node10 -->
<g id="edge10" class="edge">
<title>Node11&#45;&gt;Node10</title>
<path fill="none" stroke="midnightblue" d="M316,-1121.24C316,-1112.03 316,-1102.35 316,-1093.71"/>
<polygon fill="none" stroke="midnightblue" points="312.5,-1121.35 316,-1131.35 319.5,-1121.35 312.5,-1121.35"/>
</g>
<!-- Node12&#45;&gt;Node8 -->
<g id="edge11" class="edge">
<title>Node12&#45;&gt;Node8</title>
<path fill="none" stroke="midnightblue" d="M354.25,-921.65C348.33,-912.03 342.11,-901.93 336.45,-892.73"/>
<polygon fill="none" stroke="midnightblue" points="351.35,-923.63 359.57,-930.31 357.31,-919.96 351.35,-923.63"/>
</g>
</g>
</svg>
