<?xml version="1.0" encoding="UTF-8" standalone="no"?>
<!DOCTYPE svg PUBLIC "-//W3C//DTD SVG 1.1//EN"
 "http://www.w3.org/Graphics/SVG/1.1/DTD/svg11.dtd">
<!-- Generated by graphviz version 2.43.0 (0)
 -->
<!-- Title: SERVER::start Pages: 1 -->
<svg width="346pt" height="46pt"
 viewBox="0.00 0.00 346.00 46.00" xmlns="http://www.w3.org/2000/svg" xmlns:xlink="http://www.w3.org/1999/xlink">
<g id="graph0" class="graph" transform="scale(1 1) rotate(0) translate(4 42)">
<title>SERVER::start</title>
<!-- Node1 -->
<g id="node1" class="node">
<title>Node1</title>
<g id="a_node1"><a xlink:title="Inicjacja serwera.">
<polygon fill="#bfbfbf" stroke="black" points="0,-0.5 0,-19.5 83,-19.5 83,-0.5 0,-0.5"/>
<text text-anchor="middle" x="41.5" y="-7.5" font-family="Helvetica,sans-Serif" font-size="10.00">SERVER::start</text>
</a>
</g>
</g>
<!-- Node2 -->
<g id="node2" class="node">
<title>Node2</title>
<g id="a_node2"><a xlink:href="class_s_e_r_v_e_r.html#ad4f09adc16c4b5a7b9126e8741af9a08" target="_top" xlink:title="Zatrzymuje serwer.">
<polygon fill="none" stroke="black" points="119,-0.5 119,-19.5 201,-19.5 201,-0.5 119,-0.5"/>
<text text-anchor="middle" x="160" y="-7.5" font-family="Helvetica,sans-Serif" font-size="10.00">SERVER::stop</text>
</a>
</g>
</g>
<!-- Node1&#45;&gt;Node2 -->
<g id="edge1" class="edge">
<title>Node1&#45;&gt;Node2</title>
<path fill="none" stroke="midnightblue" d="M83.25,-10C91.46,-10 100.18,-10 108.67,-10"/>
<polygon fill="midnightblue" stroke="midnightblue" points="108.87,-13.5 118.87,-10 108.87,-6.5 108.87,-13.5"/>
</g>
<!-- Node3 -->
<g id="node3" class="node">
<title>Node3</title>
<g id="a_node3"><a xlink:href="class_s_o_c_k_b_a_s_e.html#a188bbebe9b3f5ec16b0304b512da7c0f" target="_top" xlink:title="Zamyka gniazdo.">
<polygon fill="none" stroke="black" points="237,-0.5 237,-19.5 338,-19.5 338,-0.5 237,-0.5"/>
<text text-anchor="middle" x="287.5" y="-7.5" font-family="Helvetica,sans-Serif" font-size="10.00">SOCKBASE::close</text>
</a>
</g>
</g>
<!-- Node2&#45;&gt;Node3 -->
<g id="edge2" class="edge">
<title>Node2&#45;&gt;Node3</title>
<path fill="none" stroke="midnightblue" d="M201.05,-10C209.2,-10 217.94,-10 226.6,-10"/>
<polygon fill="midnightblue" stroke="midnightblue" points="226.7,-13.5 236.7,-10 226.7,-6.5 226.7,-13.5"/>
</g>
<!-- Node3&#45;&gt;Node3 -->
<g id="edge3" class="edge">
<title>Node3&#45;&gt;Node3</title>
<path fill="none" stroke="midnightblue" d="M268.08,-19.76C258.63,-28.57 265.11,-38 287.5,-38 301.85,-38 309.66,-34.13 310.94,-29.03"/>
<polygon fill="midnightblue" stroke="midnightblue" points="314.11,-27.54 306.92,-19.76 307.68,-30.32 314.11,-27.54"/>
</g>
</g>
</svg>
