<?xml version="1.0" encoding="UTF-8" standalone="no"?>
<!DOCTYPE svg PUBLIC "-//W3C//DTD SVG 1.1//EN"
 "http://www.w3.org/Graphics/SVG/1.1/DTD/svg11.dtd">
<!-- Generated by graphviz version 2.43.0 (0)
 -->
<!-- Title: SOCKBASE::send_all Pages: 1 -->
<svg width="341pt" height="66pt"
 viewBox="0.00 0.00 341.00 66.00" xmlns="http://www.w3.org/2000/svg" xmlns:xlink="http://www.w3.org/1999/xlink">
<g id="graph0" class="graph" transform="scale(1 1) rotate(0) translate(4 62)">
<title>SOCKBASE::send_all</title>
<!-- Node1 -->
<g id="node1" class="node">
<title>Node1</title>
<g id="a_node1"><a xlink:title="Wysyłanie danych.">
<polygon fill="#bfbfbf" stroke="black" points="217,-19.5 217,-38.5 333,-38.5 333,-19.5 217,-19.5"/>
<text text-anchor="middle" x="275" y="-26.5" font-family="Helvetica,sans-Serif" font-size="10.00">SOCKBASE::send_all</text>
</a>
</g>
</g>
<!-- Node2 -->
<g id="node2" class="node">
<title>Node2</title>
<g id="a_node2"><a xlink:href="class_c_l_i_e_n_t.html#ad348ac551652139ec10b8598f72527c1" target="_top" xlink:title="Pobieranie pliku.">
<polygon fill="none" stroke="black" points="77,-38.5 77,-57.5 181,-57.5 181,-38.5 77,-38.5"/>
<text text-anchor="middle" x="129" y="-45.5" font-family="Helvetica,sans-Serif" font-size="10.00">CLIENT::download</text>
</a>
</g>
</g>
<!-- Node1&#45;&gt;Node2 -->
<g id="edge1" class="edge">
<title>Node1&#45;&gt;Node2</title>
<path fill="none" stroke="midnightblue" d="M206.65,-37.89C198.05,-39.02 189.36,-40.17 181.07,-41.26"/>
<polygon fill="midnightblue" stroke="midnightblue" points="207.22,-41.34 216.67,-36.56 206.3,-34.4 207.22,-41.34"/>
</g>
<!-- Node4 -->
<g id="node4" class="node">
<title>Node4</title>
<g id="a_node4"><a xlink:href="class_c_l_i_e_n_t.html#a83c83556e186942b8d9c8b812a295454" target="_top" xlink:title="Wysyłanie pliku.">
<polygon fill="none" stroke="black" points="84.5,-0.5 84.5,-19.5 173.5,-19.5 173.5,-0.5 84.5,-0.5"/>
<text text-anchor="middle" x="129" y="-7.5" font-family="Helvetica,sans-Serif" font-size="10.00">CLIENT::upload</text>
</a>
</g>
</g>
<!-- Node1&#45;&gt;Node4 -->
<g id="edge3" class="edge">
<title>Node1&#45;&gt;Node4</title>
<path fill="none" stroke="midnightblue" d="M206.53,-20.1C195.42,-18.63 184.16,-17.15 173.81,-15.78"/>
<polygon fill="midnightblue" stroke="midnightblue" points="206.3,-23.6 216.67,-21.44 207.22,-16.66 206.3,-23.6"/>
</g>
<!-- Node3 -->
<g id="node3" class="node">
<title>Node3</title>
<g id="a_node3"><a xlink:href="main__c_8cpp.html#a0ddf1224851353fc92bfbff6f499fa97" target="_top" xlink:title="Funkcja główna programu klienta.">
<polygon fill="none" stroke="black" points="0,-19.5 0,-38.5 41,-38.5 41,-19.5 0,-19.5"/>
<text text-anchor="middle" x="20.5" y="-26.5" font-family="Helvetica,sans-Serif" font-size="10.00">main</text>
</a>
</g>
</g>
<!-- Node2&#45;&gt;Node3 -->
<g id="edge2" class="edge">
<title>Node2&#45;&gt;Node3</title>
<path fill="none" stroke="midnightblue" d="M66.83,-37.09C57.58,-35.44 48.66,-33.85 41.22,-32.52"/>
<polygon fill="midnightblue" stroke="midnightblue" points="66.47,-40.58 76.93,-38.89 67.7,-33.69 66.47,-40.58"/>
</g>
<!-- Node4&#45;&gt;Node3 -->
<g id="edge4" class="edge">
<title>Node4&#45;&gt;Node3</title>
<path fill="none" stroke="midnightblue" d="M74.4,-19.56C62.47,-21.69 50.56,-23.82 41.07,-25.51"/>
<polygon fill="midnightblue" stroke="midnightblue" points="75.15,-22.98 84.38,-17.78 73.92,-16.09 75.15,-22.98"/>
</g>
</g>
</svg>
