<?xml version="1.0" encoding="UTF-8" standalone="no"?>
<!DOCTYPE svg PUBLIC "-//W3C//DTD SVG 1.1//EN"
 "http://www.w3.org/Graphics/SVG/1.1/DTD/svg11.dtd">
<!-- Generated by graphviz version 2.43.0 (0)
 -->
<!-- Title: SERVER::on_disconnect Pages: 1 -->
<svg width="495pt" height="122pt"
 viewBox="0.00 0.00 495.00 121.71" xmlns="http://www.w3.org/2000/svg" xmlns:xlink="http://www.w3.org/1999/xlink">
<g id="graph0" class="graph" transform="scale(1 1) rotate(0) translate(4 117.71)">
<title>SERVER::on_disconnect</title>
<!-- Node1 -->
<g id="node1" class="node">
<title>Node1</title>
<g id="a_node1"><a xlink:title="Obsługa rozłączenia klienta.">
<polygon fill="#bfbfbf" stroke="black" points="356,-57.5 356,-76.5 487,-76.5 487,-57.5 356,-57.5"/>
<text text-anchor="middle" x="421.5" y="-64.5" font-family="Helvetica,sans-Serif" font-size="10.00">SERVER::on_disconnect</text>
</a>
</g>
</g>
<!-- Node2 -->
<g id="node2" class="node">
<title>Node2</title>
<g id="a_node2"><a xlink:href="class_s_e_r_v_e_r.html#ae5390a25208f81c139a73747374a02bf" target="_top" xlink:title="Pętla serwera.">
<polygon fill="none" stroke="black" points="77,-57.5 77,-76.5 159,-76.5 159,-57.5 77,-57.5"/>
<text text-anchor="middle" x="118" y="-64.5" font-family="Helvetica,sans-Serif" font-size="10.00">SERVER::loop</text>
</a>
</g>
</g>
<!-- Node1&#45;&gt;Node2 -->
<g id="edge1" class="edge">
<title>Node1&#45;&gt;Node2</title>
<path fill="none" stroke="midnightblue" d="M392.15,-80.88C372.44,-89.73 345.27,-100.38 320,-105 265.35,-114.99 249.07,-117.76 195,-105 171.88,-99.54 147.78,-85.92 133.08,-76.56"/>
<polygon fill="midnightblue" stroke="midnightblue" points="393.84,-83.95 401.46,-76.58 390.91,-77.6 393.84,-83.95"/>
</g>
<!-- Node4 -->
<g id="node4" class="node">
<title>Node4</title>
<g id="a_node4"><a xlink:href="class_s_e_r_v_e_r.html#aa64b01a309342860852be03efc4326eb" target="_top" xlink:title="Obsługa pobierania pliku.">
<polygon fill="none" stroke="black" points="195,-76.5 195,-95.5 320,-95.5 320,-76.5 195,-76.5"/>
<text text-anchor="middle" x="257.5" y="-83.5" font-family="Helvetica,sans-Serif" font-size="10.00">SERVER::on_download</text>
</a>
</g>
</g>
<!-- Node1&#45;&gt;Node4 -->
<g id="edge3" class="edge">
<title>Node1&#45;&gt;Node4</title>
<path fill="none" stroke="midnightblue" d="M345.58,-75.79C337.03,-76.79 328.4,-77.8 320.05,-78.78"/>
<polygon fill="midnightblue" stroke="midnightblue" points="346.02,-79.26 355.54,-74.62 345.2,-72.31 346.02,-79.26"/>
</g>
<!-- Node5 -->
<g id="node5" class="node">
<title>Node5</title>
<g id="a_node5"><a xlink:href="class_s_e_r_v_e_r.html#a99e0fdba8985163f446b50a4ce8211b1" target="_top" xlink:title="Obsługa nagłówka.">
<polygon fill="none" stroke="black" points="201.5,-38.5 201.5,-57.5 313.5,-57.5 313.5,-38.5 201.5,-38.5"/>
<text text-anchor="middle" x="257.5" y="-45.5" font-family="Helvetica,sans-Serif" font-size="10.00">SERVER::on_header</text>
</a>
</g>
</g>
<!-- Node1&#45;&gt;Node5 -->
<g id="edge5" class="edge">
<title>Node1&#45;&gt;Node5</title>
<path fill="none" stroke="midnightblue" d="M345.35,-58.19C334.64,-56.93 323.8,-55.66 313.58,-54.46"/>
<polygon fill="midnightblue" stroke="midnightblue" points="345.2,-61.69 355.54,-59.38 346.02,-54.74 345.2,-61.69"/>
</g>
<!-- Node6 -->
<g id="node6" class="node">
<title>Node6</title>
<g id="a_node6"><a xlink:href="class_s_e_r_v_e_r.html#acaf6a69143611b6467a236da1f56905f" target="_top" xlink:title="Obsługa wysyłania pliku.">
<polygon fill="none" stroke="black" points="202,-0.5 202,-19.5 313,-19.5 313,-0.5 202,-0.5"/>
<text text-anchor="middle" x="257.5" y="-7.5" font-family="Helvetica,sans-Serif" font-size="10.00">SERVER::on_upload</text>
</a>
</g>
</g>
<!-- Node1&#45;&gt;Node6 -->
<g id="edge7" class="edge">
<title>Node1&#45;&gt;Node6</title>
<path fill="none" stroke="midnightblue" d="M386.94,-53.72C367.5,-46.17 342.49,-36.72 320,-29 310.59,-25.77 300.29,-22.49 290.86,-19.59"/>
<polygon fill="midnightblue" stroke="midnightblue" points="385.69,-56.99 396.28,-57.36 388.24,-50.47 385.69,-56.99"/>
</g>
<!-- Node3 -->
<g id="node3" class="node">
<title>Node3</title>
<g id="a_node3"><a xlink:href="main__s_8cpp.html#a0ddf1224851353fc92bfbff6f499fa97" target="_top" xlink:title="Funkcja główna programu serwera.">
<polygon fill="none" stroke="black" points="0,-57.5 0,-76.5 41,-76.5 41,-57.5 0,-57.5"/>
<text text-anchor="middle" x="20.5" y="-64.5" font-family="Helvetica,sans-Serif" font-size="10.00">main</text>
</a>
</g>
</g>
<!-- Node2&#45;&gt;Node3 -->
<g id="edge2" class="edge">
<title>Node2&#45;&gt;Node3</title>
<path fill="none" stroke="midnightblue" d="M66.57,-67C57.52,-67 48.6,-67 41.11,-67"/>
<polygon fill="midnightblue" stroke="midnightblue" points="66.78,-70.5 76.78,-67 66.78,-63.5 66.78,-70.5"/>
</g>
<!-- Node4&#45;&gt;Node2 -->
<g id="edge4" class="edge">
<title>Node4&#45;&gt;Node2</title>
<path fill="none" stroke="midnightblue" d="M184.98,-76.12C176.11,-74.89 167.3,-73.67 159.15,-72.55"/>
<polygon fill="midnightblue" stroke="midnightblue" points="184.6,-79.6 194.99,-77.5 185.56,-72.66 184.6,-79.6"/>
</g>
<!-- Node5&#45;&gt;Node2 -->
<g id="edge6" class="edge">
<title>Node5&#45;&gt;Node2</title>
<path fill="none" stroke="midnightblue" d="M191.39,-57C180.46,-58.51 169.4,-60.04 159.33,-61.43"/>
<polygon fill="midnightblue" stroke="midnightblue" points="191.94,-60.45 201.37,-55.62 190.98,-53.52 191.94,-60.45"/>
</g>
<!-- Node6&#45;&gt;Node2 -->
<g id="edge8" class="edge">
<title>Node6&#45;&gt;Node2</title>
<path fill="none" stroke="midnightblue" d="M212.24,-22.71C206.39,-24.67 200.51,-26.79 195,-29 174.19,-37.35 151.3,-49.18 136.13,-57.42"/>
<polygon fill="midnightblue" stroke="midnightblue" points="213.55,-25.97 222,-19.57 211.4,-19.31 213.55,-25.97"/>
</g>
</g>
</svg>
