<?xml version="1.0" encoding="UTF-8" standalone="no"?>
<!DOCTYPE svg PUBLIC "-//W3C//DTD SVG 1.1//EN"
 "http://www.w3.org/Graphics/SVG/1.1/DTD/svg11.dtd">
<!-- Generated by graphviz version 2.43.0 (0)
 -->
<!-- Title: CLIENT Pages: 1 -->
<svg width="107pt" height="325pt"
 viewBox="0.00 0.00 107.00 325.00" xmlns="http://www.w3.org/2000/svg" xmlns:xlink="http://www.w3.org/1999/xlink">
<g id="graph0" class="graph" transform="scale(1 1) rotate(0) translate(4 321)">
<title>CLIENT</title>
<!-- Node1 -->
<g id="node1" class="node">
<title>Node1</title>
<g id="a_node1"><a xlink:title="Klasa klienta.">
<polygon fill="#bfbfbf" stroke="black" points="0,-0.5 0,-123.5 99,-123.5 99,-0.5 0,-0.5"/>
<text text-anchor="middle" x="49.5" y="-111.5" font-family="Helvetica,sans-Serif" font-size="10.00">CLIENT</text>
<polyline fill="none" stroke="black" points="0,-104.5 99,-104.5 "/>
<text text-anchor="middle" x="49.5" y="-92.5" font-family="Helvetica,sans-Serif" font-size="10.00"> </text>
<polyline fill="none" stroke="black" points="0,-85.5 99,-85.5 "/>
<text text-anchor="start" x="8" y="-73.5" font-family="Helvetica,sans-Serif" font-size="10.00">+ CLIENT()</text>
<text text-anchor="start" x="8" y="-62.5" font-family="Helvetica,sans-Serif" font-size="10.00">+ ~CLIENT()</text>
<text text-anchor="start" x="8" y="-51.5" font-family="Helvetica,sans-Serif" font-size="10.00">+ connect()</text>
<text text-anchor="start" x="8" y="-40.5" font-family="Helvetica,sans-Serif" font-size="10.00">+ disconnect()</text>
<text text-anchor="start" x="8" y="-29.5" font-family="Helvetica,sans-Serif" font-size="10.00">+ download()</text>
<text text-anchor="start" x="8" y="-18.5" font-family="Helvetica,sans-Serif" font-size="10.00">+ upload()</text>
<text text-anchor="start" x="8" y="-7.5" font-family="Helvetica,sans-Serif" font-size="10.00">+ is_connected()</text>
</a>
</g>
</g>
<!-- Node2 -->
<g id="node2" class="node">
<title>Node2</title>
<g id="a_node2"><a xlink:href="class_s_o_c_k_b_a_s_e.html" target="_top" xlink:title="Klasa bazowa.">
<polygon fill="none" stroke="black" points="1.5,-160.5 1.5,-316.5 97.5,-316.5 97.5,-160.5 1.5,-160.5"/>
<text text-anchor="middle" x="49.5" y="-304.5" font-family="Helvetica,sans-Serif" font-size="10.00">SOCKBASE</text>
<polyline fill="none" stroke="black" points="1.5,-297.5 97.5,-297.5 "/>
<text text-anchor="start" x="9.5" y="-285.5" font-family="Helvetica,sans-Serif" font-size="10.00"># m_sock</text>
<text text-anchor="start" x="9.5" y="-274.5" font-family="Helvetica,sans-Serif" font-size="10.00"># m_buff</text>
<polyline fill="none" stroke="black" points="1.5,-267.5 97.5,-267.5 "/>
<text text-anchor="start" x="9.5" y="-255.5" font-family="Helvetica,sans-Serif" font-size="10.00">+ SOCKBASE()</text>
<text text-anchor="start" x="9.5" y="-244.5" font-family="Helvetica,sans-Serif" font-size="10.00">+ SOCKBASE()</text>
<text text-anchor="start" x="9.5" y="-233.5" font-family="Helvetica,sans-Serif" font-size="10.00">+ SOCKBASE()</text>
<text text-anchor="start" x="9.5" y="-222.5" font-family="Helvetica,sans-Serif" font-size="10.00">+ ~SOCKBASE()</text>
<text text-anchor="start" x="9.5" y="-211.5" font-family="Helvetica,sans-Serif" font-size="10.00">+ close()</text>
<text text-anchor="start" x="9.5" y="-200.5" font-family="Helvetica,sans-Serif" font-size="10.00">+ operator=()</text>
<text text-anchor="start" x="9.5" y="-189.5" font-family="Helvetica,sans-Serif" font-size="10.00">+ operator=()</text>
<text text-anchor="start" x="9.5" y="-178.5" font-family="Helvetica,sans-Serif" font-size="10.00"># send_all()</text>
<text text-anchor="start" x="9.5" y="-167.5" font-family="Helvetica,sans-Serif" font-size="10.00"># get_name()</text>
</a>
</g>
</g>
<!-- Node2&#45;&gt;Node1 -->
<g id="edge1" class="edge">
<title>Node2&#45;&gt;Node1</title>
<path fill="none" stroke="midnightblue" d="M49.5,-150.3C49.5,-141.29 49.5,-132.28 49.5,-123.65"/>
<polygon fill="none" stroke="midnightblue" points="46,-150.45 49.5,-160.45 53,-150.45 46,-150.45"/>
</g>
</g>
</svg>
