<?xml version="1.0" encoding="UTF-8" standalone="no"?>
<!DOCTYPE svg PUBLIC "-//W3C//DTD SVG 1.1//EN"
 "http://www.w3.org/Graphics/SVG/1.1/DTD/svg11.dtd">
<!-- Generated by graphviz version 2.43.0 (0)
 -->
<!-- Title: SOCKBASE::get_name Pages: 1 -->
<!--zoomable 161 -->
<svg id="main" version="1.1" xmlns="http://www.w3.org/2000/svg" xmlns:xlink="http://www.w3.org/1999/xlink" xml:space="preserve" onload="init(evt)">
<style type="text/css"><![CDATA[
.edge:hover path { stroke: red; }
.edge:hover polygon { stroke: red; fill: red; }
]]></style>
<script type="text/javascript"><![CDATA[
var edges = document.getElementsByTagName('g');
if (edges && edges.length) {
  for (var i=0;i<edges.length;i++) {
    if (edges[i].id.substr(0,4)=='edge') {
      edges[i].setAttribute('class','edge');
    }
  }
}
]]></script>
        <defs>
                <circle id="rim" cx="0" cy="0" r="7"/>
                <circle id="rim2" cx="0" cy="0" r="3.5"/>
                <g id="zoomPlus">
                        <use xlink:href="#rim" fill="#404040">
                                <set attributeName="fill" to="#808080" begin="zoomplus.mouseover" end="zoomplus.mouseout"/>
                        </use>
                        <path d="M-4,0h8M0,-4v8" fill="none" stroke="white" stroke-width="1.5" pointer-events="none"/>
                </g>
                <g id="zoomMin">
                        <use xlink:href="#rim" fill="#404040">
                                <set attributeName="fill" to="#808080" begin="zoomminus.mouseover" end="zoomminus.mouseout"/>
                        </use>
                        <path d="M-4,0h8" fill="none" stroke="white" stroke-width="1.5" pointer-events="none"/>
                </g>
                <g id="dirArrow">
                        <path fill="none" stroke="white" stroke-width="1.5" d="M0,-3.0v7 M-2.5,-0.5L0,-3.0L2.5,-0.5"/>
                </g>
               <g id="resetDef">
                       <use xlink:href="#rim2" fill="#404040">
                               <set attributeName="fill" to="#808080" begin="reset.mouseover" end="reset.mouseout"/>
                       </use>
               </g>
        </defs>

<script type="text/javascript">
var viewWidth = 655;
var viewHeight = 161;
var sectionId = 'dynsection-2';
</script>
<script xlink:href="svgpan.js"/>
<svg id="graph" class="graph">
<g id="viewport">
<title>SOCKBASE::get_name</title>
<!-- Node1 -->
<g id="node1" class="node">
<title>Node1</title>
<g id="a_node1"><a xlink:title="Pobranie nazwy hosta.">
<polygon fill="#bfbfbf" stroke="black" points="523,-95.5 523,-114.5 647,-114.5 647,-95.5 523,-95.5"/>
<text text-anchor="middle" x="585" y="-102.5" font-family="Helvetica,sans-Serif" font-size="10.00">SOCKBASE::get_name</text>
</a>
</g>
</g>
<!-- Node2 -->
<g id="node2" class="node">
<title>Node2</title>
<g id="a_node2"><a xlink:href="class_s_e_r_v_e_r.html#aa64d19c0d8277395ab290fab932ba202" target="_top" xlink:title="Obsługa nowego połączenia.">
<polygon fill="none" stroke="black" points="366.5,-133.5 366.5,-152.5 476.5,-152.5 476.5,-133.5 366.5,-133.5"/>
<text text-anchor="middle" x="421.5" y="-140.5" font-family="Helvetica,sans-Serif" font-size="10.00">SERVER::on_accept</text>
</a>
</g>
</g>
<!-- Node1&#45;&gt;Node2 -->
<g id="edge1" class="edge">
<title>Node1&#45;&gt;Node2</title>
<path fill="none" stroke="midnightblue" d="M533.44,-116.9C510.74,-122.24 484.32,-128.45 462.96,-133.48"/>
<polygon fill="midnightblue" stroke="midnightblue" points="534.31,-120.29 543.25,-114.59 532.71,-113.47 534.31,-120.29"/>
</g>
<!-- Node5 -->
<g id="node5" class="node">
<title>Node5</title>
<g id="a_node5"><a xlink:href="class_s_e_r_v_e_r.html#ac73fc3f88eef2b1f8eabdb1a2b33a99b" target="_top" xlink:title="Obsługa rozłączenia klienta.">
<polygon fill="none" stroke="black" points="356,-76.5 356,-95.5 487,-95.5 487,-76.5 356,-76.5"/>
<text text-anchor="middle" x="421.5" y="-83.5" font-family="Helvetica,sans-Serif" font-size="10.00">SERVER::on_disconnect</text>
</a>
</g>
</g>
<!-- Node1&#45;&gt;Node5 -->
<g id="edge4" class="edge">
<title>Node1&#45;&gt;Node5</title>
<path fill="none" stroke="midnightblue" d="M512.95,-96.64C504.37,-95.63 495.63,-94.6 487.14,-93.61"/>
<polygon fill="midnightblue" stroke="midnightblue" points="512.6,-100.12 522.94,-97.82 513.42,-93.17 512.6,-100.12"/>
</g>
<!-- Node3 -->
<g id="node3" class="node">
<title>Node3</title>
<g id="a_node3"><a xlink:href="class_s_e_r_v_e_r.html#ae5390a25208f81c139a73747374a02bf" target="_top" xlink:title="Pętla serwera.">
<polygon fill="none" stroke="black" points="77,-76.5 77,-95.5 159,-95.5 159,-76.5 77,-76.5"/>
<text text-anchor="middle" x="118" y="-83.5" font-family="Helvetica,sans-Serif" font-size="10.00">SERVER::loop</text>
</a>
</g>
</g>
<!-- Node2&#45;&gt;Node3 -->
<g id="edge2" class="edge">
<title>Node2&#45;&gt;Node3</title>
<path fill="none" stroke="midnightblue" d="M356.22,-142.4C310.54,-140.62 248.12,-135.38 195,-121 173.55,-115.19 150.59,-103.82 135.59,-95.62"/>
<polygon fill="midnightblue" stroke="midnightblue" points="356.17,-145.9 366.29,-142.75 356.41,-138.91 356.17,-145.9"/>
</g>
<!-- Node4 -->
<g id="node4" class="node">
<title>Node4</title>
<g id="a_node4"><a xlink:href="main__s_8cpp.html#a0ddf1224851353fc92bfbff6f499fa97" target="_top" xlink:title="Funkcja główna programu serwera.">
<polygon fill="none" stroke="black" points="0,-76.5 0,-95.5 41,-95.5 41,-76.5 0,-76.5"/>
<text text-anchor="middle" x="20.5" y="-83.5" font-family="Helvetica,sans-Serif" font-size="10.00">main</text>
</a>
</g>
</g>
<!-- Node3&#45;&gt;Node4 -->
<g id="edge3" class="edge">
<title>Node3&#45;&gt;Node4</title>
<path fill="none" stroke="midnightblue" d="M66.57,-86C57.52,-86 48.6,-86 41.11,-86"/>
<polygon fill="midnightblue" stroke="midnightblue" points="66.78,-89.5 76.78,-86 66.78,-82.5 66.78,-89.5"/>
</g>
<!-- Node5&#45;&gt;Node3 -->
<g id="edge5" class="edge">
<title>Node5&#45;&gt;Node3</title>
<path fill="none" stroke="midnightblue" d="M369.57,-97.54C353.77,-100.6 336.24,-103.48 320,-105 264.69,-110.18 250.14,-111.79 195,-105 179.88,-103.14 163.44,-99.27 149.74,-95.51"/>
<polygon fill="midnightblue" stroke="midnightblue" points="370.56,-100.91 379.67,-95.51 369.18,-94.05 370.56,-100.91"/>
</g>
<!-- Node6 -->
<g id="node6" class="node">
<title>Node6</title>
<g id="a_node6"><a xlink:href="class_s_e_r_v_e_r.html#aa64b01a309342860852be03efc4326eb" target="_top" xlink:title="Obsługa pobierania pliku.">
<polygon fill="none" stroke="black" points="195,-76.5 195,-95.5 320,-95.5 320,-76.5 195,-76.5"/>
<text text-anchor="middle" x="257.5" y="-83.5" font-family="Helvetica,sans-Serif" font-size="10.00">SERVER::on_download</text>
</a>
</g>
</g>
<!-- Node5&#45;&gt;Node6 -->
<g id="edge6" class="edge">
<title>Node5&#45;&gt;Node6</title>
<path fill="none" stroke="midnightblue" d="M345.3,-86C336.84,-86 328.31,-86 320.05,-86"/>
<polygon fill="midnightblue" stroke="midnightblue" points="345.54,-89.5 355.54,-86 345.54,-82.5 345.54,-89.5"/>
</g>
<!-- Node7 -->
<g id="node7" class="node">
<title>Node7</title>
<g id="a_node7"><a xlink:href="class_s_e_r_v_e_r.html#a99e0fdba8985163f446b50a4ce8211b1" target="_top" xlink:title="Obsługa nagłówka.">
<polygon fill="none" stroke="black" points="201.5,-38.5 201.5,-57.5 313.5,-57.5 313.5,-38.5 201.5,-38.5"/>
<text text-anchor="middle" x="257.5" y="-45.5" font-family="Helvetica,sans-Serif" font-size="10.00">SERVER::on_header</text>
</a>
</g>
</g>
<!-- Node5&#45;&gt;Node7 -->
<g id="edge8" class="edge">
<title>Node5&#45;&gt;Node7</title>
<path fill="none" stroke="midnightblue" d="M369.79,-74.1C347.01,-68.76 320.51,-62.55 299.09,-57.52"/>
<polygon fill="midnightblue" stroke="midnightblue" points="369.09,-77.53 379.62,-76.41 370.68,-70.72 369.09,-77.53"/>
</g>
<!-- Node8 -->
<g id="node8" class="node">
<title>Node8</title>
<g id="a_node8"><a xlink:href="class_s_e_r_v_e_r.html#acaf6a69143611b6467a236da1f56905f" target="_top" xlink:title="Obsługa wysyłania pliku.">
<polygon fill="none" stroke="black" points="202,-0.5 202,-19.5 313,-19.5 313,-0.5 202,-0.5"/>
<text text-anchor="middle" x="257.5" y="-7.5" font-family="Helvetica,sans-Serif" font-size="10.00">SERVER::on_upload</text>
</a>
</g>
</g>
<!-- Node5&#45;&gt;Node8 -->
<g id="edge10" class="edge">
<title>Node5&#45;&gt;Node8</title>
<path fill="none" stroke="midnightblue" d="M397.37,-70.97C377.46,-58.5 347.66,-40.95 320,-29 311.79,-25.45 302.71,-22.27 294.1,-19.57"/>
<polygon fill="midnightblue" stroke="midnightblue" points="395.71,-74.06 406.03,-76.46 399.46,-68.15 395.71,-74.06"/>
</g>
<!-- Node6&#45;&gt;Node3 -->
<g id="edge7" class="edge">
<title>Node6&#45;&gt;Node3</title>
<path fill="none" stroke="midnightblue" d="M184.98,-86C176.11,-86 167.3,-86 159.15,-86"/>
<polygon fill="midnightblue" stroke="midnightblue" points="184.99,-89.5 194.99,-86 184.99,-82.5 184.99,-89.5"/>
</g>
<!-- Node7&#45;&gt;Node3 -->
<g id="edge9" class="edge">
<title>Node7&#45;&gt;Node3</title>
<path fill="none" stroke="midnightblue" d="M211.93,-60.32C193.04,-65.54 171.35,-71.53 153.69,-76.41"/>
<polygon fill="midnightblue" stroke="midnightblue" points="213.1,-63.63 221.8,-57.59 211.23,-56.88 213.1,-63.63"/>
</g>
<!-- Node8&#45;&gt;Node3 -->
<g id="edge11" class="edge">
<title>Node8&#45;&gt;Node3</title>
<path fill="none" stroke="midnightblue" d="M208.62,-23C203.93,-24.8 199.32,-26.8 195,-29 169.43,-42.04 143.51,-63.68 129.53,-76.21"/>
<polygon fill="midnightblue" stroke="midnightblue" points="210.04,-26.21 218.29,-19.56 207.7,-19.61 210.04,-26.21"/>
</g>
</g>
</svg>
        <g id="navigator" transform="translate(0 0)" fill="#404254">
                <rect fill="#f2f5e9" fill-opacity="0.5" stroke="#606060" stroke-width=".5" x="0" y="0" width="60" height="60"/>
                <use id="zoomplus" xlink:href="#zoomPlus" x="17" y="9" onmousedown="handleZoom(evt,'in')"/>
                <use id="zoomminus" xlink:href="#zoomMin" x="42" y="9" onmousedown="handleZoom(evt,'out')"/>
                <use id="reset" xlink:href="#resetDef" x="30" y="36" onmousedown="handleReset()"/>
                <g id="arrowUp" xlink:href="#dirArrow" transform="translate(30 24)" onmousedown="handlePan(0,-1)">
                  <use xlink:href="#rim" fill="#404040">
                        <set attributeName="fill" to="#808080" begin="arrowUp.mouseover" end="arrowUp.mouseout"/>
                  </use>
                  <path fill="none" stroke="white" stroke-width="1.5" d="M0,-3.0v7 M-2.5,-0.5L0,-3.0L2.5,-0.5"/>
                </g>
                <g id="arrowRight" xlink:href="#dirArrow" transform="rotate(90) translate(36 -43)" onmousedown="handlePan(1,0)">
                  <use xlink:href="#rim" fill="#404040">
                        <set attributeName="fill" to="#808080" begin="arrowRight.mouseover" end="arrowRight.mouseout"/>
                  </use>
                  <path fill="none" stroke="white" stroke-width="1.5" d="M0,-3.0v7 M-2.5,-0.5L0,-3.0L2.5,-0.5"/>
                </g>
                <g id="arrowDown" xlink:href="#dirArrow" transform="rotate(180) translate(-30 -48)" onmousedown="handlePan(0,1)">
                  <use xlink:href="#rim" fill="#404040">
                        <set attributeName="fill" to="#808080" begin="arrowDown.mouseover" end="arrowDown.mouseout"/>
                  </use>
                  <path fill="none" stroke="white" stroke-width="1.5" d="M0,-3.0v7 M-2.5,-0.5L0,-3.0L2.5,-0.5"/>
                </g>
                <g id="arrowLeft" xlink:href="#dirArrow" transform="rotate(270) translate(-36 17)" onmousedown="handlePan(-1,0)">
                  <use xlink:href="#rim" fill="#404040">
                        <set attributeName="fill" to="#808080" begin="arrowLeft.mouseover" end="arrowLeft.mouseout"/>
                  </use>
                  <path fill="none" stroke="white" stroke-width="1.5" d="M0,-3.0v7 M-2.5,-0.5L0,-3.0L2.5,-0.5"/>
                </g>
        </g>
        <svg viewBox="0 0 15 15" width="100%" height="30px" preserveAspectRatio="xMaxYMin meet">
         <g id="arrow_out" transform="scale(0.3 0.3)">
          <a xlink:href="class_s_o_c_k_b_a_s_e_a1bed341ace5336a5cfa1683929a3f497_icgraph_org.svg" target="_base">
           <rect id="button" ry="5" rx="5" y="6" x="6" height="38" width="38"
                fill="#f2f5e9" fill-opacity="0.5" stroke="#606060" stroke-width="1.0"/>
           <path id="arrow"
             d="M 11.500037,31.436501 C 11.940474,20.09759 22.043105,11.32322 32.158766,21.979434 L 37.068811,17.246167 C 37.068811,17.246167 37.088388,32 37.088388,32 L 22.160133,31.978069 C 22.160133,31.978069 26.997745,27.140456 26.997745,27.140456 C 18.528582,18.264221 13.291696,25.230495 11.500037,31.436501 z"
             style="fill:#404040;"/>
          </a>
         </g>
        </svg>
</svg>
