<?xml version="1.0" encoding="UTF-8" standalone="no"?>
<!DOCTYPE svg PUBLIC "-//W3C//DTD SVG 1.1//EN"
 "http://www.w3.org/Graphics/SVG/1.1/DTD/svg11.dtd">
<!-- Generated by graphviz version 2.43.0 (0)
 -->
<!-- Title: Graficzna hierarchia klas Pages: 1 -->
<svg width="168pt" height="66pt"
 viewBox="0.00 0.00 168.00 66.00" xmlns="http://www.w3.org/2000/svg" xmlns:xlink="http://www.w3.org/1999/xlink">
<g id="graph0" class="graph" transform="scale(1 1) rotate(0) translate(4 62)">
<title>Graficzna hierarchia klas</title>
<!-- Node0 -->
<g id="node1" class="node">
<title>Node0</title>
<g id="a_node1"><a xlink:href="class_s_o_c_k_b_a_s_e.html" target="_top" xlink:title="Klasa bazowa.">
<polygon fill="none" stroke="black" points="0,-19.5 0,-38.5 69,-38.5 69,-19.5 0,-19.5"/>
<text text-anchor="middle" x="34.5" y="-26.5" font-family="Helvetica,sans-Serif" font-size="10.00">SOCKBASE</text>
</a>
</g>
</g>
<!-- Node1 -->
<g id="node2" class="node">
<title>Node1</title>
<g id="a_node2"><a xlink:href="class_c_l_i_e_n_t.html" target="_top" xlink:title="Klasa klienta.">
<polygon fill="none" stroke="black" points="107,-38.5 107,-57.5 158,-57.5 158,-38.5 107,-38.5"/>
<text text-anchor="middle" x="132.5" y="-45.5" font-family="Helvetica,sans-Serif" font-size="10.00">CLIENT</text>
</a>
</g>
</g>
<!-- Node0&#45;&gt;Node1 -->
<g id="edge1" class="edge">
<title>Node0&#45;&gt;Node1</title>
<path fill="none" stroke="midnightblue" d="M78.91,-37.59C88.5,-39.49 98.34,-41.44 106.87,-43.12"/>
<polygon fill="midnightblue" stroke="midnightblue" points="79.57,-34.15 69.08,-35.65 78.21,-41.02 79.57,-34.15"/>
</g>
<!-- Node2 -->
<g id="node3" class="node">
<title>Node2</title>
<g id="a_node3"><a xlink:href="class_s_e_r_v_e_r.html" target="_top" xlink:title="Klasa serwera.">
<polygon fill="none" stroke="black" points="105,-0.5 105,-19.5 160,-19.5 160,-0.5 105,-0.5"/>
<text text-anchor="middle" x="132.5" y="-7.5" font-family="Helvetica,sans-Serif" font-size="10.00">SERVER</text>
</a>
</g>
</g>
<!-- Node0&#45;&gt;Node2 -->
<g id="edge2" class="edge">
<title>Node0&#45;&gt;Node2</title>
<path fill="none" stroke="midnightblue" d="M79.16,-20.36C87.88,-18.63 96.8,-16.87 104.74,-15.3"/>
<polygon fill="midnightblue" stroke="midnightblue" points="78.21,-16.98 69.08,-22.35 79.57,-23.85 78.21,-16.98"/>
</g>
</g>
</svg>
