<?xml version="1.0" encoding="UTF-8" standalone="no"?>
<!DOCTYPE svg PUBLIC "-//W3C//DTD SVG 1.1//EN"
 "http://www.w3.org/Graphics/SVG/1.1/DTD/svg11.dtd">
<!-- Generated by graphviz version 2.43.0 (0)
 -->
<!-- Title: main Pages: 1 -->
<!--zoomable 256 -->
<svg id="main" version="1.1" xmlns="http://www.w3.org/2000/svg" xmlns:xlink="http://www.w3.org/1999/xlink" xml:space="preserve" onload="init(evt)">
<style type="text/css"><![CDATA[
.edge:hover path { stroke: red; }
.edge:hover polygon { stroke: red; fill: red; }
]]></style>
<script type="text/javascript"><![CDATA[
var edges = document.getElementsByTagName('g');
if (edges && edges.length) {
  for (var i=0;i<edges.length;i++) {
    if (edges[i].id.substr(0,4)=='edge') {
      edges[i].setAttribute('class','edge');
    }
  }
}
]]></script>
        <defs>
                <circle id="rim" cx="0" cy="0" r="7"/>
                <circle id="rim2" cx="0" cy="0" r="3.5"/>
                <g id="zoomPlus">
                        <use xlink:href="#rim" fill="#404040">
                                <set attributeName="fill" to="#808080" begin="zoomplus.mouseover" end="zoomplus.mouseout"/>
                        </use>
                        <path d="M-4,0h8M0,-4v8" fill="none" stroke="white" stroke-width="1.5" pointer-events="none"/>
                </g>
                <g id="zoomMin">
                        <use xlink:href="#rim" fill="#404040">
                                <set attributeName="fill" to="#808080" begin="zoomminus.mouseover" end="zoomminus.mouseout"/>
                        </use>
                        <path d="M-4,0h8" fill="none" stroke="white" stroke-width="1.5" pointer-events="none"/>
                </g>
                <g id="dirArrow">
                        <path fill="none" stroke="white" stroke-width="1.5" d="M0,-3.0v7 M-2.5,-0.5L0,-3.0L2.5,-0.5"/>
                </g>
               <g id="resetDef">
                       <use xlink:href="#rim2" fill="#404040">
                               <set attributeName="fill" to="#808080" begin="reset.mouseover" end="reset.mouseout"/>
                       </use>
               </g>
        </defs>

<script type="text/javascript">
var viewWidth = 656;
var viewHeight = 256;
var sectionId = 'dynsection-3';
</script>
<script xlink:href="svgpan.js"/>
<svg id="graph" class="graph">
<g id="viewport">
<title>main</title>
<!-- Node1 -->
<g id="node1" class="node">
<title>Node1</title>
<g id="a_node1"><a xlink:title="Funkcja główna programu serwera.">
<polygon fill="#bfbfbf" stroke="black" points="0,-114.5 0,-133.5 41,-133.5 41,-114.5 0,-114.5"/>
<text text-anchor="middle" x="20.5" y="-121.5" font-family="Helvetica,sans-Serif" font-size="10.00">main</text>
</a>
</g>
</g>
<!-- Node2 -->
<g id="node2" class="node">
<title>Node2</title>
<g id="a_node2"><a xlink:href="main__s_8cpp.html#a08c3b0d52d0d97a0c49f13f40d2c5653" target="_top" xlink:title="Funkcja obsługująca sygnały.">
<polygon fill="none" stroke="black" points="92,-190.5 92,-209.5 145,-209.5 145,-190.5 92,-190.5"/>
<text text-anchor="middle" x="118.5" y="-197.5" font-family="Helvetica,sans-Serif" font-size="10.00">handler</text>
</a>
</g>
</g>
<!-- Node1&#45;&gt;Node2 -->
<g id="edge1" class="edge">
<title>Node1&#45;&gt;Node2</title>
<path fill="none" stroke="midnightblue" d="M33.66,-133.63C49.74,-146.36 78.31,-168.97 97.57,-184.22"/>
<polygon fill="midnightblue" stroke="midnightblue" points="95.43,-186.99 105.44,-190.45 99.77,-181.5 95.43,-186.99"/>
</g>
<!-- Node4 -->
<g id="node4" class="node">
<title>Node4</title>
<g id="a_node4"><a xlink:href="class_s_e_r_v_e_r.html#ae5390a25208f81c139a73747374a02bf" target="_top" xlink:title="Pętla serwera.">
<polygon fill="none" stroke="black" points="77.5,-114.5 77.5,-133.5 159.5,-133.5 159.5,-114.5 77.5,-114.5"/>
<text text-anchor="middle" x="118.5" y="-121.5" font-family="Helvetica,sans-Serif" font-size="10.00">SERVER::loop</text>
</a>
</g>
</g>
<!-- Node1&#45;&gt;Node4 -->
<g id="edge3" class="edge">
<title>Node1&#45;&gt;Node4</title>
<path fill="none" stroke="midnightblue" d="M41.39,-124C49.05,-124 58.19,-124 67.43,-124"/>
<polygon fill="midnightblue" stroke="midnightblue" points="67.44,-127.5 77.44,-124 67.44,-120.5 67.44,-127.5"/>
</g>
<!-- Node11 -->
<g id="node11" class="node">
<title>Node11</title>
<g id="a_node11"><a xlink:href="class_s_e_r_v_e_r.html#a178595d3078b6b04f910e7469e5095d5" target="_top" xlink:title="Inicjacja serwera.">
<polygon fill="none" stroke="black" points="77,-38.5 77,-57.5 160,-57.5 160,-38.5 77,-38.5"/>
<text text-anchor="middle" x="118.5" y="-45.5" font-family="Helvetica,sans-Serif" font-size="10.00">SERVER::start</text>
</a>
</g>
</g>
<!-- Node1&#45;&gt;Node11 -->
<g id="edge14" class="edge">
<title>Node1&#45;&gt;Node11</title>
<path fill="none" stroke="midnightblue" d="M33.66,-114.37C49.74,-101.64 78.31,-79.03 97.57,-63.78"/>
<polygon fill="midnightblue" stroke="midnightblue" points="99.77,-66.5 105.44,-57.55 95.43,-61.01 99.77,-66.5"/>
</g>
<!-- Node3 -->
<g id="node3" class="node">
<title>Node3</title>
<g id="a_node3"><a xlink:href="class_s_e_r_v_e_r.html#ae580f09ceadac508da2c73d7b0edd3da" target="_top" xlink:title="Zatrzymuje serwer.">
<polygon fill="none" stroke="black" points="219,-228.5 219,-247.5 298,-247.5 298,-228.5 219,-228.5"/>
<text text-anchor="middle" x="258.5" y="-235.5" font-family="Helvetica,sans-Serif" font-size="10.00">SERVER::end</text>
</a>
</g>
</g>
<!-- Node2&#45;&gt;Node3 -->
<g id="edge2" class="edge">
<title>Node2&#45;&gt;Node3</title>
<path fill="none" stroke="midnightblue" d="M145.13,-207.06C164.21,-212.31 190.73,-219.61 213.22,-225.81"/>
<polygon fill="midnightblue" stroke="midnightblue" points="212.33,-229.19 222.9,-228.47 214.18,-222.44 212.33,-229.19"/>
</g>
<!-- Node5 -->
<g id="node5" class="node">
<title>Node5</title>
<g id="a_node5"><a xlink:href="class_s_e_r_v_e_r.html#aa64d19c0d8277395ab290fab932ba202" target="_top" xlink:title="Obsługa nowego połączenia.">
<polygon fill="none" stroke="black" points="367.5,-171.5 367.5,-190.5 477.5,-190.5 477.5,-171.5 367.5,-171.5"/>
<text text-anchor="middle" x="422.5" y="-178.5" font-family="Helvetica,sans-Serif" font-size="10.00">SERVER::on_accept</text>
</a>
</g>
</g>
<!-- Node4&#45;&gt;Node5 -->
<g id="edge4" class="edge">
<title>Node4&#45;&gt;Node5</title>
<path fill="none" stroke="midnightblue" d="M136.21,-133.62C151.31,-141.82 174.42,-153.19 196,-159 249.14,-173.32 311.56,-178.56 357.23,-180.36"/>
<polygon fill="midnightblue" stroke="midnightblue" points="357.18,-183.86 367.3,-180.72 357.43,-176.87 357.18,-183.86"/>
</g>
<!-- Node7 -->
<g id="node7" class="node">
<title>Node7</title>
<g id="a_node7"><a xlink:href="class_s_e_r_v_e_r.html#ac73fc3f88eef2b1f8eabdb1a2b33a99b" target="_top" xlink:title="Obsługa rozłączenia klienta.">
<polygon fill="none" stroke="black" points="357,-114.5 357,-133.5 488,-133.5 488,-114.5 357,-114.5"/>
<text text-anchor="middle" x="422.5" y="-121.5" font-family="Helvetica,sans-Serif" font-size="10.00">SERVER::on_disconnect</text>
</a>
</g>
</g>
<!-- Node4&#45;&gt;Node7 -->
<g id="edge6" class="edge">
<title>Node4&#45;&gt;Node7</title>
<path fill="none" stroke="midnightblue" d="M150.44,-133.51C164.24,-137.27 180.79,-141.14 196,-143 251.14,-149.75 265.69,-148.18 321,-143 337.24,-141.48 354.77,-138.6 370.57,-135.54"/>
<polygon fill="midnightblue" stroke="midnightblue" points="371.56,-138.91 380.67,-133.51 370.18,-132.05 371.56,-138.91"/>
</g>
<!-- Node8 -->
<g id="node8" class="node">
<title>Node8</title>
<g id="a_node8"><a xlink:href="class_s_e_r_v_e_r.html#aa64b01a309342860852be03efc4326eb" target="_top" xlink:title="Obsługa pobierania pliku.">
<polygon fill="none" stroke="black" points="196,-114.5 196,-133.5 321,-133.5 321,-114.5 196,-114.5"/>
<text text-anchor="middle" x="258.5" y="-121.5" font-family="Helvetica,sans-Serif" font-size="10.00">SERVER::on_download</text>
</a>
</g>
</g>
<!-- Node4&#45;&gt;Node8 -->
<g id="edge8" class="edge">
<title>Node4&#45;&gt;Node8</title>
<path fill="none" stroke="midnightblue" d="M159.79,-124C167.99,-124 176.86,-124 185.79,-124"/>
<polygon fill="midnightblue" stroke="midnightblue" points="185.86,-127.5 195.86,-124 185.86,-120.5 185.86,-127.5"/>
</g>
<!-- Node9 -->
<g id="node9" class="node">
<title>Node9</title>
<g id="a_node9"><a xlink:href="class_s_e_r_v_e_r.html#a99e0fdba8985163f446b50a4ce8211b1" target="_top" xlink:title="Obsługa nagłówka.">
<polygon fill="none" stroke="black" points="202.5,-76.5 202.5,-95.5 314.5,-95.5 314.5,-76.5 202.5,-76.5"/>
<text text-anchor="middle" x="258.5" y="-83.5" font-family="Helvetica,sans-Serif" font-size="10.00">SERVER::on_header</text>
</a>
</g>
</g>
<!-- Node4&#45;&gt;Node9 -->
<g id="edge10" class="edge">
<title>Node4&#45;&gt;Node9</title>
<path fill="none" stroke="midnightblue" d="M154.32,-114.41C172.14,-109.51 194.02,-103.48 213.04,-98.24"/>
<polygon fill="midnightblue" stroke="midnightblue" points="213.98,-101.62 222.69,-95.59 212.12,-94.87 213.98,-101.62"/>
</g>
<!-- Node10 -->
<g id="node10" class="node">
<title>Node10</title>
<g id="a_node10"><a xlink:href="class_s_e_r_v_e_r.html#acaf6a69143611b6467a236da1f56905f" target="_top" xlink:title="Obsługa wysyłania pliku.">
<polygon fill="none" stroke="black" points="203,-38.5 203,-57.5 314,-57.5 314,-38.5 203,-38.5"/>
<text text-anchor="middle" x="258.5" y="-45.5" font-family="Helvetica,sans-Serif" font-size="10.00">SERVER::on_upload</text>
</a>
</g>
</g>
<!-- Node4&#45;&gt;Node10 -->
<g id="edge12" class="edge">
<title>Node4&#45;&gt;Node10</title>
<path fill="none" stroke="midnightblue" d="M130.11,-114.22C144.2,-101.69 170.31,-80.05 196,-67 200.32,-64.81 204.94,-62.81 209.63,-61.01"/>
<polygon fill="midnightblue" stroke="midnightblue" points="211.04,-64.22 219.3,-57.58 208.71,-57.62 211.04,-64.22"/>
</g>
<!-- Node6 -->
<g id="node6" class="node">
<title>Node6</title>
<g id="a_node6"><a xlink:href="class_s_o_c_k_b_a_s_e.html#a1bed341ace5336a5cfa1683929a3f497" target="_top" xlink:title="Pobranie nazwy hosta.">
<polygon fill="none" stroke="black" points="524,-142.5 524,-161.5 648,-161.5 648,-142.5 524,-142.5"/>
<text text-anchor="middle" x="586" y="-149.5" font-family="Helvetica,sans-Serif" font-size="10.00">SOCKBASE::get_name</text>
</a>
</g>
</g>
<!-- Node5&#45;&gt;Node6 -->
<g id="edge5" class="edge">
<title>Node5&#45;&gt;Node6</title>
<path fill="none" stroke="midnightblue" d="M476.83,-171.42C491.24,-168.84 506.97,-166.01 521.86,-163.34"/>
<polygon fill="midnightblue" stroke="midnightblue" points="522.78,-166.73 532,-161.52 521.54,-159.84 522.78,-166.73"/>
</g>
<!-- Node7&#45;&gt;Node6 -->
<g id="edge7" class="edge">
<title>Node7&#45;&gt;Node6</title>
<path fill="none" stroke="midnightblue" d="M478.63,-133.56C492.01,-135.88 506.44,-138.38 520.22,-140.77"/>
<polygon fill="midnightblue" stroke="midnightblue" points="519.67,-144.23 530.12,-142.49 520.87,-137.33 519.67,-144.23"/>
</g>
<!-- Node8&#45;&gt;Node7 -->
<g id="edge9" class="edge">
<title>Node8&#45;&gt;Node7</title>
<path fill="none" stroke="midnightblue" d="M321.21,-124C329.47,-124 338.02,-124 346.48,-124"/>
<polygon fill="midnightblue" stroke="midnightblue" points="346.73,-127.5 356.73,-124 346.73,-120.5 346.73,-127.5"/>
</g>
<!-- Node9&#45;&gt;Node7 -->
<g id="edge11" class="edge">
<title>Node9&#45;&gt;Node7</title>
<path fill="none" stroke="midnightblue" d="M300.38,-95.59C321.85,-100.63 348.36,-106.84 371.1,-112.18"/>
<polygon fill="midnightblue" stroke="midnightblue" points="370.38,-115.6 380.91,-114.48 371.98,-108.79 370.38,-115.6"/>
</g>
<!-- Node10&#45;&gt;Node7 -->
<g id="edge13" class="edge">
<title>Node10&#45;&gt;Node7</title>
<path fill="none" stroke="midnightblue" d="M295.1,-57.57C303.71,-60.27 312.79,-63.45 321,-67 348.66,-78.95 378.46,-96.5 398.37,-108.97"/>
<polygon fill="midnightblue" stroke="midnightblue" points="396.71,-112.06 407.03,-114.46 400.46,-106.15 396.71,-112.06"/>
</g>
<!-- Node12 -->
<g id="node12" class="node">
<title>Node12</title>
<g id="a_node12"><a xlink:href="class_s_e_r_v_e_r.html#ad4f09adc16c4b5a7b9126e8741af9a08" target="_top" xlink:title="Zatrzymuje serwer.">
<polygon fill="none" stroke="black" points="217.5,-0.5 217.5,-19.5 299.5,-19.5 299.5,-0.5 217.5,-0.5"/>
<text text-anchor="middle" x="258.5" y="-7.5" font-family="Helvetica,sans-Serif" font-size="10.00">SERVER::stop</text>
</a>
</g>
</g>
<!-- Node11&#45;&gt;Node12 -->
<g id="edge15" class="edge">
<title>Node11&#45;&gt;Node12</title>
<path fill="none" stroke="midnightblue" d="M154.32,-38.41C172.14,-33.51 194.02,-27.48 213.04,-22.24"/>
<polygon fill="midnightblue" stroke="midnightblue" points="213.98,-25.62 222.69,-19.59 212.12,-18.87 213.98,-25.62"/>
</g>
<!-- Node13 -->
<g id="node13" class="node">
<title>Node13</title>
<g id="a_node13"><a xlink:href="class_s_o_c_k_b_a_s_e.html#a188bbebe9b3f5ec16b0304b512da7c0f" target="_top" xlink:title="Zamyka gniazdo.">
<polygon fill="none" stroke="black" points="372,-0.5 372,-19.5 473,-19.5 473,-0.5 372,-0.5"/>
<text text-anchor="middle" x="422.5" y="-7.5" font-family="Helvetica,sans-Serif" font-size="10.00">SOCKBASE::close</text>
</a>
</g>
</g>
<!-- Node12&#45;&gt;Node13 -->
<g id="edge16" class="edge">
<title>Node12&#45;&gt;Node13</title>
<path fill="none" stroke="midnightblue" d="M299.54,-10C318.22,-10 340.84,-10 361.5,-10"/>
<polygon fill="midnightblue" stroke="midnightblue" points="361.77,-13.5 371.77,-10 361.77,-6.5 361.77,-13.5"/>
</g>
</g>
</svg>
        <g id="navigator" transform="translate(0 0)" fill="#404254">
                <rect fill="#f2f5e9" fill-opacity="0.5" stroke="#606060" stroke-width=".5" x="0" y="0" width="60" height="60"/>
                <use id="zoomplus" xlink:href="#zoomPlus" x="17" y="9" onmousedown="handleZoom(evt,'in')"/>
                <use id="zoomminus" xlink:href="#zoomMin" x="42" y="9" onmousedown="handleZoom(evt,'out')"/>
                <use id="reset" xlink:href="#resetDef" x="30" y="36" onmousedown="handleReset()"/>
                <g id="arrowUp" xlink:href="#dirArrow" transform="translate(30 24)" onmousedown="handlePan(0,-1)">
                  <use xlink:href="#rim" fill="#404040">
                        <set attributeName="fill" to="#808080" begin="arrowUp.mouseover" end="arrowUp.mouseout"/>
                  </use>
                  <path fill="none" stroke="white" stroke-width="1.5" d="M0,-3.0v7 M-2.5,-0.5L0,-3.0L2.5,-0.5"/>
                </g>
                <g id="arrowRight" xlink:href="#dirArrow" transform="rotate(90) translate(36 -43)" onmousedown="handlePan(1,0)">
                  <use xlink:href="#rim" fill="#404040">
                        <set attributeName="fill" to="#808080" begin="arrowRight.mouseover" end="arrowRight.mouseout"/>
                  </use>
                  <path fill="none" stroke="white" stroke-width="1.5" d="M0,-3.0v7 M-2.5,-0.5L0,-3.0L2.5,-0.5"/>
                </g>
                <g id="arrowDown" xlink:href="#dirArrow" transform="rotate(180) translate(-30 -48)" onmousedown="handlePan(0,1)">
                  <use xlink:href="#rim" fill="#404040">
                        <set attributeName="fill" to="#808080" begin="arrowDown.mouseover" end="arrowDown.mouseout"/>
                  </use>
                  <path fill="none" stroke="white" stroke-width="1.5" d="M0,-3.0v7 M-2.5,-0.5L0,-3.0L2.5,-0.5"/>
                </g>
                <g id="arrowLeft" xlink:href="#dirArrow" transform="rotate(270) translate(-36 17)" onmousedown="handlePan(-1,0)">
                  <use xlink:href="#rim" fill="#404040">
                        <set attributeName="fill" to="#808080" begin="arrowLeft.mouseover" end="arrowLeft.mouseout"/>
                  </use>
                  <path fill="none" stroke="white" stroke-width="1.5" d="M0,-3.0v7 M-2.5,-0.5L0,-3.0L2.5,-0.5"/>
                </g>
        </g>
        <svg viewBox="0 0 15 15" width="100%" height="30px" preserveAspectRatio="xMaxYMin meet">
         <g id="arrow_out" transform="scale(0.3 0.3)">
          <a xlink:href="main__s_8cpp_a0ddf1224851353fc92bfbff6f499fa97_cgraph_org.svg" target="_base">
           <rect id="button" ry="5" rx="5" y="6" x="6" height="38" width="38"
                fill="#f2f5e9" fill-opacity="0.5" stroke="#606060" stroke-width="1.0"/>
           <path id="arrow"
             d="M 11.500037,31.436501 C 11.940474,20.09759 22.043105,11.32322 32.158766,21.979434 L 37.068811,17.246167 C 37.068811,17.246167 37.088388,32 37.088388,32 L 22.160133,31.978069 C 22.160133,31.978069 26.997745,27.140456 26.997745,27.140456 C 18.528582,18.264221 13.291696,25.230495 11.500037,31.436501 z"
             style="fill:#404040;"/>
          </a>
         </g>
        </svg>
</svg>
