<?xml version="1.0" encoding="UTF-8" standalone="no"?>
<!DOCTYPE svg PUBLIC "-//W3C//DTD SVG 1.1//EN"
 "http://www.w3.org/Graphics/SVG/1.1/DTD/svg11.dtd">
<!-- Generated by graphviz version 2.43.0 (0)
 -->
<!-- Title: main Pages: 1 -->
<svg width="478pt" height="122pt"
 viewBox="0.00 0.00 478.00 122.00" xmlns="http://www.w3.org/2000/svg" xmlns:xlink="http://www.w3.org/1999/xlink">
<g id="graph0" class="graph" transform="scale(1 1) rotate(0) translate(4 118)">
<title>main</title>
<!-- Node1 -->
<g id="node1" class="node">
<title>Node1</title>
<g id="a_node1"><a xlink:title="Funkcja główna programu klienta.">
<polygon fill="#bfbfbf" stroke="black" points="0,-38.5 0,-57.5 41,-57.5 41,-38.5 0,-38.5"/>
<text text-anchor="middle" x="20.5" y="-45.5" font-family="Helvetica,sans-Serif" font-size="10.00">main</text>
</a>
</g>
</g>
<!-- Node2 -->
<g id="node2" class="node">
<title>Node2</title>
<g id="a_node2"><a xlink:href="class_c_l_i_e_n_t.html#a783756fadeb1f24218acdee54bfb7b4a" target="_top" xlink:title="Inicjacja połączenia.">
<polygon fill="none" stroke="black" points="81.5,-76.5 81.5,-95.5 176.5,-95.5 176.5,-76.5 81.5,-76.5"/>
<text text-anchor="middle" x="129" y="-83.5" font-family="Helvetica,sans-Serif" font-size="10.00">CLIENT::connect</text>
</a>
</g>
</g>
<!-- Node1&#45;&gt;Node2 -->
<g id="edge1" class="edge">
<title>Node1&#45;&gt;Node2</title>
<path fill="none" stroke="midnightblue" d="M41.03,-54.97C55.19,-60.02 74.75,-67 91.73,-73.06"/>
<polygon fill="midnightblue" stroke="midnightblue" points="90.78,-76.43 101.37,-76.5 93.13,-69.84 90.78,-76.43"/>
</g>
<!-- Node5 -->
<g id="node5" class="node">
<title>Node5</title>
<g id="a_node5"><a xlink:href="class_c_l_i_e_n_t.html#ad348ac551652139ec10b8598f72527c1" target="_top" xlink:title="Pobieranie pliku.">
<polygon fill="none" stroke="black" points="77,-0.5 77,-19.5 181,-19.5 181,-0.5 77,-0.5"/>
<text text-anchor="middle" x="129" y="-7.5" font-family="Helvetica,sans-Serif" font-size="10.00">CLIENT::download</text>
</a>
</g>
</g>
<!-- Node1&#45;&gt;Node5 -->
<g id="edge7" class="edge">
<title>Node1&#45;&gt;Node5</title>
<path fill="none" stroke="midnightblue" d="M41.03,-41.03C55.19,-35.98 74.75,-29 91.73,-22.94"/>
<polygon fill="midnightblue" stroke="midnightblue" points="93.13,-26.16 101.37,-19.5 90.78,-19.57 93.13,-26.16"/>
</g>
<!-- Node7 -->
<g id="node7" class="node">
<title>Node7</title>
<g id="a_node7"><a xlink:href="class_c_l_i_e_n_t.html#a83c83556e186942b8d9c8b812a295454" target="_top" xlink:title="Wysyłanie pliku.">
<polygon fill="none" stroke="black" points="84.5,-38.5 84.5,-57.5 173.5,-57.5 173.5,-38.5 84.5,-38.5"/>
<text text-anchor="middle" x="129" y="-45.5" font-family="Helvetica,sans-Serif" font-size="10.00">CLIENT::upload</text>
</a>
</g>
</g>
<!-- Node1&#45;&gt;Node7 -->
<g id="edge10" class="edge">
<title>Node1&#45;&gt;Node7</title>
<path fill="none" stroke="midnightblue" d="M41.03,-48C50.42,-48 62.17,-48 73.97,-48"/>
<polygon fill="midnightblue" stroke="midnightblue" points="74.3,-51.5 84.3,-48 74.3,-44.5 74.3,-51.5"/>
</g>
<!-- Node2&#45;&gt;Node2 -->
<g id="edge4" class="edge">
<title>Node2&#45;&gt;Node2</title>
<path fill="none" stroke="midnightblue" d="M112.35,-95.76C104.26,-104.57 109.8,-114 129,-114 141,-114 147.66,-110.31 149,-105.4"/>
<polygon fill="midnightblue" stroke="midnightblue" points="152.24,-104.05 145.65,-95.76 145.62,-106.35 152.24,-104.05"/>
</g>
<!-- Node3 -->
<g id="node3" class="node">
<title>Node3</title>
<g id="a_node3"><a xlink:href="class_s_o_c_k_b_a_s_e.html#a188bbebe9b3f5ec16b0304b512da7c0f" target="_top" xlink:title="Zamyka gniazdo.">
<polygon fill="none" stroke="black" points="369,-57.5 369,-76.5 470,-76.5 470,-57.5 369,-57.5"/>
<text text-anchor="middle" x="419.5" y="-64.5" font-family="Helvetica,sans-Serif" font-size="10.00">SOCKBASE::close</text>
</a>
</g>
</g>
<!-- Node2&#45;&gt;Node3 -->
<g id="edge2" class="edge">
<title>Node2&#45;&gt;Node3</title>
<path fill="none" stroke="midnightblue" d="M176.67,-82.93C226.26,-79.66 304.82,-74.49 358.86,-70.93"/>
<polygon fill="midnightblue" stroke="midnightblue" points="359.24,-74.41 368.99,-70.26 358.78,-67.43 359.24,-74.41"/>
</g>
<!-- Node4 -->
<g id="node4" class="node">
<title>Node4</title>
<g id="a_node4"><a xlink:href="class_c_l_i_e_n_t.html#a13a0cbc78ae543e0f6965a9c896b9562" target="_top" xlink:title="Zamyka połączenie.">
<polygon fill="none" stroke="black" points="220.5,-38.5 220.5,-57.5 329.5,-57.5 329.5,-38.5 220.5,-38.5"/>
<text text-anchor="middle" x="275" y="-45.5" font-family="Helvetica,sans-Serif" font-size="10.00">CLIENT::disconnect</text>
</a>
</g>
</g>
<!-- Node2&#45;&gt;Node4 -->
<g id="edge5" class="edge">
<title>Node2&#45;&gt;Node4</title>
<path fill="none" stroke="midnightblue" d="M166.34,-76.41C185.08,-71.46 208.14,-65.38 228.11,-60.11"/>
<polygon fill="midnightblue" stroke="midnightblue" points="229.15,-63.46 237.92,-57.52 227.36,-56.69 229.15,-63.46"/>
</g>
<!-- Node3&#45;&gt;Node3 -->
<g id="edge3" class="edge">
<title>Node3&#45;&gt;Node3</title>
<path fill="none" stroke="midnightblue" d="M397.31,-76.76C386.51,-85.57 393.91,-95 419.5,-95 436.3,-95 445.26,-90.94 446.38,-85.65"/>
<polygon fill="midnightblue" stroke="midnightblue" points="449.45,-83.97 441.69,-76.76 443.26,-87.24 449.45,-83.97"/>
</g>
<!-- Node4&#45;&gt;Node3 -->
<g id="edge6" class="edge">
<title>Node4&#45;&gt;Node3</title>
<path fill="none" stroke="midnightblue" d="M329.87,-55.18C339.25,-56.43 349.05,-57.74 358.58,-59.01"/>
<polygon fill="midnightblue" stroke="midnightblue" points="358.4,-62.52 368.78,-60.37 359.33,-55.58 358.4,-62.52"/>
</g>
<!-- Node5&#45;&gt;Node4 -->
<g id="edge8" class="edge">
<title>Node5&#45;&gt;Node4</title>
<path fill="none" stroke="midnightblue" d="M166.34,-19.59C185.08,-24.54 208.14,-30.62 228.11,-35.89"/>
<polygon fill="midnightblue" stroke="midnightblue" points="227.36,-39.31 237.92,-38.48 229.15,-32.54 227.36,-39.31"/>
</g>
<!-- Node6 -->
<g id="node6" class="node">
<title>Node6</title>
<g id="a_node6"><a xlink:href="class_s_o_c_k_b_a_s_e.html#aefa554c9927511c17d7319e0c9a73291" target="_top" xlink:title="Wysyłanie danych.">
<polygon fill="none" stroke="black" points="217,-0.5 217,-19.5 333,-19.5 333,-0.5 217,-0.5"/>
<text text-anchor="middle" x="275" y="-7.5" font-family="Helvetica,sans-Serif" font-size="10.00">SOCKBASE::send_all</text>
</a>
</g>
</g>
<!-- Node5&#45;&gt;Node6 -->
<g id="edge9" class="edge">
<title>Node5&#45;&gt;Node6</title>
<path fill="none" stroke="midnightblue" d="M181.17,-10C189.34,-10 197.89,-10 206.36,-10"/>
<polygon fill="midnightblue" stroke="midnightblue" points="206.62,-13.5 216.62,-10 206.62,-6.5 206.62,-13.5"/>
</g>
<!-- Node7&#45;&gt;Node4 -->
<g id="edge11" class="edge">
<title>Node7&#45;&gt;Node4</title>
<path fill="none" stroke="midnightblue" d="M173.6,-48C185.11,-48 197.77,-48 210.12,-48"/>
<polygon fill="midnightblue" stroke="midnightblue" points="210.37,-51.5 220.37,-48 210.37,-44.5 210.37,-51.5"/>
</g>
<!-- Node7&#45;&gt;Node6 -->
<g id="edge12" class="edge">
<title>Node7&#45;&gt;Node6</title>
<path fill="none" stroke="midnightblue" d="M166.34,-38.41C185.08,-33.46 208.14,-27.38 228.11,-22.11"/>
<polygon fill="midnightblue" stroke="midnightblue" points="229.15,-25.46 237.92,-19.52 227.36,-18.69 229.15,-25.46"/>
</g>
</g>
</svg>
