<?xml version="1.0" encoding="UTF-8" standalone="no"?>
<!DOCTYPE svg PUBLIC "-//W3C//DTD SVG 1.1//EN"
 "http://www.w3.org/Graphics/SVG/1.1/DTD/svg11.dtd">
<!-- Generated by graphviz version 2.43.0 (0)
 -->
<!-- Title: main Pages: 1 -->
<svg width="656pt" height="256pt"
 viewBox="0.00 0.00 656.00 256.00" xmlns="http://www.w3.org/2000/svg" xmlns:xlink="http://www.w3.org/1999/xlink">
<g id="graph0" class="graph" transform="scale(1 1) rotate(0) translate(4 252)">
<title>main</title>
<!-- Node1 -->
<g id="node1" class="node">
<title>Node1</title>
<g id="a_node1"><a xlink:title="Funkcja główna programu serwera.">
<polygon fill="#bfbfbf" stroke="black" points="0,-114.5 0,-133.5 41,-133.5 41,-114.5 0,-114.5"/>
<text text-anchor="middle" x="20.5" y="-121.5" font-family="Helvetica,sans-Serif" font-size="10.00">main</text>
</a>
</g>
</g>
<!-- Node2 -->
<g id="node2" class="node">
<title>Node2</title>
<g id="a_node2"><a xlink:href="main__s_8cpp.html#a08c3b0d52d0d97a0c49f13f40d2c5653" target="_top" xlink:title="Funkcja obsługująca sygnały.">
<polygon fill="none" stroke="black" points="92,-190.5 92,-209.5 145,-209.5 145,-190.5 92,-190.5"/>
<text text-anchor="middle" x="118.5" y="-197.5" font-family="Helvetica,sans-Serif" font-size="10.00">handler</text>
</a>
</g>
</g>
<!-- Node1&#45;&gt;Node2 -->
<g id="edge1" class="edge">
<title>Node1&#45;&gt;Node2</title>
<path fill="none" stroke="midnightblue" d="M33.66,-133.63C49.74,-146.36 78.31,-168.97 97.57,-184.22"/>
<polygon fill="midnightblue" stroke="midnightblue" points="95.43,-186.99 105.44,-190.45 99.77,-181.5 95.43,-186.99"/>
</g>
<!-- Node4 -->
<g id="node4" class="node">
<title>Node4</title>
<g id="a_node4"><a xlink:href="class_s_e_r_v_e_r.html#ae5390a25208f81c139a73747374a02bf" target="_top" xlink:title="Pętla serwera.">
<polygon fill="none" stroke="black" points="77.5,-114.5 77.5,-133.5 159.5,-133.5 159.5,-114.5 77.5,-114.5"/>
<text text-anchor="middle" x="118.5" y="-121.5" font-family="Helvetica,sans-Serif" font-size="10.00">SERVER::loop</text>
</a>
</g>
</g>
<!-- Node1&#45;&gt;Node4 -->
<g id="edge3" class="edge">
<title>Node1&#45;&gt;Node4</title>
<path fill="none" stroke="midnightblue" d="M41.39,-124C49.05,-124 58.19,-124 67.43,-124"/>
<polygon fill="midnightblue" stroke="midnightblue" points="67.44,-127.5 77.44,-124 67.44,-120.5 67.44,-127.5"/>
</g>
<!-- Node11 -->
<g id="node11" class="node">
<title>Node11</title>
<g id="a_node11"><a xlink:href="class_s_e_r_v_e_r.html#a178595d3078b6b04f910e7469e5095d5" target="_top" xlink:title="Inicjacja serwera.">
<polygon fill="none" stroke="black" points="77,-38.5 77,-57.5 160,-57.5 160,-38.5 77,-38.5"/>
<text text-anchor="middle" x="118.5" y="-45.5" font-family="Helvetica,sans-Serif" font-size="10.00">SERVER::start</text>
</a>
</g>
</g>
<!-- Node1&#45;&gt;Node11 -->
<g id="edge14" class="edge">
<title>Node1&#45;&gt;Node11</title>
<path fill="none" stroke="midnightblue" d="M33.66,-114.37C49.74,-101.64 78.31,-79.03 97.57,-63.78"/>
<polygon fill="midnightblue" stroke="midnightblue" points="99.77,-66.5 105.44,-57.55 95.43,-61.01 99.77,-66.5"/>
</g>
<!-- Node3 -->
<g id="node3" class="node">
<title>Node3</title>
<g id="a_node3"><a xlink:href="class_s_e_r_v_e_r.html#ae580f09ceadac508da2c73d7b0edd3da" target="_top" xlink:title="Zatrzymuje serwer.">
<polygon fill="none" stroke="black" points="219,-228.5 219,-247.5 298,-247.5 298,-228.5 219,-228.5"/>
<text text-anchor="middle" x="258.5" y="-235.5" font-family="Helvetica,sans-Serif" font-size="10.00">SERVER::end</text>
</a>
</g>
</g>
<!-- Node2&#45;&gt;Node3 -->
<g id="edge2" class="edge">
<title>Node2&#45;&gt;Node3</title>
<path fill="none" stroke="midnightblue" d="M145.13,-207.06C164.21,-212.31 190.73,-219.61 213.22,-225.81"/>
<polygon fill="midnightblue" stroke="midnightblue" points="212.33,-229.19 222.9,-228.47 214.18,-222.44 212.33,-229.19"/>
</g>
<!-- Node5 -->
<g id="node5" class="node">
<title>Node5</title>
<g id="a_node5"><a xlink:href="class_s_e_r_v_e_r.html#aa64d19c0d8277395ab290fab932ba202" target="_top" xlink:title="Obsługa nowego połączenia.">
<polygon fill="none" stroke="black" points="367.5,-171.5 367.5,-190.5 477.5,-190.5 477.5,-171.5 367.5,-171.5"/>
<text text-anchor="middle" x="422.5" y="-178.5" font-family="Helvetica,sans-Serif" font-size="10.00">SERVER::on_accept</text>
</a>
</g>
</g>
<!-- Node4&#45;&gt;Node5 -->
<g id="edge4" class="edge">
<title>Node4&#45;&gt;Node5</title>
<path fill="none" stroke="midnightblue" d="M136.21,-133.62C151.31,-141.82 174.42,-153.19 196,-159 249.14,-173.32 311.56,-178.56 357.23,-180.36"/>
<polygon fill="midnightblue" stroke="midnightblue" points="357.18,-183.86 367.3,-180.72 357.43,-176.87 357.18,-183.86"/>
</g>
<!-- Node7 -->
<g id="node7" class="node">
<title>Node7</title>
<g id="a_node7"><a xlink:href="class_s_e_r_v_e_r.html#ae95cc32343639f51220c1ebd5eb40722" target="_top" xlink:title="Obsługa rozłączenia klienta.">
<polygon fill="none" stroke="black" points="357,-114.5 357,-133.5 488,-133.5 488,-114.5 357,-114.5"/>
<text text-anchor="middle" x="422.5" y="-121.5" font-family="Helvetica,sans-Serif" font-size="10.00">SERVER::on_disconnect</text>
</a>
</g>
</g>
<!-- Node4&#45;&gt;Node7 -->
<g id="edge6" class="edge">
<title>Node4&#45;&gt;Node7</title>
<path fill="none" stroke="midnightblue" d="M150.44,-133.51C164.24,-137.27 180.79,-141.14 196,-143 251.14,-149.75 265.69,-148.18 321,-143 337.24,-141.48 354.77,-138.6 370.57,-135.54"/>
<polygon fill="midnightblue" stroke="midnightblue" points="371.56,-138.91 380.67,-133.51 370.18,-132.05 371.56,-138.91"/>
</g>
<!-- Node8 -->
<g id="node8" class="node">
<title>Node8</title>
<g id="a_node8"><a xlink:href="class_s_e_r_v_e_r.html#a7e0fcd9b47fd1272527fd02c089cd1e2" target="_top" xlink:title="Obsługa pobierania pliku.">
<polygon fill="none" stroke="black" points="196,-114.5 196,-133.5 321,-133.5 321,-114.5 196,-114.5"/>
<text text-anchor="middle" x="258.5" y="-121.5" font-family="Helvetica,sans-Serif" font-size="10.00">SERVER::on_download</text>
</a>
</g>
</g>
<!-- Node4&#45;&gt;Node8 -->
<g id="edge8" class="edge">
<title>Node4&#45;&gt;Node8</title>
<path fill="none" stroke="midnightblue" d="M159.79,-124C167.99,-124 176.86,-124 185.79,-124"/>
<polygon fill="midnightblue" stroke="midnightblue" points="185.86,-127.5 195.86,-124 185.86,-120.5 185.86,-127.5"/>
</g>
<!-- Node9 -->
<g id="node9" class="node">
<title>Node9</title>
<g id="a_node9"><a xlink:href="class_s_e_r_v_e_r.html#a9472ce08aa1988b86f0eff95e5c1c431" target="_top" xlink:title="Obsługa nagłówka.">
<polygon fill="none" stroke="black" points="202.5,-76.5 202.5,-95.5 314.5,-95.5 314.5,-76.5 202.5,-76.5"/>
<text text-anchor="middle" x="258.5" y="-83.5" font-family="Helvetica,sans-Serif" font-size="10.00">SERVER::on_header</text>
</a>
</g>
</g>
<!-- Node4&#45;&gt;Node9 -->
<g id="edge10" class="edge">
<title>Node4&#45;&gt;Node9</title>
<path fill="none" stroke="midnightblue" d="M154.32,-114.41C172.14,-109.51 194.02,-103.48 213.04,-98.24"/>
<polygon fill="midnightblue" stroke="midnightblue" points="213.98,-101.62 222.69,-95.59 212.12,-94.87 213.98,-101.62"/>
</g>
<!-- Node10 -->
<g id="node10" class="node">
<title>Node10</title>
<g id="a_node10"><a xlink:href="class_s_e_r_v_e_r.html#ad2f806bd9b45db55531faea533288e61" target="_top" xlink:title="Obsługa wysyłania pliku.">
<polygon fill="none" stroke="black" points="203,-38.5 203,-57.5 314,-57.5 314,-38.5 203,-38.5"/>
<text text-anchor="middle" x="258.5" y="-45.5" font-family="Helvetica,sans-Serif" font-size="10.00">SERVER::on_upload</text>
</a>
</g>
</g>
<!-- Node4&#45;&gt;Node10 -->
<g id="edge12" class="edge">
<title>Node4&#45;&gt;Node10</title>
<path fill="none" stroke="midnightblue" d="M130.11,-114.22C144.2,-101.69 170.31,-80.05 196,-67 200.32,-64.81 204.94,-62.81 209.63,-61.01"/>
<polygon fill="midnightblue" stroke="midnightblue" points="211.04,-64.22 219.3,-57.58 208.71,-57.62 211.04,-64.22"/>
</g>
<!-- Node6 -->
<g id="node6" class="node">
<title>Node6</title>
<g id="a_node6"><a xlink:href="class_s_o_c_k_b_a_s_e.html#a1bed341ace5336a5cfa1683929a3f497" target="_top" xlink:title="Pobranie nazwy hosta.">
<polygon fill="none" stroke="black" points="524,-142.5 524,-161.5 648,-161.5 648,-142.5 524,-142.5"/>
<text text-anchor="middle" x="586" y="-149.5" font-family="Helvetica,sans-Serif" font-size="10.00">SOCKBASE::get_name</text>
</a>
</g>
</g>
<!-- Node5&#45;&gt;Node6 -->
<g id="edge5" class="edge">
<title>Node5&#45;&gt;Node6</title>
<path fill="none" stroke="midnightblue" d="M476.83,-171.42C491.24,-168.84 506.97,-166.01 521.86,-163.34"/>
<polygon fill="midnightblue" stroke="midnightblue" points="522.78,-166.73 532,-161.52 521.54,-159.84 522.78,-166.73"/>
</g>
<!-- Node7&#45;&gt;Node6 -->
<g id="edge7" class="edge">
<title>Node7&#45;&gt;Node6</title>
<path fill="none" stroke="midnightblue" d="M478.63,-133.56C492.01,-135.88 506.44,-138.38 520.22,-140.77"/>
<polygon fill="midnightblue" stroke="midnightblue" points="519.67,-144.23 530.12,-142.49 520.87,-137.33 519.67,-144.23"/>
</g>
<!-- Node8&#45;&gt;Node7 -->
<g id="edge9" class="edge">
<title>Node8&#45;&gt;Node7</title>
<path fill="none" stroke="midnightblue" d="M321.21,-124C329.47,-124 338.02,-124 346.48,-124"/>
<polygon fill="midnightblue" stroke="midnightblue" points="346.73,-127.5 356.73,-124 346.73,-120.5 346.73,-127.5"/>
</g>
<!-- Node9&#45;&gt;Node7 -->
<g id="edge11" class="edge">
<title>Node9&#45;&gt;Node7</title>
<path fill="none" stroke="midnightblue" d="M300.38,-95.59C321.85,-100.63 348.36,-106.84 371.1,-112.18"/>
<polygon fill="midnightblue" stroke="midnightblue" points="370.38,-115.6 380.91,-114.48 371.98,-108.79 370.38,-115.6"/>
</g>
<!-- Node10&#45;&gt;Node7 -->
<g id="edge13" class="edge">
<title>Node10&#45;&gt;Node7</title>
<path fill="none" stroke="midnightblue" d="M295.1,-57.57C303.71,-60.27 312.79,-63.45 321,-67 348.66,-78.95 378.46,-96.5 398.37,-108.97"/>
<polygon fill="midnightblue" stroke="midnightblue" points="396.71,-112.06 407.03,-114.46 400.46,-106.15 396.71,-112.06"/>
</g>
<!-- Node12 -->
<g id="node12" class="node">
<title>Node12</title>
<g id="a_node12"><a xlink:href="class_s_e_r_v_e_r.html#ad4f09adc16c4b5a7b9126e8741af9a08" target="_top" xlink:title="Zatrzymuje serwer.">
<polygon fill="none" stroke="black" points="217.5,-0.5 217.5,-19.5 299.5,-19.5 299.5,-0.5 217.5,-0.5"/>
<text text-anchor="middle" x="258.5" y="-7.5" font-family="Helvetica,sans-Serif" font-size="10.00">SERVER::stop</text>
</a>
</g>
</g>
<!-- Node11&#45;&gt;Node12 -->
<g id="edge15" class="edge">
<title>Node11&#45;&gt;Node12</title>
<path fill="none" stroke="midnightblue" d="M154.32,-38.41C172.14,-33.51 194.02,-27.48 213.04,-22.24"/>
<polygon fill="midnightblue" stroke="midnightblue" points="213.98,-25.62 222.69,-19.59 212.12,-18.87 213.98,-25.62"/>
</g>
<!-- Node13 -->
<g id="node13" class="node">
<title>Node13</title>
<g id="a_node13"><a xlink:href="class_s_o_c_k_b_a_s_e.html#a188bbebe9b3f5ec16b0304b512da7c0f" target="_top" xlink:title="Zamyka gniazdo.">
<polygon fill="none" stroke="black" points="372,-0.5 372,-19.5 473,-19.5 473,-0.5 372,-0.5"/>
<text text-anchor="middle" x="422.5" y="-7.5" font-family="Helvetica,sans-Serif" font-size="10.00">SOCKBASE::close</text>
</a>
</g>
</g>
<!-- Node12&#45;&gt;Node13 -->
<g id="edge16" class="edge">
<title>Node12&#45;&gt;Node13</title>
<path fill="none" stroke="midnightblue" d="M299.54,-10C318.22,-10 340.84,-10 361.5,-10"/>
<polygon fill="midnightblue" stroke="midnightblue" points="361.77,-13.5 371.77,-10 361.77,-6.5 361.77,-13.5"/>
</g>
<!-- Node13&#45;&gt;Node13 -->
<g id="edge17" class="edge">
<title>Node13&#45;&gt;Node13</title>
<path fill="none" stroke="midnightblue" d="M397.53,-19.76C385.38,-28.57 393.71,-38 422.5,-38 441.85,-38 451.95,-33.74 452.81,-28.27"/>
<polygon fill="midnightblue" stroke="midnightblue" points="455.75,-26.37 447.47,-19.76 449.82,-30.09 455.75,-26.37"/>
</g>
</g>
</svg>
