<?xml version="1.0" encoding="UTF-8" standalone="no"?>
<!DOCTYPE svg PUBLIC "-//W3C//DTD SVG 1.1//EN"
 "http://www.w3.org/Graphics/SVG/1.1/DTD/svg11.dtd">
<!-- Generated by graphviz version 2.43.0 (0)
 -->
<!-- Title: server.cpp Pages: 1 -->
<svg width="1033pt" height="196pt"
 viewBox="0.00 0.00 1033.00 196.00" xmlns="http://www.w3.org/2000/svg" xmlns:xlink="http://www.w3.org/1999/xlink">
<g id="graph0" class="graph" transform="scale(1 1) rotate(0) translate(4 192)">
<title>server.cpp</title>
<!-- Node1 -->
<g id="node1" class="node">
<title>Node1</title>
<g id="a_node1"><a xlink:title="Plik źródłowy serwera.">
<polygon fill="#bfbfbf" stroke="black" points="703,-168.5 703,-187.5 771,-187.5 771,-168.5 703,-168.5"/>
<text text-anchor="middle" x="737" y="-175.5" font-family="Helvetica,sans-Serif" font-size="10.00">server.cpp</text>
</a>
</g>
</g>
<!-- Node2 -->
<g id="node2" class="node">
<title>Node2</title>
<g id="a_node2"><a xlink:href="server_8hpp.html" target="_top" xlink:title="Plik nagłówkowy serwera.">
<polygon fill="none" stroke="black" points="703,-112.5 703,-131.5 771,-131.5 771,-112.5 703,-112.5"/>
<text text-anchor="middle" x="737" y="-119.5" font-family="Helvetica,sans-Serif" font-size="10.00">server.hpp</text>
</a>
</g>
</g>
<!-- Node1&#45;&gt;Node2 -->
<g id="edge1" class="edge">
<title>Node1&#45;&gt;Node2</title>
<path fill="none" stroke="midnightblue" d="M737,-168.08C737,-161.01 737,-150.86 737,-141.99"/>
<polygon fill="midnightblue" stroke="midnightblue" points="740.5,-141.75 737,-131.75 733.5,-141.75 740.5,-141.75"/>
</g>
<!-- Node3 -->
<g id="node3" class="node">
<title>Node3</title>
<g id="a_node3"><a xlink:href="sockbase_8hpp.html" target="_top" xlink:title="Plik nagłówkowy klasy bazowej.">
<polygon fill="none" stroke="black" points="361.5,-56.5 361.5,-75.5 444.5,-75.5 444.5,-56.5 361.5,-56.5"/>
<text text-anchor="middle" x="403" y="-63.5" font-family="Helvetica,sans-Serif" font-size="10.00">sockbase.hpp</text>
</a>
</g>
</g>
<!-- Node2&#45;&gt;Node3 -->
<g id="edge2" class="edge">
<title>Node2&#45;&gt;Node3</title>
<path fill="none" stroke="midnightblue" d="M702.99,-115.78C651.59,-107.86 550.77,-92.15 454.63,-76.08"/>
<polygon fill="midnightblue" stroke="midnightblue" points="455.18,-72.63 444.74,-74.43 454.02,-79.53 455.18,-72.63"/>
</g>
<!-- Node13 -->
<g id="node13" class="node">
<title>Node13</title>
<g id="a_node13"><a xlink:title=" ">
<polygon fill="none" stroke="#bfbfbf" points="463,-56.5 463,-75.5 531,-75.5 531,-56.5 463,-56.5"/>
<text text-anchor="middle" x="497" y="-63.5" font-family="Helvetica,sans-Serif" font-size="10.00">filesystem</text>
</a>
</g>
</g>
<!-- Node2&#45;&gt;Node13 -->
<g id="edge12" class="edge">
<title>Node2&#45;&gt;Node13</title>
<path fill="none" stroke="midnightblue" d="M702.87,-113.32C660.31,-103.74 587.49,-87.36 540.84,-76.86"/>
<polygon fill="midnightblue" stroke="midnightblue" points="541.54,-73.43 531.01,-74.65 540,-80.26 541.54,-73.43"/>
</g>
<!-- Node14 -->
<g id="node14" class="node">
<title>Node14</title>
<g id="a_node14"><a xlink:title=" ">
<polygon fill="none" stroke="#bfbfbf" points="549,-56.5 549,-75.5 613,-75.5 613,-56.5 549,-56.5"/>
<text text-anchor="middle" x="581" y="-63.5" font-family="Helvetica,sans-Serif" font-size="10.00">algorithm</text>
</a>
</g>
</g>
<!-- Node2&#45;&gt;Node14 -->
<g id="edge13" class="edge">
<title>Node2&#45;&gt;Node14</title>
<path fill="none" stroke="midnightblue" d="M712.28,-112.44C686.15,-103.4 644.74,-89.06 615.42,-78.92"/>
<polygon fill="midnightblue" stroke="midnightblue" points="616.2,-75.48 605.6,-75.52 613.91,-82.1 616.2,-75.48"/>
</g>
<!-- Node15 -->
<g id="node15" class="node">
<title>Node15</title>
<g id="a_node15"><a xlink:title=" ">
<polygon fill="none" stroke="#bfbfbf" points="631,-56.5 631,-75.5 691,-75.5 691,-56.5 631,-56.5"/>
<text text-anchor="middle" x="661" y="-63.5" font-family="Helvetica,sans-Serif" font-size="10.00">iostream</text>
</a>
</g>
</g>
<!-- Node2&#45;&gt;Node15 -->
<g id="edge14" class="edge">
<title>Node2&#45;&gt;Node15</title>
<path fill="none" stroke="midnightblue" d="M724.79,-112.32C713.22,-104.11 695.62,-91.6 681.84,-81.81"/>
<polygon fill="midnightblue" stroke="midnightblue" points="683.61,-78.77 673.43,-75.83 679.56,-84.48 683.61,-78.77"/>
</g>
<!-- Node16 -->
<g id="node16" class="node">
<title>Node16</title>
<g id="a_node16"><a xlink:title=" ">
<polygon fill="none" stroke="#bfbfbf" points="709.5,-56.5 709.5,-75.5 764.5,-75.5 764.5,-56.5 709.5,-56.5"/>
<text text-anchor="middle" x="737" y="-63.5" font-family="Helvetica,sans-Serif" font-size="10.00">fstream</text>
</a>
</g>
</g>
<!-- Node2&#45;&gt;Node16 -->
<g id="edge15" class="edge">
<title>Node2&#45;&gt;Node16</title>
<path fill="none" stroke="midnightblue" d="M737,-112.08C737,-105.01 737,-94.86 737,-85.99"/>
<polygon fill="midnightblue" stroke="midnightblue" points="740.5,-85.75 737,-75.75 733.5,-85.75 740.5,-85.75"/>
</g>
<!-- Node17 -->
<g id="node17" class="node">
<title>Node17</title>
<g id="a_node17"><a xlink:title=" ">
<polygon fill="none" stroke="#bfbfbf" points="783,-56.5 783,-75.5 841,-75.5 841,-56.5 783,-56.5"/>
<text text-anchor="middle" x="812" y="-63.5" font-family="Helvetica,sans-Serif" font-size="10.00">memory</text>
</a>
</g>
</g>
<!-- Node2&#45;&gt;Node17 -->
<g id="edge16" class="edge">
<title>Node2&#45;&gt;Node17</title>
<path fill="none" stroke="midnightblue" d="M749.05,-112.32C760.46,-104.11 777.83,-91.6 791.43,-81.81"/>
<polygon fill="midnightblue" stroke="midnightblue" points="793.66,-84.52 799.73,-75.83 789.57,-78.84 793.66,-84.52"/>
</g>
<!-- Node18 -->
<g id="node18" class="node">
<title>Node18</title>
<g id="a_node18"><a xlink:title=" ">
<polygon fill="none" stroke="#bfbfbf" points="859,-56.5 859,-75.5 903,-75.5 903,-56.5 859,-56.5"/>
<text text-anchor="middle" x="881" y="-63.5" font-family="Helvetica,sans-Serif" font-size="10.00">string</text>
</a>
</g>
</g>
<!-- Node2&#45;&gt;Node18 -->
<g id="edge17" class="edge">
<title>Node2&#45;&gt;Node18</title>
<path fill="none" stroke="midnightblue" d="M759.82,-112.44C783.97,-103.39 822.28,-89.02 849.35,-78.87"/>
<polygon fill="midnightblue" stroke="midnightblue" points="850.63,-82.13 858.76,-75.34 848.17,-75.57 850.63,-82.13"/>
</g>
<!-- Node19 -->
<g id="node19" class="node">
<title>Node19</title>
<g id="a_node19"><a xlink:title=" ">
<polygon fill="none" stroke="#bfbfbf" points="921.5,-56.5 921.5,-75.5 968.5,-75.5 968.5,-56.5 921.5,-56.5"/>
<text text-anchor="middle" x="945" y="-63.5" font-family="Helvetica,sans-Serif" font-size="10.00">vector</text>
</a>
</g>
</g>
<!-- Node2&#45;&gt;Node19 -->
<g id="edge18" class="edge">
<title>Node2&#45;&gt;Node19</title>
<path fill="none" stroke="midnightblue" d="M770.91,-112.44C804.2,-103.99 856.66,-90.6 911.35,-76.14"/>
<polygon fill="midnightblue" stroke="midnightblue" points="912.45,-79.47 921.22,-73.53 910.66,-72.71 912.45,-79.47"/>
</g>
<!-- Node20 -->
<g id="node20" class="node">
<title>Node20</title>
<g id="a_node20"><a xlink:title=" ">
<polygon fill="none" stroke="#bfbfbf" points="987,-56.5 987,-75.5 1025,-75.5 1025,-56.5 987,-56.5"/>
<text text-anchor="middle" x="1006" y="-63.5" font-family="Helvetica,sans-Serif" font-size="10.00">map</text>
</a>
</g>
</g>
<!-- Node2&#45;&gt;Node20 -->
<g id="edge19" class="edge">
<title>Node2&#45;&gt;Node20</title>
<path fill="none" stroke="midnightblue" d="M771.22,-116.01C816.28,-109.13 898.1,-95.6 976.74,-76.06"/>
<polygon fill="midnightblue" stroke="midnightblue" points="977.97,-79.36 986.81,-73.52 976.26,-72.57 977.97,-79.36"/>
</g>
<!-- Node4 -->
<g id="node4" class="node">
<title>Node4</title>
<g id="a_node4"><a xlink:title=" ">
<polygon fill="none" stroke="#bfbfbf" points="0,-0.5 0,-19.5 72,-19.5 72,-0.5 0,-0.5"/>
<text text-anchor="middle" x="36" y="-7.5" font-family="Helvetica,sans-Serif" font-size="10.00">sys/types.h</text>
</a>
</g>
</g>
<!-- Node3&#45;&gt;Node4 -->
<g id="edge3" class="edge">
<title>Node3&#45;&gt;Node4</title>
<path fill="none" stroke="midnightblue" d="M361.45,-59.98C301.86,-52.61 188.44,-37.95 82.24,-20.13"/>
<polygon fill="midnightblue" stroke="midnightblue" points="82.76,-16.67 72.32,-18.45 81.59,-23.57 82.76,-16.67"/>
</g>
<!-- Node5 -->
<g id="node5" class="node">
<title>Node5</title>
<g id="a_node5"><a xlink:title=" ">
<polygon fill="none" stroke="#bfbfbf" points="90.5,-0.5 90.5,-19.5 167.5,-19.5 167.5,-0.5 90.5,-0.5"/>
<text text-anchor="middle" x="129" y="-7.5" font-family="Helvetica,sans-Serif" font-size="10.00">sys/socket.h</text>
</a>
</g>
</g>
<!-- Node3&#45;&gt;Node5 -->
<g id="edge4" class="edge">
<title>Node3&#45;&gt;Node5</title>
<path fill="none" stroke="midnightblue" d="M361.39,-56.8C312.12,-47.09 230.19,-30.94 177.93,-20.64"/>
<polygon fill="midnightblue" stroke="midnightblue" points="178.38,-17.17 167.9,-18.67 177.03,-24.03 178.38,-17.17"/>
</g>
<!-- Node6 -->
<g id="node6" class="node">
<title>Node6</title>
<g id="a_node6"><a xlink:title=" ">
<polygon fill="none" stroke="#bfbfbf" points="186,-0.5 186,-19.5 260,-19.5 260,-0.5 186,-0.5"/>
<text text-anchor="middle" x="223" y="-7.5" font-family="Helvetica,sans-Serif" font-size="10.00">sys/signal.h</text>
</a>
</g>
</g>
<!-- Node3&#45;&gt;Node6 -->
<g id="edge5" class="edge">
<title>Node3&#45;&gt;Node6</title>
<path fill="none" stroke="midnightblue" d="M374.48,-56.44C343.93,-47.28 295.29,-32.69 261.4,-22.52"/>
<polygon fill="midnightblue" stroke="midnightblue" points="261.97,-19.04 251.39,-19.52 259.96,-25.74 261.97,-19.04"/>
</g>
<!-- Node7 -->
<g id="node7" class="node">
<title>Node7</title>
<g id="a_node7"><a xlink:title=" ">
<polygon fill="none" stroke="#bfbfbf" points="278,-0.5 278,-19.5 350,-19.5 350,-0.5 278,-0.5"/>
<text text-anchor="middle" x="314" y="-7.5" font-family="Helvetica,sans-Serif" font-size="10.00">netinet/in.h</text>
</a>
</g>
</g>
<!-- Node3&#45;&gt;Node7 -->
<g id="edge6" class="edge">
<title>Node3&#45;&gt;Node7</title>
<path fill="none" stroke="midnightblue" d="M388.7,-56.32C374.82,-47.9 353.51,-34.97 337.2,-25.07"/>
<polygon fill="midnightblue" stroke="midnightblue" points="338.63,-21.85 328.26,-19.65 335,-27.83 338.63,-21.85"/>
</g>
<!-- Node8 -->
<g id="node8" class="node">
<title>Node8</title>
<g id="a_node8"><a xlink:title=" ">
<polygon fill="none" stroke="#bfbfbf" points="368.5,-0.5 368.5,-19.5 437.5,-19.5 437.5,-0.5 368.5,-0.5"/>
<text text-anchor="middle" x="403" y="-7.5" font-family="Helvetica,sans-Serif" font-size="10.00">arpa/inet.h</text>
</a>
</g>
</g>
<!-- Node3&#45;&gt;Node8 -->
<g id="edge7" class="edge">
<title>Node3&#45;&gt;Node8</title>
<path fill="none" stroke="midnightblue" d="M403,-56.08C403,-49.01 403,-38.86 403,-29.99"/>
<polygon fill="midnightblue" stroke="midnightblue" points="406.5,-29.75 403,-19.75 399.5,-29.75 406.5,-29.75"/>
</g>
<!-- Node9 -->
<g id="node9" class="node">
<title>Node9</title>
<g id="a_node9"><a xlink:title=" ">
<polygon fill="none" stroke="#bfbfbf" points="456,-0.5 456,-19.5 512,-19.5 512,-0.5 456,-0.5"/>
<text text-anchor="middle" x="484" y="-7.5" font-family="Helvetica,sans-Serif" font-size="10.00">unistd.h</text>
</a>
</g>
</g>
<!-- Node3&#45;&gt;Node9 -->
<g id="edge8" class="edge">
<title>Node3&#45;&gt;Node9</title>
<path fill="none" stroke="midnightblue" d="M416.01,-56.32C428.53,-47.98 447.68,-35.21 462.47,-25.35"/>
<polygon fill="midnightblue" stroke="midnightblue" points="464.64,-28.11 471.02,-19.65 460.76,-22.29 464.64,-28.11"/>
</g>
<!-- Node10 -->
<g id="node10" class="node">
<title>Node10</title>
<g id="a_node10"><a xlink:title=" ">
<polygon fill="none" stroke="#bfbfbf" points="530.5,-0.5 530.5,-19.5 583.5,-19.5 583.5,-0.5 530.5,-0.5"/>
<text text-anchor="middle" x="557" y="-7.5" font-family="Helvetica,sans-Serif" font-size="10.00">string.h</text>
</a>
</g>
</g>
<!-- Node3&#45;&gt;Node10 -->
<g id="edge9" class="edge">
<title>Node3&#45;&gt;Node10</title>
<path fill="none" stroke="midnightblue" d="M427.4,-56.44C453.2,-47.4 494.08,-33.06 523.02,-22.92"/>
<polygon fill="midnightblue" stroke="midnightblue" points="524.43,-26.13 532.71,-19.52 522.12,-19.52 524.43,-26.13"/>
</g>
<!-- Node11 -->
<g id="node11" class="node">
<title>Node11</title>
<g id="a_node11"><a xlink:title=" ">
<polygon fill="none" stroke="#bfbfbf" points="602,-0.5 602,-19.5 646,-19.5 646,-0.5 602,-0.5"/>
<text text-anchor="middle" x="624" y="-7.5" font-family="Helvetica,sans-Serif" font-size="10.00">poll.h</text>
</a>
</g>
</g>
<!-- Node3&#45;&gt;Node11 -->
<g id="edge10" class="edge">
<title>Node3&#45;&gt;Node11</title>
<path fill="none" stroke="midnightblue" d="M441.71,-56.43C478.1,-48.24 534.31,-35.25 591.71,-20.25"/>
<polygon fill="midnightblue" stroke="midnightblue" points="592.91,-23.55 601.69,-17.62 591.12,-16.78 592.91,-23.55"/>
</g>
<!-- Node12 -->
<g id="node12" class="node">
<title>Node12</title>
<g id="a_node12"><a xlink:title=" ">
<polygon fill="none" stroke="#bfbfbf" points="664.5,-0.5 664.5,-19.5 717.5,-19.5 717.5,-0.5 664.5,-0.5"/>
<text text-anchor="middle" x="691" y="-7.5" font-family="Helvetica,sans-Serif" font-size="10.00">netdb.h</text>
</a>
</g>
</g>
<!-- Node3&#45;&gt;Node12 -->
<g id="edge11" class="edge">
<title>Node3&#45;&gt;Node12</title>
<path fill="none" stroke="midnightblue" d="M444.73,-57.62C506.13,-46.76 616.85,-27.14 654.13,-19.94"/>
<polygon fill="midnightblue" stroke="midnightblue" points="655.2,-23.29 664.31,-17.89 653.82,-16.43 655.2,-23.29"/>
</g>
</g>
</svg>
