<?xml version="1.0" encoding="UTF-8" standalone="no"?>
<!DOCTYPE svg PUBLIC "-//W3C//DTD SVG 1.1//EN"
 "http://www.w3.org/Graphics/SVG/1.1/DTD/svg11.dtd">
<!-- Generated by graphviz version 2.43.0 (0)
 -->
<!-- Title: sockbase.cpp Pages: 1 -->
<svg width="726pt" height="140pt"
 viewBox="0.00 0.00 725.50 140.00" xmlns="http://www.w3.org/2000/svg" xmlns:xlink="http://www.w3.org/1999/xlink">
<g id="graph0" class="graph" transform="scale(1 1) rotate(0) translate(4 136)">
<title>sockbase.cpp</title>
<!-- Node1 -->
<g id="node1" class="node">
<title>Node1</title>
<g id="a_node1"><a xlink:title="Plik źródłowy klasy bazowej.">
<polygon fill="#bfbfbf" stroke="black" points="361.5,-112.5 361.5,-131.5 444.5,-131.5 444.5,-112.5 361.5,-112.5"/>
<text text-anchor="middle" x="403" y="-119.5" font-family="Helvetica,sans-Serif" font-size="10.00">sockbase.cpp</text>
</a>
</g>
</g>
<!-- Node2 -->
<g id="node2" class="node">
<title>Node2</title>
<g id="a_node2"><a xlink:href="sockbase_8hpp.html" target="_top" xlink:title="Plik nagłówkowy klasy bazowej.">
<polygon fill="none" stroke="black" points="361.5,-56.5 361.5,-75.5 444.5,-75.5 444.5,-56.5 361.5,-56.5"/>
<text text-anchor="middle" x="403" y="-63.5" font-family="Helvetica,sans-Serif" font-size="10.00">sockbase.hpp</text>
</a>
</g>
</g>
<!-- Node1&#45;&gt;Node2 -->
<g id="edge1" class="edge">
<title>Node1&#45;&gt;Node2</title>
<path fill="none" stroke="midnightblue" d="M403,-112.08C403,-105.01 403,-94.86 403,-85.99"/>
<polygon fill="midnightblue" stroke="midnightblue" points="406.5,-85.75 403,-75.75 399.5,-85.75 406.5,-85.75"/>
</g>
<!-- Node3 -->
<g id="node3" class="node">
<title>Node3</title>
<g id="a_node3"><a xlink:title=" ">
<polygon fill="none" stroke="#bfbfbf" points="0,-0.5 0,-19.5 72,-19.5 72,-0.5 0,-0.5"/>
<text text-anchor="middle" x="36" y="-7.5" font-family="Helvetica,sans-Serif" font-size="10.00">sys/types.h</text>
</a>
</g>
</g>
<!-- Node2&#45;&gt;Node3 -->
<g id="edge2" class="edge">
<title>Node2&#45;&gt;Node3</title>
<path fill="none" stroke="midnightblue" d="M361.45,-59.98C301.86,-52.61 188.44,-37.95 82.24,-20.13"/>
<polygon fill="midnightblue" stroke="midnightblue" points="82.76,-16.67 72.32,-18.45 81.59,-23.57 82.76,-16.67"/>
</g>
<!-- Node4 -->
<g id="node4" class="node">
<title>Node4</title>
<g id="a_node4"><a xlink:title=" ">
<polygon fill="none" stroke="#bfbfbf" points="90.5,-0.5 90.5,-19.5 167.5,-19.5 167.5,-0.5 90.5,-0.5"/>
<text text-anchor="middle" x="129" y="-7.5" font-family="Helvetica,sans-Serif" font-size="10.00">sys/socket.h</text>
</a>
</g>
</g>
<!-- Node2&#45;&gt;Node4 -->
<g id="edge3" class="edge">
<title>Node2&#45;&gt;Node4</title>
<path fill="none" stroke="midnightblue" d="M361.39,-56.8C312.12,-47.09 230.19,-30.94 177.93,-20.64"/>
<polygon fill="midnightblue" stroke="midnightblue" points="178.38,-17.17 167.9,-18.67 177.03,-24.03 178.38,-17.17"/>
</g>
<!-- Node5 -->
<g id="node5" class="node">
<title>Node5</title>
<g id="a_node5"><a xlink:title=" ">
<polygon fill="none" stroke="#bfbfbf" points="186,-0.5 186,-19.5 260,-19.5 260,-0.5 186,-0.5"/>
<text text-anchor="middle" x="223" y="-7.5" font-family="Helvetica,sans-Serif" font-size="10.00">sys/signal.h</text>
</a>
</g>
</g>
<!-- Node2&#45;&gt;Node5 -->
<g id="edge4" class="edge">
<title>Node2&#45;&gt;Node5</title>
<path fill="none" stroke="midnightblue" d="M374.48,-56.44C343.93,-47.28 295.29,-32.69 261.4,-22.52"/>
<polygon fill="midnightblue" stroke="midnightblue" points="261.97,-19.04 251.39,-19.52 259.96,-25.74 261.97,-19.04"/>
</g>
<!-- Node6 -->
<g id="node6" class="node">
<title>Node6</title>
<g id="a_node6"><a xlink:title=" ">
<polygon fill="none" stroke="#bfbfbf" points="278,-0.5 278,-19.5 350,-19.5 350,-0.5 278,-0.5"/>
<text text-anchor="middle" x="314" y="-7.5" font-family="Helvetica,sans-Serif" font-size="10.00">netinet/in.h</text>
</a>
</g>
</g>
<!-- Node2&#45;&gt;Node6 -->
<g id="edge5" class="edge">
<title>Node2&#45;&gt;Node6</title>
<path fill="none" stroke="midnightblue" d="M388.7,-56.32C374.82,-47.9 353.51,-34.97 337.2,-25.07"/>
<polygon fill="midnightblue" stroke="midnightblue" points="338.63,-21.85 328.26,-19.65 335,-27.83 338.63,-21.85"/>
</g>
<!-- Node7 -->
<g id="node7" class="node">
<title>Node7</title>
<g id="a_node7"><a xlink:title=" ">
<polygon fill="none" stroke="#bfbfbf" points="368.5,-0.5 368.5,-19.5 437.5,-19.5 437.5,-0.5 368.5,-0.5"/>
<text text-anchor="middle" x="403" y="-7.5" font-family="Helvetica,sans-Serif" font-size="10.00">arpa/inet.h</text>
</a>
</g>
</g>
<!-- Node2&#45;&gt;Node7 -->
<g id="edge6" class="edge">
<title>Node2&#45;&gt;Node7</title>
<path fill="none" stroke="midnightblue" d="M403,-56.08C403,-49.01 403,-38.86 403,-29.99"/>
<polygon fill="midnightblue" stroke="midnightblue" points="406.5,-29.75 403,-19.75 399.5,-29.75 406.5,-29.75"/>
</g>
<!-- Node8 -->
<g id="node8" class="node">
<title>Node8</title>
<g id="a_node8"><a xlink:title=" ">
<polygon fill="none" stroke="#bfbfbf" points="456,-0.5 456,-19.5 512,-19.5 512,-0.5 456,-0.5"/>
<text text-anchor="middle" x="484" y="-7.5" font-family="Helvetica,sans-Serif" font-size="10.00">unistd.h</text>
</a>
</g>
</g>
<!-- Node2&#45;&gt;Node8 -->
<g id="edge7" class="edge">
<title>Node2&#45;&gt;Node8</title>
<path fill="none" stroke="midnightblue" d="M416.01,-56.32C428.53,-47.98 447.68,-35.21 462.47,-25.35"/>
<polygon fill="midnightblue" stroke="midnightblue" points="464.64,-28.11 471.02,-19.65 460.76,-22.29 464.64,-28.11"/>
</g>
<!-- Node9 -->
<g id="node9" class="node">
<title>Node9</title>
<g id="a_node9"><a xlink:title=" ">
<polygon fill="none" stroke="#bfbfbf" points="530.5,-0.5 530.5,-19.5 583.5,-19.5 583.5,-0.5 530.5,-0.5"/>
<text text-anchor="middle" x="557" y="-7.5" font-family="Helvetica,sans-Serif" font-size="10.00">string.h</text>
</a>
</g>
</g>
<!-- Node2&#45;&gt;Node9 -->
<g id="edge8" class="edge">
<title>Node2&#45;&gt;Node9</title>
<path fill="none" stroke="midnightblue" d="M427.4,-56.44C453.2,-47.4 494.08,-33.06 523.02,-22.92"/>
<polygon fill="midnightblue" stroke="midnightblue" points="524.43,-26.13 532.71,-19.52 522.12,-19.52 524.43,-26.13"/>
</g>
<!-- Node10 -->
<g id="node10" class="node">
<title>Node10</title>
<g id="a_node10"><a xlink:title=" ">
<polygon fill="none" stroke="#bfbfbf" points="602,-0.5 602,-19.5 646,-19.5 646,-0.5 602,-0.5"/>
<text text-anchor="middle" x="624" y="-7.5" font-family="Helvetica,sans-Serif" font-size="10.00">poll.h</text>
</a>
</g>
</g>
<!-- Node2&#45;&gt;Node10 -->
<g id="edge9" class="edge">
<title>Node2&#45;&gt;Node10</title>
<path fill="none" stroke="midnightblue" d="M441.71,-56.43C478.1,-48.24 534.31,-35.25 591.71,-20.25"/>
<polygon fill="midnightblue" stroke="midnightblue" points="592.91,-23.55 601.69,-17.62 591.12,-16.78 592.91,-23.55"/>
</g>
<!-- Node11 -->
<g id="node11" class="node">
<title>Node11</title>
<g id="a_node11"><a xlink:title=" ">
<polygon fill="none" stroke="#bfbfbf" points="664.5,-0.5 664.5,-19.5 717.5,-19.5 717.5,-0.5 664.5,-0.5"/>
<text text-anchor="middle" x="691" y="-7.5" font-family="Helvetica,sans-Serif" font-size="10.00">netdb.h</text>
</a>
</g>
</g>
<!-- Node2&#45;&gt;Node11 -->
<g id="edge10" class="edge">
<title>Node2&#45;&gt;Node11</title>
<path fill="none" stroke="midnightblue" d="M444.64,-58.46C492.69,-50.71 574.3,-36.95 654.09,-20.07"/>
<polygon fill="midnightblue" stroke="midnightblue" points="655.26,-23.4 664.31,-17.89 653.8,-16.55 655.26,-23.4"/>
</g>
</g>
</svg>
