<?xml version="1.0" encoding="UTF-8" standalone="no"?>
<!DOCTYPE svg PUBLIC "-//W3C//DTD SVG 1.1//EN"
 "http://www.w3.org/Graphics/SVG/1.1/DTD/svg11.dtd">
<!-- Generated by graphviz version 2.43.0 (0)
 -->
<!-- Title: sockbase.hpp Pages: 1 -->
<svg width="352pt" height="140pt"
 viewBox="0.00 0.00 351.50 140.00" xmlns="http://www.w3.org/2000/svg" xmlns:xlink="http://www.w3.org/1999/xlink">
<g id="graph0" class="graph" transform="scale(1 1) rotate(0) translate(4 136)">
<title>sockbase.hpp</title>
<!-- Node1 -->
<g id="node1" class="node">
<title>Node1</title>
<g id="a_node1"><a xlink:title="Plik nagłówkowy klasy bazowej.">
<polygon fill="#bfbfbf" stroke="black" points="166.5,-112.5 166.5,-131.5 249.5,-131.5 249.5,-112.5 166.5,-112.5"/>
<text text-anchor="middle" x="208" y="-119.5" font-family="Helvetica,sans-Serif" font-size="10.00">sockbase.hpp</text>
</a>
</g>
</g>
<!-- Node2 -->
<g id="node2" class="node">
<title>Node2</title>
<g id="a_node2"><a xlink:href="client_8hpp.html" target="_top" xlink:title="Plik nagłówkowy klienta.">
<polygon fill="none" stroke="black" points="85.5,-56.5 85.5,-75.5 150.5,-75.5 150.5,-56.5 85.5,-56.5"/>
<text text-anchor="middle" x="118" y="-63.5" font-family="Helvetica,sans-Serif" font-size="10.00">client.hpp</text>
</a>
</g>
</g>
<!-- Node1&#45;&gt;Node2 -->
<g id="edge1" class="edge">
<title>Node1&#45;&gt;Node2</title>
<path fill="none" stroke="midnightblue" d="M184.96,-107.18C168.4,-97.24 146.58,-84.15 132.42,-75.65"/>
<polygon fill="midnightblue" stroke="midnightblue" points="183.16,-110.18 193.54,-112.32 186.77,-104.18 183.16,-110.18"/>
</g>
<!-- Node5 -->
<g id="node5" class="node">
<title>Node5</title>
<g id="a_node5"><a xlink:href="server_8hpp.html" target="_top" xlink:title="Plik nagłówkowy serwera.">
<polygon fill="none" stroke="black" points="174,-56.5 174,-75.5 242,-75.5 242,-56.5 174,-56.5"/>
<text text-anchor="middle" x="208" y="-63.5" font-family="Helvetica,sans-Serif" font-size="10.00">server.hpp</text>
</a>
</g>
</g>
<!-- Node1&#45;&gt;Node5 -->
<g id="edge4" class="edge">
<title>Node1&#45;&gt;Node5</title>
<path fill="none" stroke="midnightblue" d="M208,-101.8C208,-92.91 208,-82.78 208,-75.75"/>
<polygon fill="midnightblue" stroke="midnightblue" points="204.5,-102.08 208,-112.08 211.5,-102.08 204.5,-102.08"/>
</g>
<!-- Node8 -->
<g id="node8" class="node">
<title>Node8</title>
<g id="a_node8"><a xlink:href="sockbase_8cpp.html" target="_top" xlink:title="Plik źródłowy klasy bazowej.">
<polygon fill="none" stroke="black" points="260.5,-56.5 260.5,-75.5 343.5,-75.5 343.5,-56.5 260.5,-56.5"/>
<text text-anchor="middle" x="302" y="-63.5" font-family="Helvetica,sans-Serif" font-size="10.00">sockbase.cpp</text>
</a>
</g>
</g>
<!-- Node1&#45;&gt;Node8 -->
<g id="edge7" class="edge">
<title>Node1&#45;&gt;Node8</title>
<path fill="none" stroke="midnightblue" d="M232.06,-107.18C249.36,-97.24 272.15,-84.15 286.93,-75.65"/>
<polygon fill="midnightblue" stroke="midnightblue" points="230.03,-104.31 223.1,-112.32 233.52,-110.38 230.03,-104.31"/>
</g>
<!-- Node3 -->
<g id="node3" class="node">
<title>Node3</title>
<g id="a_node3"><a xlink:href="client_8cpp.html" target="_top" xlink:title="Plik źródłowy klienta.">
<polygon fill="none" stroke="black" points="0,-0.5 0,-19.5 64,-19.5 64,-0.5 0,-0.5"/>
<text text-anchor="middle" x="32" y="-7.5" font-family="Helvetica,sans-Serif" font-size="10.00">client.cpp</text>
</a>
</g>
</g>
<!-- Node2&#45;&gt;Node3 -->
<g id="edge2" class="edge">
<title>Node2&#45;&gt;Node3</title>
<path fill="none" stroke="midnightblue" d="M95.55,-50.9C79.78,-41 59.19,-28.07 45.78,-19.65"/>
<polygon fill="midnightblue" stroke="midnightblue" points="93.85,-53.97 104.18,-56.32 97.57,-48.04 93.85,-53.97"/>
</g>
<!-- Node4 -->
<g id="node4" class="node">
<title>Node4</title>
<g id="a_node4"><a xlink:href="main__c_8cpp.html" target="_top" xlink:title="Plik main klienta.">
<polygon fill="none" stroke="black" points="82,-0.5 82,-19.5 154,-19.5 154,-0.5 82,-0.5"/>
<text text-anchor="middle" x="118" y="-7.5" font-family="Helvetica,sans-Serif" font-size="10.00">main_c.cpp</text>
</a>
</g>
</g>
<!-- Node2&#45;&gt;Node4 -->
<g id="edge3" class="edge">
<title>Node2&#45;&gt;Node4</title>
<path fill="none" stroke="midnightblue" d="M118,-45.8C118,-36.91 118,-26.78 118,-19.75"/>
<polygon fill="midnightblue" stroke="midnightblue" points="114.5,-46.08 118,-56.08 121.5,-46.08 114.5,-46.08"/>
</g>
<!-- Node6 -->
<g id="node6" class="node">
<title>Node6</title>
<g id="a_node6"><a xlink:href="main__s_8cpp.html" target="_top" xlink:title="Plik main serwera.">
<polygon fill="none" stroke="black" points="172,-0.5 172,-19.5 244,-19.5 244,-0.5 172,-0.5"/>
<text text-anchor="middle" x="208" y="-7.5" font-family="Helvetica,sans-Serif" font-size="10.00">main_s.cpp</text>
</a>
</g>
</g>
<!-- Node5&#45;&gt;Node6 -->
<g id="edge5" class="edge">
<title>Node5&#45;&gt;Node6</title>
<path fill="none" stroke="midnightblue" d="M208,-45.8C208,-36.91 208,-26.78 208,-19.75"/>
<polygon fill="midnightblue" stroke="midnightblue" points="204.5,-46.08 208,-56.08 211.5,-46.08 204.5,-46.08"/>
</g>
<!-- Node7 -->
<g id="node7" class="node">
<title>Node7</title>
<g id="a_node7"><a xlink:href="server_8cpp.html" target="_top" xlink:title="Plik źródłowy serwera.">
<polygon fill="none" stroke="black" points="262,-0.5 262,-19.5 330,-19.5 330,-0.5 262,-0.5"/>
<text text-anchor="middle" x="296" y="-7.5" font-family="Helvetica,sans-Serif" font-size="10.00">server.cpp</text>
</a>
</g>
</g>
<!-- Node5&#45;&gt;Node7 -->
<g id="edge6" class="edge">
<title>Node5&#45;&gt;Node7</title>
<path fill="none" stroke="midnightblue" d="M230.98,-50.9C247.11,-41 268.18,-28.07 281.9,-19.65"/>
<polygon fill="midnightblue" stroke="midnightblue" points="228.83,-48.11 222.14,-56.32 232.49,-54.08 228.83,-48.11"/>
</g>
</g>
</svg>
