<?xml version="1.0" encoding="UTF-8" standalone="no"?>
<!DOCTYPE svg PUBLIC "-//W3C//DTD SVG 1.1//EN"
 "http://www.w3.org/Graphics/SVG/1.1/DTD/svg11.dtd">
<!-- Generated by graphviz version 2.43.0 (0)
 -->
<!-- Title: SERVER::CLIENT Pages: 1 -->
<svg width="242pt" height="811pt"
 viewBox="0.00 0.00 241.50 811.00" xmlns="http://www.w3.org/2000/svg" xmlns:xlink="http://www.w3.org/1999/xlink">
<g id="graph0" class="graph" transform="scale(1 1) rotate(0) translate(4 807)">
<title>SERVER::CLIENT</title>
<!-- Node1 -->
<g id="node1" class="node">
<title>Node1</title>
<g id="a_node1"><a xlink:title="Struktura opisująca klienta.">
<polygon fill="#bfbfbf" stroke="black" points="67.5,-0.5 67.5,-189.5 162.5,-189.5 162.5,-0.5 67.5,-0.5"/>
<text text-anchor="middle" x="115" y="-177.5" font-family="Helvetica,sans-Serif" font-size="10.00">SERVER::CLIENT</text>
<polyline fill="none" stroke="black" points="67.5,-170.5 162.5,-170.5 "/>
<text text-anchor="start" x="75.5" y="-158.5" font-family="Helvetica,sans-Serif" font-size="10.00">+ state</text>
<text text-anchor="start" x="75.5" y="-147.5" font-family="Helvetica,sans-Serif" font-size="10.00">+ buff</text>
<text text-anchor="start" x="75.5" y="-136.5" font-family="Helvetica,sans-Serif" font-size="10.00">+ size</text>
<text text-anchor="start" x="75.5" y="-125.5" font-family="Helvetica,sans-Serif" font-size="10.00">+ cap</text>
<text text-anchor="start" x="75.5" y="-114.5" font-family="Helvetica,sans-Serif" font-size="10.00">+ sock</text>
<polyline fill="none" stroke="black" points="67.5,-107.5 162.5,-107.5 "/>
<text text-anchor="start" x="75.5" y="-95.5" font-family="Helvetica,sans-Serif" font-size="10.00">+ CLIENT()</text>
<text text-anchor="start" x="75.5" y="-84.5" font-family="Helvetica,sans-Serif" font-size="10.00">+ CLIENT()</text>
<text text-anchor="start" x="75.5" y="-73.5" font-family="Helvetica,sans-Serif" font-size="10.00">+ ~CLIENT()</text>
<text text-anchor="start" x="75.5" y="-62.5" font-family="Helvetica,sans-Serif" font-size="10.00">+ CLIENT()</text>
<text text-anchor="start" x="75.5" y="-51.5" font-family="Helvetica,sans-Serif" font-size="10.00">+ CLIENT()</text>
<text text-anchor="start" x="75.5" y="-40.5" font-family="Helvetica,sans-Serif" font-size="10.00">+ operator=()</text>
<text text-anchor="start" x="75.5" y="-29.5" font-family="Helvetica,sans-Serif" font-size="10.00">+ operator=()</text>
<text text-anchor="start" x="75.5" y="-18.5" font-family="Helvetica,sans-Serif" font-size="10.00">+ resize()</text>
<text text-anchor="start" x="75.5" y="-7.5" font-family="Helvetica,sans-Serif" font-size="10.00">+ clean()</text>
</a>
</g>
</g>
<!-- Node2 -->
<g id="node2" class="node">
<title>Node2</title>
<g id="a_node2"><a xlink:title=" ">
<polygon fill="none" stroke="#bfbfbf" points="77,-237.5 77,-294.5 153,-294.5 153,-237.5 77,-237.5"/>
<text text-anchor="middle" x="115" y="-282.5" font-family="Helvetica,sans-Serif" font-size="10.00">std::fstream</text>
<polyline fill="none" stroke="#bfbfbf" points="77,-275.5 153,-275.5 "/>
<text text-anchor="middle" x="115" y="-263.5" font-family="Helvetica,sans-Serif" font-size="10.00"> </text>
<polyline fill="none" stroke="#bfbfbf" points="77,-256.5 153,-256.5 "/>
<text text-anchor="middle" x="115" y="-244.5" font-family="Helvetica,sans-Serif" font-size="10.00"> </text>
</a>
</g>
</g>
<!-- Node2&#45;&gt;Node1 -->
<g id="edge1" class="edge">
<title>Node2&#45;&gt;Node1</title>
<path fill="none" stroke="#404040" d="M115,-237.47C115,-227.23 115,-214.9 115,-201.84"/>
<polygon fill="none" stroke="#404040" points="115,-201.69 111,-195.69 115,-189.69 119,-195.69 115,-201.69"/>
<text text-anchor="middle" x="129" y="-211" font-family="Helvetica,sans-Serif" font-size="10.00"> +file</text>
</g>
<!-- Node3 -->
<g id="node3" class="node">
<title>Node3</title>
<g id="a_node3"><a xlink:title=" ">
<polygon fill="none" stroke="#bfbfbf" points="61.5,-332.5 61.5,-400.5 168.5,-400.5 168.5,-332.5 61.5,-332.5"/>
<text text-anchor="start" x="69.5" y="-388.5" font-family="Helvetica,sans-Serif" font-size="10.00">std::basic_fstream</text>
<text text-anchor="middle" x="115" y="-377.5" font-family="Helvetica,sans-Serif" font-size="10.00">&lt; Char &gt;</text>
<polyline fill="none" stroke="#bfbfbf" points="61.5,-370.5 168.5,-370.5 "/>
<text text-anchor="middle" x="115" y="-358.5" font-family="Helvetica,sans-Serif" font-size="10.00"> </text>
<polyline fill="none" stroke="#bfbfbf" points="61.5,-351.5 168.5,-351.5 "/>
<text text-anchor="middle" x="115" y="-339.5" font-family="Helvetica,sans-Serif" font-size="10.00"> </text>
</a>
</g>
</g>
<!-- Node3&#45;&gt;Node2 -->
<g id="edge2" class="edge">
<title>Node3&#45;&gt;Node2</title>
<path fill="none" stroke="midnightblue" d="M115,-322.38C115,-312.94 115,-303.2 115,-294.57"/>
<polygon fill="none" stroke="midnightblue" points="111.5,-322.43 115,-332.43 118.5,-322.43 111.5,-322.43"/>
</g>
<!-- Node4 -->
<g id="node4" class="node">
<title>Node4</title>
<g id="a_node4"><a xlink:title=" ">
<polygon fill="none" stroke="#bfbfbf" points="59,-438.5 59,-506.5 171,-506.5 171,-438.5 59,-438.5"/>
<text text-anchor="start" x="67" y="-494.5" font-family="Helvetica,sans-Serif" font-size="10.00">std::basic_iostream</text>
<text text-anchor="middle" x="115" y="-483.5" font-family="Helvetica,sans-Serif" font-size="10.00">&lt; Char &gt;</text>
<polyline fill="none" stroke="#bfbfbf" points="59,-476.5 171,-476.5 "/>
<text text-anchor="middle" x="115" y="-464.5" font-family="Helvetica,sans-Serif" font-size="10.00"> </text>
<polyline fill="none" stroke="#bfbfbf" points="59,-457.5 171,-457.5 "/>
<text text-anchor="middle" x="115" y="-445.5" font-family="Helvetica,sans-Serif" font-size="10.00"> </text>
</a>
</g>
</g>
<!-- Node4&#45;&gt;Node3 -->
<g id="edge3" class="edge">
<title>Node4&#45;&gt;Node3</title>
<path fill="none" stroke="midnightblue" d="M115,-428.17C115,-419 115,-409.46 115,-400.73"/>
<polygon fill="none" stroke="midnightblue" points="111.5,-428.31 115,-438.31 118.5,-428.31 111.5,-428.31"/>
</g>
<!-- Node5 -->
<g id="node5" class="node">
<title>Node5</title>
<g id="a_node5"><a xlink:title=" ">
<polygon fill="none" stroke="#bfbfbf" points="0,-544.5 0,-612.5 106,-612.5 106,-544.5 0,-544.5"/>
<text text-anchor="start" x="8" y="-600.5" font-family="Helvetica,sans-Serif" font-size="10.00">std::basic_istream</text>
<text text-anchor="middle" x="53" y="-589.5" font-family="Helvetica,sans-Serif" font-size="10.00">&lt; Char &gt;</text>
<polyline fill="none" stroke="#bfbfbf" points="0,-582.5 106,-582.5 "/>
<text text-anchor="middle" x="53" y="-570.5" font-family="Helvetica,sans-Serif" font-size="10.00"> </text>
<polyline fill="none" stroke="#bfbfbf" points="0,-563.5 106,-563.5 "/>
<text text-anchor="middle" x="53" y="-551.5" font-family="Helvetica,sans-Serif" font-size="10.00"> </text>
</a>
</g>
</g>
<!-- Node5&#45;&gt;Node4 -->
<g id="edge4" class="edge">
<title>Node5&#45;&gt;Node4</title>
<path fill="none" stroke="midnightblue" d="M77.95,-535.65C83.68,-526.03 89.71,-515.93 95.19,-506.73"/>
<polygon fill="none" stroke="midnightblue" points="74.9,-533.93 72.79,-544.31 80.91,-537.51 74.9,-533.93"/>
</g>
<!-- Node6 -->
<g id="node6" class="node">
<title>Node6</title>
<g id="a_node6"><a xlink:title=" ">
<polygon fill="none" stroke="#bfbfbf" points="51,-650.5 51,-707.5 179,-707.5 179,-650.5 51,-650.5"/>
<text text-anchor="middle" x="115" y="-695.5" font-family="Helvetica,sans-Serif" font-size="10.00">std::basic_ios&lt; Char &gt;</text>
<polyline fill="none" stroke="#bfbfbf" points="51,-688.5 179,-688.5 "/>
<text text-anchor="middle" x="115" y="-676.5" font-family="Helvetica,sans-Serif" font-size="10.00"> </text>
<polyline fill="none" stroke="#bfbfbf" points="51,-669.5 179,-669.5 "/>
<text text-anchor="middle" x="115" y="-657.5" font-family="Helvetica,sans-Serif" font-size="10.00"> </text>
</a>
</g>
</g>
<!-- Node6&#45;&gt;Node5 -->
<g id="edge5" class="edge">
<title>Node6&#45;&gt;Node5</title>
<path fill="none" stroke="midnightblue" d="M92.19,-641.77C86.18,-632.22 79.72,-621.96 73.82,-612.58"/>
<polygon fill="none" stroke="midnightblue" points="89.28,-643.7 97.56,-650.3 95.2,-639.97 89.28,-643.7"/>
</g>
<!-- Node8 -->
<g id="node8" class="node">
<title>Node8</title>
<g id="a_node8"><a xlink:title=" ">
<polygon fill="none" stroke="#bfbfbf" points="124.5,-544.5 124.5,-612.5 233.5,-612.5 233.5,-544.5 124.5,-544.5"/>
<text text-anchor="start" x="132.5" y="-600.5" font-family="Helvetica,sans-Serif" font-size="10.00">std::basic_ostream</text>
<text text-anchor="middle" x="179" y="-589.5" font-family="Helvetica,sans-Serif" font-size="10.00">&lt; Char &gt;</text>
<polyline fill="none" stroke="#bfbfbf" points="124.5,-582.5 233.5,-582.5 "/>
<text text-anchor="middle" x="179" y="-570.5" font-family="Helvetica,sans-Serif" font-size="10.00"> </text>
<polyline fill="none" stroke="#bfbfbf" points="124.5,-563.5 233.5,-563.5 "/>
<text text-anchor="middle" x="179" y="-551.5" font-family="Helvetica,sans-Serif" font-size="10.00"> </text>
</a>
</g>
</g>
<!-- Node6&#45;&gt;Node8 -->
<g id="edge8" class="edge">
<title>Node6&#45;&gt;Node8</title>
<path fill="none" stroke="midnightblue" d="M138.54,-641.77C144.75,-632.22 151.41,-621.96 157.51,-612.58"/>
<polygon fill="none" stroke="midnightblue" points="135.51,-640.01 133,-650.3 141.38,-643.82 135.51,-640.01"/>
</g>
<!-- Node7 -->
<g id="node7" class="node">
<title>Node7</title>
<g id="a_node7"><a xlink:title=" ">
<polygon fill="none" stroke="#bfbfbf" points="75,-745.5 75,-802.5 155,-802.5 155,-745.5 75,-745.5"/>
<text text-anchor="middle" x="115" y="-790.5" font-family="Helvetica,sans-Serif" font-size="10.00">std::ios_base</text>
<polyline fill="none" stroke="#bfbfbf" points="75,-783.5 155,-783.5 "/>
<text text-anchor="middle" x="115" y="-771.5" font-family="Helvetica,sans-Serif" font-size="10.00"> </text>
<polyline fill="none" stroke="#bfbfbf" points="75,-764.5 155,-764.5 "/>
<text text-anchor="middle" x="115" y="-752.5" font-family="Helvetica,sans-Serif" font-size="10.00"> </text>
</a>
</g>
</g>
<!-- Node7&#45;&gt;Node6 -->
<g id="edge6" class="edge">
<title>Node7&#45;&gt;Node6</title>
<path fill="none" stroke="midnightblue" d="M115,-735.24C115,-726.03 115,-716.35 115,-707.71"/>
<polygon fill="none" stroke="midnightblue" points="111.5,-735.35 115,-745.35 118.5,-735.35 111.5,-735.35"/>
</g>
<!-- Node8&#45;&gt;Node4 -->
<g id="edge7" class="edge">
<title>Node8&#45;&gt;Node4</title>
<path fill="none" stroke="midnightblue" d="M153.25,-535.65C147.33,-526.03 141.11,-515.93 135.45,-506.73"/>
<polygon fill="none" stroke="midnightblue" points="150.35,-537.63 158.57,-544.31 156.31,-533.96 150.35,-537.63"/>
</g>
</g>
</svg>
